{"_v":2,"glyphs":{"0":{"ha":490,"x_min":37,"x_max":451,"o":"m 244 -11 l 244 -11 q 176 -11 131 28 q 85 66 61 147 q 37 228 37 357 l 37 357 q 37 479 59 561 q 80 643 126 684 q 171 725 243 725 l 243 725 q 314 725 360 683 q 405 641 428 559 q 451 477 451 356 l 451 356 q 451 273 441 205 q 430 137 406 89 q 382 41 343 15 q 303 -11 244 -11 z m 244 93 l 244 93 q 268 93 285 109 q 302 124 313 157 q 323 189 328 239 q 332 289 332 356 l 332 356 q 332 425 328 475 q 323 524 313 557 q 302 589 285 605 q 268 621 244 621 l 244 621 q 220 621 203 605 q 186 589 176 557 q 166 524 162 475 q 157 425 157 357 l 157 357 q 157 289 162 240 q 166 190 176 158 q 186 125 203 109 q 219 93 244 93 z"},"1":{"ha":490,"x_min":58,"x_max":349,"o":"m 349 714 l 349 0 l 231 0 l 231 443 q 231 470 233 507 q 234 543 235 574 l 235 574 q 231 569 218 555 q 205 541 191 528 l 191 528 l 122 464 l 58 532 l 252 714 l 349 714 z"},"2":{"ha":490,"x_min":35,"x_max":451,"o":"m 451 0 l 35 0 l 35 85 l 189 280 q 238 339 265 380 q 292 420 304 455 q 315 489 315 528 l 315 528 q 315 557 305 578 q 295 598 276 609 q 257 619 231 619 l 231 619 q 196 619 163 605 q 129 591 96 566 l 96 566 l 38 650 q 64 670 94 687 q 123 704 159 714 q 195 724 237 724 l 237 724 q 297 724 342 700 q 386 676 411 634 q 435 592 435 537 l 435 537 q 435 483 418 437 q 400 390 366 342 q 331 294 281 235 l 281 235 l 179 111 l 179 106 l 451 106 l 451 0 z"},"3":{"ha":490,"x_min":34,"x_max":446,"o":"m 209 -10 l 209 -10 q 159 -10 115 -3 q 71 4 35 20 l 35 20 l 35 128 q 75 110 115 101 q 154 91 195 91 l 195 91 q 262 91 292 123 q 321 155 321 211 l 321 211 q 321 246 306 270 q 291 293 257 305 q 223 317 168 317 l 168 317 l 123 317 l 123 418 l 171 418 q 223 418 254 432 q 284 445 298 471 q 311 496 311 529 l 311 529 q 311 573 289 597 q 267 621 217 621 l 217 621 q 178 621 148 608 q 117 594 92 577 l 92 577 l 34 663 q 78 692 123 708 q 168 724 228 724 l 228 724 q 291 724 336 704 q 381 684 405 646 q 429 608 429 553 l 429 553 q 429 509 413 474 q 396 439 367 414 q 337 389 296 376 l 296 376 l 296 372 q 370 361 408 317 q 446 272 446 202 l 446 202 q 446 139 420 91 q 393 43 341 17 q 288 -10 209 -10 z"},"4":{"ha":490,"x_min":17,"x_max":474,"o":"m 396 0 l 279 0 l 279 150 l 17 150 l 17 240 l 281 716 l 396 716 l 396 249 l 474 249 l 474 150 l 396 150 l 396 0 z m 244 487 l 118 249 l 279 249 l 279 443 q 279 461 280 488 q 281 515 282 539 q 283 562 284 568 l 284 568 l 280 568 q 272 546 263 526 q 254 505 244 487 l 244 487 z"},"5":{"ha":490,"x_min":48,"x_max":445,"o":"m 203 -11 l 203 -11 q 160 -11 119 -2 q 77 6 48 20 l 48 20 l 48 130 q 77 114 117 104 q 156 93 198 93 l 198 93 q 240 93 268 110 q 296 126 310 156 q 324 186 324 228 l 324 228 q 324 286 293 317 q 262 348 199 348 l 199 348 q 175 348 149 343 q 122 338 102 332 l 102 332 l 57 368 l 79 714 l 401 714 l 401 607 l 182 607 l 170 442 q 187 445 205 448 q 223 450 245 450 l 245 450 q 307 450 352 424 q 396 397 421 350 q 445 302 445 237 l 445 237 q 445 162 418 106 q 391 50 338 20 q 284 -11 203 -11 z"},"6":{"ha":490,"x_min":40,"x_max":455,"o":"m 254 -11 l 254 -11 q 206 -11 167 9 q 128 29 100 69 q 71 108 56 167 q 40 226 40 304 l 40 304 q 40 373 48 435 q 56 497 76 550 q 95 603 128 642 q 161 680 210 702 q 259 723 327 723 l 327 723 q 348 723 373 721 q 397 719 414 715 l 414 715 l 414 612 q 398 616 379 619 q 359 622 339 622 l 339 622 q 271 622 231 594 q 191 565 172 511 q 153 457 150 378 l 150 378 l 155 378 q 167 403 185 422 q 203 440 228 450 q 253 460 284 460 l 284 460 q 339 460 377 432 q 415 404 435 353 q 455 302 455 233 l 455 233 q 455 161 432 106 q 408 50 363 20 q 318 -11 254 -11 z m 252 92 l 252 92 q 290 92 314 126 q 338 159 338 232 l 338 232 q 338 293 317 327 q 296 360 253 360 l 253 360 q 224 360 203 345 q 181 329 170 304 q 158 279 158 252 l 158 252 q 158 224 164 196 q 170 167 181 144 q 192 121 210 107 q 227 92 252 92 z"},"7":{"ha":490,"x_min":28,"x_max":456,"o":"m 225 0 l 101 0 l 334 607 l 28 607 l 28 713 l 456 713 l 456 630 l 225 0 z"},"8":{"ha":490,"x_min":34,"x_max":456,"o":"m 246 -10 l 246 -10 q 180 -10 133 13 q 85 35 60 78 q 34 120 34 179 l 34 179 q 34 223 49 259 q 63 294 91 323 q 118 351 156 373 l 156 373 q 123 397 101 425 q 78 452 66 484 q 53 516 53 554 l 53 554 q 53 608 79 646 q 104 684 148 704 q 191 724 245 724 l 245 724 q 301 724 344 704 q 387 684 412 647 q 437 609 437 553 l 437 553 q 437 514 424 481 q 410 448 385 422 q 360 396 323 375 l 323 375 q 363 351 393 323 q 422 295 439 261 q 456 226 456 183 l 456 183 q 456 123 429 80 q 401 37 354 14 q 306 -10 246 -10 z m 244 84 l 244 84 q 294 84 319 111 q 343 138 343 185 l 343 185 q 343 210 331 232 q 319 254 299 274 q 278 293 252 310 l 252 310 l 238 319 q 208 301 188 281 q 167 261 156 237 q 145 213 145 183 l 145 183 q 145 139 171 112 q 196 84 244 84 z m 243 431 l 243 431 q 268 447 286 463 q 304 479 314 500 q 324 521 324 548 l 324 548 q 324 588 303 609 q 281 630 245 630 l 245 630 q 211 630 189 608 q 166 586 166 547 l 166 547 q 166 521 176 500 q 186 479 204 463 q 221 446 243 431 z"},"9":{"ha":490,"x_min":34,"x_max":450,"o":"m 161 -11 l 161 -11 q 142 -11 116 -8 q 90 -6 74 -2 l 74 -2 l 74 101 q 91 97 111 94 q 130 91 150 91 l 150 91 q 203 91 239 109 q 274 127 295 161 q 316 194 327 238 q 337 282 338 335 l 338 335 l 333 335 q 321 311 304 293 q 286 274 262 264 q 238 253 203 253 l 203 253 q 150 253 112 282 q 74 310 54 361 q 34 412 34 480 l 34 480 q 34 553 58 608 q 81 662 127 693 q 172 723 237 723 l 237 723 q 285 723 324 704 q 363 684 391 645 q 419 606 435 549 q 450 492 450 416 l 450 416 q 450 345 441 281 q 432 217 412 164 q 392 111 359 72 q 326 32 277 11 q 228 -11 161 -11 z m 236 353 l 236 353 q 268 353 289 370 q 309 387 321 413 q 332 438 332 464 l 332 464 q 332 486 327 513 q 322 539 312 564 q 301 589 283 605 q 265 620 239 620 l 239 620 q 200 620 176 587 q 152 553 152 479 l 152 479 q 152 417 174 385 q 195 353 236 353 z"},"\r":{"ha":247,"x_min":0,"x_max":0,"o":""}," ":{"ha":247,"x_min":0,"x_max":0,"o":""},"ഀ":{"ha":0,"x_min":-420,"x_max":-136,"o":"m -420 716 l -420 716 q -420 783 -382 824 q -344 864 -279 864 l -279 864 q -212 864 -174 824 q -136 783 -136 716 l -136 716 q -136 650 -174 609 q -212 568 -279 568 l -279 568 q -345 568 -382 609 q -420 649 -420 716 z m -335 716 l -335 716 q -335 686 -321 665 q -308 643 -279 643 l -279 643 q -249 643 -235 665 q -221 686 -221 717 l -221 717 q -221 747 -235 768 q -250 789 -279 789 l -279 789 q -308 789 -321 768 q -335 747 -335 716 z"},"ഁ":{"ha":0,"x_min":-442,"x_max":-114,"o":"m -278 643 l -278 643 q -356 643 -399 686 q -442 728 -442 807 l -442 807 q -442 823 -440 838 q -438 852 -435 864 l -435 864 l -356 851 q -359 841 -360 830 q -361 819 -361 810 l -361 810 q -361 776 -350 757 q -339 738 -320 730 q -302 722 -278 722 l -278 722 q -257 722 -238 730 q -219 737 -207 757 q -195 776 -195 812 l -195 812 q -195 818 -196 830 q -197 841 -200 852 l -200 852 l -121 863 q -118 851 -116 837 q -114 823 -114 808 l -114 808 q -114 729 -157 686 q -201 643 -278 643 z m -279 755 l -279 755 q -304 755 -316 769 q -328 783 -328 807 l -328 807 q -328 830 -316 845 q -304 860 -279 860 l -279 860 q -254 860 -241 846 q -229 831 -229 808 l -229 808 q -229 784 -241 770 q -254 755 -279 755 z"},"ം":{"ha":419,"x_min":30,"x_max":389,"o":"m 209 -12 l 209 -12 q 154 -12 114 12 q 73 35 52 78 q 30 121 30 178 l 30 178 q 30 238 53 281 q 76 323 116 346 q 156 369 209 369 l 209 369 q 263 369 303 346 q 343 323 366 281 q 389 239 389 178 l 389 178 q 389 120 366 77 q 343 34 303 11 q 263 -12 209 -12 z m 209 282 l 209 282 q 177 282 157 259 q 137 235 137 177 l 137 177 q 137 123 158 99 q 178 74 210 74 l 210 74 q 241 74 262 98 q 282 122 282 178 l 282 178 q 282 235 262 259 q 242 282 209 282 z"},"ഃ":{"ha":313,"x_min":29,"x_max":284,"o":"m 29 437 l 29 437 q 29 497 64 534 q 98 571 156 571 l 156 571 q 214 571 249 535 q 284 498 284 437 l 284 437 q 284 377 250 341 q 215 304 156 304 l 156 304 q 98 304 64 341 q 29 377 29 437 z m 111 438 l 111 438 q 111 411 123 395 q 134 378 156 378 l 156 378 q 179 378 191 394 q 202 410 202 438 l 202 438 q 202 465 191 481 q 179 497 156 497 l 156 497 q 134 497 123 482 q 111 466 111 438 z m 29 122 l 29 122 q 29 182 64 219 q 98 255 156 255 l 156 255 q 214 255 249 219 q 284 183 284 122 l 284 122 q 284 61 250 25 q 215 -12 156 -12 l 156 -12 q 98 -12 64 25 q 29 62 29 122 z m 111 122 l 111 122 q 111 95 123 79 q 134 62 156 62 l 156 62 q 179 62 191 78 q 202 94 202 122 l 202 122 q 202 149 191 165 q 179 181 156 181 l 156 181 q 134 181 123 165 q 111 149 111 122 z"},"ഄ":{"ha":548,"x_min":34,"x_max":513,"o":"m 50 332 l 50 332 l 156 312 q 150 290 147 267 q 144 243 144 220 l 144 220 q 144 155 174 118 q 204 81 273 81 l 273 81 q 344 81 374 118 q 403 155 403 220 l 403 220 q 403 242 401 266 q 398 290 392 312 l 392 312 l 497 332 q 504 311 509 281 q 513 250 513 218 l 513 218 q 513 151 491 100 q 468 49 415 20 q 362 -9 273 -9 l 273 -9 q 185 -9 132 20 q 79 49 57 100 q 34 151 34 218 l 34 218 q 34 250 39 281 q 44 311 50 332 z m 227 180 l 227 412 l 322 412 l 322 180 l 227 180 z"},"അ":{"ha":1337,"x_min":36,"x_max":1301,"o":"m 335 571 l 335 571 q 377 571 427 562 q 477 553 520 531 l 520 531 q 528 528 534 523 q 539 517 546 513 l 546 513 q 573 500 595 481 q 617 461 631 435 q 645 408 645 371 l 645 371 q 645 343 637 322 q 628 300 610 283 q 591 265 561 253 l 561 253 l 558 262 q 602 249 629 217 q 655 184 655 136 l 655 136 q 655 95 638 62 q 620 28 581 8 q 542 -12 477 -12 l 477 -12 q 403 -12 357 20 q 311 51 290 107 q 269 162 269 236 l 269 236 q 269 293 284 345 q 298 396 330 440 q 362 484 412 515 l 412 515 q 417 519 421 523 q 425 527 430 530 l 430 530 q 464 549 507 560 q 549 571 597 571 l 597 571 q 655 571 696 558 q 736 544 765 521 q 794 497 817 464 l 817 464 l 854 243 l 854 0 l 740 0 l 740 288 q 740 358 731 394 q 722 430 696 454 l 696 454 q 678 470 653 478 q 628 486 593 486 l 593 486 q 568 486 545 482 q 522 477 505 471 l 505 471 q 471 458 446 434 q 421 410 406 378 q 391 346 384 310 q 377 273 377 235 l 377 235 q 377 148 401 111 q 425 74 472 74 l 472 74 q 508 74 526 91 q 544 107 544 140 l 544 140 q 544 173 522 192 q 500 211 457 211 l 457 211 l 446 211 l 446 299 l 455 299 q 495 299 515 319 q 535 338 535 370 l 535 370 q 535 406 512 433 q 488 460 434 473 l 434 473 q 414 481 391 484 q 368 486 346 486 l 346 486 q 280 486 237 460 q 194 434 173 389 q 152 343 152 284 l 152 284 q 152 233 163 192 q 174 151 194 118 q 214 84 242 53 l 242 53 l 162 -10 q 126 24 98 66 q 69 108 53 163 q 36 218 36 288 l 36 288 q 36 341 52 392 q 67 442 102 483 q 136 523 194 547 q 252 571 335 571 z m 1109 -12 l 1109 -12 q 1046 -12 1008 17 q 970 45 952 94 q 933 143 933 203 l 933 203 q 933 299 975 353 q 1016 406 1094 406 l 1094 406 q 1138 406 1171 384 q 1203 361 1226 322 q 1248 283 1259 235 l 1259 235 l 1218 229 q 1212 250 1199 271 q 1186 292 1167 307 q 1147 321 1121 321 l 1121 321 q 1080 321 1062 290 q 1044 258 1044 199 l 1044 199 q 1044 161 1051 133 q 1058 105 1074 91 q 1089 76 1114 76 l 1114 76 q 1138 76 1155 92 q 1172 108 1182 144 q 1191 180 1191 239 l 1191 239 q 1191 251 1190 271 q 1188 290 1185 309 l 1185 309 q 1185 314 1186 321 q 1186 327 1185 331 l 1185 331 q 1179 370 1157 404 q 1135 438 1097 460 q 1058 481 1002 481 l 1002 481 q 969 481 946 475 q 923 469 902 452 l 902 452 q 887 440 876 421 q 865 402 860 371 q 854 339 854 285 l 854 285 l 854 212 l 781 464 q 806 497 836 521 q 865 545 906 558 q 946 571 1004 571 l 1004 571 q 1077 571 1133 547 q 1189 522 1227 477 q 1264 432 1283 372 q 1301 311 1301 239 l 1301 239 q 1301 148 1278 93 q 1254 37 1211 13 q 1168 -12 1109 -12 z"},"ആ":{"ha":1469,"x_min":36,"x_max":1446,"o":"m 335 571 l 335 571 q 377 571 427 562 q 477 553 520 531 l 520 531 q 528 528 534 523 q 539 517 546 513 l 546 513 q 573 500 595 481 q 617 461 631 435 q 645 408 645 371 l 645 371 q 645 343 637 322 q 628 300 610 283 q 591 265 561 253 l 561 253 l 558 262 q 602 249 629 217 q 655 184 655 136 l 655 136 q 655 95 638 62 q 620 28 581 8 q 542 -12 477 -12 l 477 -12 q 403 -12 357 20 q 311 51 290 107 q 269 162 269 236 l 269 236 q 269 293 284 345 q 298 396 330 440 q 362 484 412 515 l 412 515 q 417 519 421 523 q 425 527 430 530 l 430 530 q 464 549 507 560 q 549 571 597 571 l 597 571 q 655 571 696 558 q 736 544 765 521 q 794 497 817 464 l 817 464 l 854 235 l 854 0 l 740 0 l 740 288 q 740 358 731 394 q 722 430 696 454 l 696 454 q 678 470 653 478 q 628 486 593 486 l 593 486 q 568 486 545 482 q 522 477 505 471 l 505 471 q 471 458 446 434 q 421 410 406 378 q 391 346 384 310 q 377 273 377 235 l 377 235 q 377 148 401 111 q 425 74 472 74 l 472 74 q 508 74 526 91 q 544 107 544 140 l 544 140 q 544 173 522 192 q 500 211 457 211 l 457 211 l 446 211 l 446 299 l 455 299 q 495 299 515 319 q 535 338 535 370 l 535 370 q 535 406 512 433 q 488 460 434 473 l 434 473 q 414 481 391 484 q 368 486 346 486 l 346 486 q 280 486 237 460 q 194 434 173 389 q 152 343 152 284 l 152 284 q 152 233 163 192 q 174 151 194 118 q 214 84 242 53 l 242 53 l 162 -10 q 126 24 98 66 q 69 108 53 163 q 36 218 36 288 l 36 288 q 36 341 52 392 q 67 442 102 483 q 136 523 194 547 q 252 571 335 571 z m 994 571 l 994 571 q 1079 571 1137 539 q 1194 507 1227 455 q 1260 402 1270 339 l 1270 339 q 1275 314 1277 286 q 1279 258 1279 230 l 1279 230 q 1279 145 1257 92 q 1235 38 1194 13 q 1152 -12 1091 -12 l 1091 -12 q 1032 -12 994 13 q 955 38 937 81 q 919 123 919 177 l 919 177 q 919 281 984 337 q 1048 392 1157 392 l 1157 392 q 1175 392 1188 392 q 1201 392 1210 390 l 1210 390 l 1234 388 q 1299 376 1347 336 q 1395 296 1421 235 q 1446 174 1446 95 l 1446 95 q 1446 32 1431 -21 q 1415 -75 1382 -115 q 1348 -156 1294 -178 q 1239 -201 1163 -201 l 1163 -201 q 1125 -201 1093 -195 q 1061 -190 1031 -180 l 1031 -180 l 1062 -94 q 1087 -102 1111 -106 q 1134 -110 1163 -110 l 1163 -110 q 1215 -110 1249 -92 q 1283 -74 1303 -44 q 1322 -15 1330 23 q 1338 60 1338 98 l 1338 98 q 1338 147 1328 184 q 1318 221 1299 248 q 1280 274 1251 291 l 1251 291 l 1217 298 q 1204 303 1189 305 q 1174 307 1161 307 l 1161 307 q 1118 307 1089 292 q 1060 276 1045 248 q 1030 219 1030 177 l 1030 177 q 1030 147 1037 125 q 1044 102 1058 90 q 1072 77 1095 77 l 1095 77 q 1133 77 1152 111 q 1171 145 1171 232 l 1171 232 q 1171 265 1167 297 q 1162 328 1153 356 l 1153 356 l 1149 374 q 1136 407 1114 431 q 1092 455 1062 468 q 1032 481 993 481 l 993 481 q 968 481 945 475 q 922 469 901 452 l 901 452 q 886 440 876 421 q 865 402 860 370 q 854 338 854 284 l 854 284 l 854 210 l 781 464 q 804 497 834 521 q 863 545 902 558 q 941 571 994 571 z"},"ഇ":{"ha":859,"x_min":35,"x_max":824,"o":"m 293 571 l 293 571 q 346 571 382 559 q 418 546 444 526 q 470 505 492 479 l 492 479 l 460 486 q 491 534 532 553 q 572 571 617 571 l 617 571 q 670 571 709 551 q 748 530 774 494 q 799 458 812 412 q 824 365 824 312 l 824 312 q 824 220 803 161 q 782 101 733 61 l 733 61 q 707 41 675 28 q 642 14 596 7 q 550 0 485 0 l 485 0 l 271 0 q 230 0 212 -2 q 193 -5 181 -11 l 181 -11 q 167 -18 161 -28 q 155 -39 155 -53 l 155 -53 q 155 -67 160 -77 q 165 -88 176 -96 l 176 -96 q 188 -103 209 -107 q 229 -111 269 -111 l 269 -111 l 809 -111 l 809 -201 l 262 -201 q 205 -201 165 -192 q 125 -184 100 -168 l 100 -168 q 71 -150 56 -122 q 40 -95 40 -59 l 40 -59 q 40 -22 55 8 q 70 38 101 57 l 101 57 q 117 68 137 75 q 157 81 187 85 q 217 89 260 89 l 260 89 l 450 89 q 514 89 554 95 q 593 100 617 111 q 640 122 657 137 l 657 137 q 690 166 700 210 q 709 253 709 308 l 709 308 q 709 350 699 390 q 688 429 665 456 q 642 482 604 482 l 604 482 q 589 482 576 477 q 563 471 555 460 l 555 460 q 540 444 534 416 q 528 387 528 332 l 528 332 l 528 139 l 416 139 l 416 324 q 416 376 407 406 q 398 435 381 451 l 381 451 q 365 467 344 475 q 322 483 287 483 l 287 483 q 259 483 236 476 q 212 469 194 456 q 175 443 161 425 q 147 406 138 383 l 138 383 q 136 376 136 368 q 135 359 134 352 l 134 352 q 133 343 131 332 q 129 320 129 305 l 129 305 q 129 255 145 229 q 160 202 190 202 l 190 202 q 216 202 228 223 q 239 244 239 275 l 239 275 q 239 296 234 312 q 228 328 217 337 q 205 345 187 345 l 187 345 q 159 345 141 334 q 123 323 105 308 l 105 308 l 47 331 q 65 354 91 376 q 117 397 149 410 q 180 423 213 423 l 213 423 q 260 423 289 403 q 318 383 332 350 q 345 317 345 275 l 345 275 q 345 233 330 198 q 314 162 280 141 q 246 120 192 120 l 192 120 q 146 120 110 143 q 74 165 55 209 q 35 253 35 319 l 35 319 q 35 395 68 452 q 101 508 159 540 q 217 571 293 571 z"},"ഈ":{"ha":1534,"x_min":35,"x_max":1498,"o":"m 293 571 l 293 571 q 346 571 382 559 q 418 546 444 526 q 470 505 492 479 l 492 479 l 460 486 q 491 534 532 553 q 572 571 617 571 l 617 571 q 670 571 709 551 q 748 530 774 494 q 799 458 812 412 q 824 365 824 312 l 824 312 q 824 220 803 161 q 782 101 733 61 l 733 61 q 707 41 675 28 q 642 14 596 7 q 550 0 485 0 l 485 0 l 271 0 q 230 0 212 -2 q 193 -5 181 -11 l 181 -11 q 167 -18 161 -28 q 155 -39 155 -53 l 155 -53 q 155 -67 160 -77 q 165 -88 176 -96 l 176 -96 q 188 -103 209 -107 q 229 -111 269 -111 l 269 -111 l 809 -111 l 809 -201 l 262 -201 q 205 -201 165 -192 q 125 -184 100 -168 l 100 -168 q 71 -150 56 -122 q 40 -95 40 -59 l 40 -59 q 40 -22 55 8 q 70 38 101 57 l 101 57 q 117 68 137 75 q 157 81 187 85 q 217 89 260 89 l 260 89 l 450 89 q 514 89 554 95 q 593 100 617 111 q 640 122 657 137 l 657 137 q 690 166 700 210 q 709 253 709 308 l 709 308 q 709 350 699 390 q 688 429 665 456 q 642 482 604 482 l 604 482 q 589 482 576 477 q 563 471 555 460 l 555 460 q 540 444 534 416 q 528 387 528 332 l 528 332 l 528 139 l 416 139 l 416 324 q 416 376 407 406 q 398 435 381 451 l 381 451 q 365 467 344 475 q 322 483 287 483 l 287 483 q 259 483 236 476 q 212 469 194 456 q 175 443 161 425 q 147 406 138 383 l 138 383 q 136 376 136 368 q 135 359 134 352 l 134 352 q 133 343 131 332 q 129 320 129 305 l 129 305 q 129 255 145 229 q 160 202 190 202 l 190 202 q 216 202 228 223 q 239 244 239 275 l 239 275 q 239 296 234 312 q 228 328 217 337 q 205 345 187 345 l 187 345 q 159 345 141 334 q 123 323 105 308 l 105 308 l 47 331 q 65 354 91 376 q 117 397 149 410 q 180 423 213 423 l 213 423 q 260 423 289 403 q 318 383 332 350 q 345 317 345 275 l 345 275 q 345 233 330 198 q 314 162 280 141 q 246 120 192 120 l 192 120 q 146 120 110 143 q 74 165 55 209 q 35 253 35 319 l 35 319 q 35 395 68 452 q 101 508 159 540 q 217 571 293 571 z m 1312 571 l 1312 571 q 1371 571 1413 540 q 1454 508 1476 450 q 1498 391 1498 309 l 1498 309 q 1498 202 1468 131 q 1438 59 1379 24 q 1320 -12 1233 -12 l 1233 -12 q 1179 -12 1131 -1 q 1083 9 1038 33 l 1038 33 l 1085 117 q 1116 101 1150 91 q 1184 80 1225 80 l 1225 80 q 1283 80 1318 107 q 1353 133 1368 183 q 1382 233 1382 306 l 1382 306 q 1382 397 1360 440 q 1338 482 1303 482 l 1303 482 q 1287 482 1277 476 q 1267 470 1260 459 l 1260 459 q 1251 446 1248 427 q 1245 407 1245 364 l 1245 364 l 1245 262 l 1132 262 l 1132 349 q 1132 394 1130 418 q 1127 441 1119 454 l 1119 454 q 1112 469 1099 476 q 1086 482 1072 482 l 1072 482 q 1037 482 1020 454 q 1003 426 1003 388 l 1003 388 q 1003 355 1007 329 q 1011 303 1017 282 l 1017 282 l 909 258 q 900 287 895 322 q 889 357 889 390 l 889 390 q 889 438 907 479 q 925 519 963 545 q 1000 571 1060 571 l 1060 571 q 1107 571 1139 554 q 1171 537 1193 504 l 1193 504 l 1179 505 q 1204 541 1236 556 q 1267 571 1312 571 z"},"ഉ":{"ha":620,"x_min":35,"x_max":585,"o":"m 310 571 l 310 571 q 387 571 439 548 q 491 524 524 484 q 556 444 571 395 q 585 346 585 295 l 585 295 q 585 217 567 160 q 548 103 505 66 l 505 66 q 475 41 439 27 q 403 12 361 6 q 318 0 267 0 l 267 0 l 255 0 q 226 0 210 -2 q 193 -5 181 -10 l 181 -10 q 167 -17 161 -28 q 155 -39 155 -53 l 155 -53 q 155 -67 160 -77 q 165 -88 176 -96 l 176 -96 q 188 -103 209 -107 q 229 -111 269 -111 l 269 -111 l 568 -111 l 568 -201 l 262 -201 q 205 -201 165 -192 q 125 -184 100 -168 l 100 -168 q 71 -150 56 -122 q 40 -95 40 -59 l 40 -59 q 40 -22 55 8 q 70 38 101 58 l 101 58 q 125 73 159 81 q 193 88 244 89 l 244 89 l 243 89 q 295 89 331 95 q 366 100 389 111 q 412 122 427 139 l 427 139 q 453 166 461 206 q 469 245 469 292 l 469 292 q 469 325 461 358 q 453 391 435 420 q 416 448 383 465 q 350 481 300 481 l 300 481 q 267 481 240 474 q 213 466 192 452 q 170 437 156 417 q 141 396 134 370 l 134 370 q 134 365 135 361 q 135 357 134 353 l 134 353 q 133 344 131 333 q 129 322 129 305 l 129 305 q 129 255 145 229 q 160 202 190 202 l 190 202 q 216 202 228 223 q 239 244 239 275 l 239 275 q 239 296 234 312 q 228 328 217 337 q 205 345 187 345 l 187 345 q 160 345 141 334 q 121 323 104 308 l 104 308 l 47 331 q 65 354 91 376 q 117 397 149 410 q 180 423 213 423 l 213 423 q 260 423 289 403 q 318 383 332 350 q 345 317 345 275 l 345 275 q 345 233 330 198 q 314 162 280 141 q 246 120 192 120 l 192 120 q 146 120 110 143 q 74 165 55 209 q 35 253 35 317 l 35 317 q 35 373 54 420 q 73 467 109 501 q 145 534 196 553 q 246 571 310 571 z"},"ഊ":{"ha":1294,"x_min":35,"x_max":1258,"o":"m 310 571 l 310 571 q 387 571 439 548 q 491 524 524 484 q 556 444 571 395 q 585 346 585 295 l 585 295 q 585 217 567 160 q 548 103 505 66 l 505 66 q 475 41 439 27 q 403 12 361 6 q 318 0 267 0 l 267 0 l 255 0 q 226 0 210 -2 q 193 -5 181 -10 l 181 -10 q 167 -17 161 -28 q 155 -39 155 -53 l 155 -53 q 155 -67 160 -77 q 165 -88 176 -96 l 176 -96 q 188 -103 209 -107 q 229 -111 269 -111 l 269 -111 l 568 -111 l 568 -201 l 262 -201 q 205 -201 165 -192 q 125 -184 100 -168 l 100 -168 q 71 -150 56 -122 q 40 -95 40 -59 l 40 -59 q 40 -22 55 8 q 70 38 101 58 l 101 58 q 125 73 159 81 q 193 88 244 89 l 244 89 l 243 89 q 295 89 331 95 q 366 100 389 111 q 412 122 427 139 l 427 139 q 453 166 461 206 q 469 245 469 292 l 469 292 q 469 325 461 358 q 453 391 435 420 q 416 448 383 465 q 350 481 300 481 l 300 481 q 267 481 240 474 q 213 466 192 452 q 170 437 156 417 q 141 396 134 370 l 134 370 q 134 365 135 361 q 135 357 134 353 l 134 353 q 133 344 131 333 q 129 322 129 305 l 129 305 q 129 255 145 229 q 160 202 190 202 l 190 202 q 216 202 228 223 q 239 244 239 275 l 239 275 q 239 296 234 312 q 228 328 217 337 q 205 345 187 345 l 187 345 q 160 345 141 334 q 121 323 104 308 l 104 308 l 47 331 q 65 354 91 376 q 117 397 149 410 q 180 423 213 423 l 213 423 q 260 423 289 403 q 318 383 332 350 q 345 317 345 275 l 345 275 q 345 233 330 198 q 314 162 280 141 q 246 120 192 120 l 192 120 q 146 120 110 143 q 74 165 55 209 q 35 253 35 317 l 35 317 q 35 373 54 420 q 73 467 109 501 q 145 534 196 553 q 246 571 310 571 z m 1072 571 l 1072 571 q 1131 571 1173 540 q 1214 508 1236 450 q 1258 391 1258 309 l 1258 309 q 1258 202 1228 131 q 1198 59 1139 24 q 1080 -12 993 -12 l 993 -12 q 939 -12 891 -1 q 843 9 798 33 l 798 33 l 845 117 q 876 101 910 91 q 944 80 985 80 l 985 80 q 1043 80 1078 107 q 1113 133 1128 183 q 1142 233 1142 306 l 1142 306 q 1142 397 1120 440 q 1098 482 1063 482 l 1063 482 q 1047 482 1037 476 q 1027 470 1020 459 l 1020 459 q 1011 446 1008 427 q 1005 407 1005 364 l 1005 364 l 1005 262 l 892 262 l 892 349 q 892 394 890 418 q 887 441 879 454 l 879 454 q 872 469 859 476 q 846 482 832 482 l 832 482 q 797 482 780 454 q 763 426 763 388 l 763 388 q 763 355 767 329 q 771 303 777 282 l 777 282 l 669 258 q 660 287 655 322 q 649 357 649 390 l 649 390 q 649 438 667 479 q 685 519 723 545 q 760 571 820 571 l 820 571 q 867 571 899 554 q 931 537 953 504 l 953 504 l 939 505 q 964 541 996 556 q 1027 571 1072 571 z"},"ഋ":{"ha":814,"x_min":33,"x_max":781,"o":"m 603 571 l 603 571 q 685 571 733 516 q 781 460 781 354 l 781 354 q 781 287 760 237 q 738 187 697 152 l 697 152 q 657 114 603 95 q 548 75 474 75 l 474 75 l 346 75 q 297 75 256 83 q 215 91 183 108 q 150 124 124 148 l 124 148 q 80 183 57 234 q 33 285 33 354 l 33 354 q 33 420 56 469 q 79 517 121 544 q 163 571 220 571 l 220 571 q 274 571 310 549 q 345 527 363 489 q 381 451 381 405 l 381 405 q 381 349 363 312 q 345 275 311 256 q 276 237 228 237 l 228 237 q 194 237 164 250 q 133 263 109 282 q 84 300 67 319 l 67 319 l 97 401 q 113 378 128 360 q 142 341 160 331 q 178 320 203 320 l 203 320 q 237 320 255 342 q 272 363 272 407 l 272 407 q 272 443 257 464 q 241 485 214 485 l 214 485 q 190 485 173 472 q 156 458 148 431 q 139 404 139 365 l 139 365 q 139 346 142 328 q 144 310 148 295 l 148 295 l 143 274 q 155 242 180 221 q 204 199 237 186 q 269 173 305 167 q 341 161 376 161 l 376 161 l 440 161 q 472 161 508 167 q 543 172 577 185 q 610 197 635 219 q 660 241 672 274 l 672 274 l 668 295 q 671 309 674 328 q 676 346 676 364 l 676 364 q 676 405 668 432 q 660 458 644 472 q 628 485 604 485 l 604 485 q 576 485 560 464 q 544 442 544 402 l 544 402 q 544 361 561 341 q 577 320 610 320 l 610 320 q 636 320 654 331 q 672 341 687 359 q 702 377 717 400 l 717 400 l 747 318 q 731 300 707 282 q 683 263 653 250 q 622 237 586 237 l 586 237 q 538 237 504 256 q 470 275 452 312 q 434 348 434 401 l 434 401 q 434 450 454 489 q 473 527 511 549 q 548 571 603 571 z m 408 -235 l 408 -235 q 305 -235 233 -215 q 161 -195 124 -151 q 86 -108 86 -40 l 86 -40 q 86 6 107 39 q 128 71 165 92 q 202 112 251 122 q 300 131 355 131 l 355 131 l 456 131 q 515 131 565 122 q 614 112 651 92 q 688 71 709 38 q 729 5 729 -41 l 729 -41 q 729 -104 695 -147 q 660 -190 589 -212 q 517 -235 408 -235 z m 409 -144 l 409 -144 q 481 -144 526 -131 q 571 -119 592 -95 q 613 -72 613 -37 l 613 -37 q 613 -5 597 16 q 581 37 553 49 q 524 61 490 66 q 455 71 417 71 l 417 71 l 399 71 q 345 71 300 61 q 255 51 229 28 q 202 4 202 -36 l 202 -36 q 202 -72 223 -96 q 244 -120 290 -132 q 335 -144 409 -144 z"},"ഌ":{"ha":1047,"x_min":37,"x_max":1012,"o":"m 325 571 l 325 571 q 397 571 443 547 q 489 522 527 474 l 527 474 l 545 398 l 565 215 l 565 0 l 451 0 l 451 299 q 451 365 442 398 q 433 430 415 449 l 415 449 q 401 464 380 473 q 359 481 325 481 l 325 481 q 271 481 230 454 q 189 426 165 373 q 141 320 141 244 l 141 244 l 141 229 q 141 170 151 137 q 161 103 178 89 q 194 75 215 75 l 215 75 q 233 75 245 85 q 257 94 264 113 q 270 132 270 163 l 270 163 q 270 210 255 232 q 240 253 208 253 l 208 253 q 179 253 153 236 q 127 219 101 185 l 101 185 l 84 264 q 107 292 148 315 q 188 338 236 338 l 236 338 q 282 338 314 318 q 346 298 363 261 q 380 223 380 170 l 380 170 q 380 110 361 70 q 341 29 306 9 q 270 -12 219 -12 l 219 -12 q 171 -12 130 13 q 88 38 63 94 q 37 149 37 242 l 37 242 q 37 352 75 425 q 113 498 178 535 q 243 571 325 571 z m 819 -12 l 819 -12 q 757 -12 719 17 q 680 45 662 94 q 644 143 644 203 l 644 203 q 644 299 685 353 q 726 406 804 406 l 804 406 q 849 406 882 384 q 914 361 937 322 q 959 283 970 235 l 970 235 l 928 229 q 923 250 910 271 q 897 292 878 307 q 858 321 831 321 l 831 321 q 791 321 773 290 q 755 258 755 199 l 755 199 q 755 161 762 133 q 769 105 785 91 q 800 76 824 76 l 824 76 q 848 76 866 92 q 883 108 892 144 q 901 180 901 239 l 901 239 q 901 251 900 271 q 898 290 896 309 l 896 309 q 895 314 896 321 q 897 327 895 331 l 895 331 q 889 370 867 404 q 845 438 807 460 q 769 481 713 481 l 713 481 q 680 481 657 475 q 633 469 612 452 l 612 452 q 597 440 587 421 q 576 402 571 371 q 565 339 565 285 l 565 285 l 565 212 l 491 464 q 516 497 546 521 q 575 545 616 558 q 656 571 715 571 l 715 571 q 788 571 844 547 q 899 522 937 477 q 974 432 993 372 q 1012 311 1012 239 l 1012 239 q 1012 148 988 93 q 964 37 921 13 q 878 -12 819 -12 z"},"എ":{"ha":1127,"x_min":29,"x_max":1089,"o":"m 216 356 l 216 356 q 281 356 322 330 q 362 304 382 264 q 401 223 401 178 l 401 178 q 401 140 389 111 q 377 82 367 65 l 367 65 l 352 88 l 765 88 l 757 0 l 298 0 l 258 57 q 270 76 280 103 q 290 130 290 167 l 290 167 q 290 213 272 241 q 254 268 217 268 l 217 268 q 192 268 176 256 q 159 244 151 222 q 142 199 142 172 l 142 172 q 142 126 156 97 q 170 68 187 40 l 187 40 l 99 -10 q 68 30 49 74 q 29 118 29 175 l 29 175 q 29 230 53 270 q 76 310 118 333 q 160 356 216 356 z m 798 571 l 798 571 q 870 571 925 546 q 979 521 1016 471 q 1052 421 1071 348 q 1089 274 1089 179 l 1089 179 q 1089 100 1074 28 q 1059 -44 1032 -108 q 1004 -172 965 -228 l 965 -228 l 876 -176 q 908 -127 929 -73 q 950 -19 961 44 q 971 106 971 178 l 971 178 q 971 241 962 296 q 953 351 933 393 q 912 434 879 458 q 845 482 796 482 l 796 482 q 733 482 692 441 q 650 400 630 326 q 609 251 609 148 l 609 148 q 609 117 610 93 q 611 69 612 49 l 612 49 q 613 42 612 37 q 611 31 611 24 l 611 24 q 616 -41 628 -77 q 639 -113 657 -127 q 674 -142 695 -142 l 695 -142 q 712 -142 721 -131 l 721 -131 q 726 -125 728 -113 q 730 -102 730 -83 l 730 -83 l 730 394 l 843 394 l 843 -52 q 843 -100 836 -132 q 828 -164 808 -187 l 808 -187 q 792 -205 765 -216 q 738 -228 701 -228 l 701 -228 q 637 -228 591 -190 q 544 -153 520 -71 q 495 11 495 146 l 495 146 q 495 242 514 320 q 533 398 571 454 q 608 510 665 541 q 722 571 798 571 z"},"ഏ":{"ha":1139,"x_min":29,"x_max":1111,"o":"m 216 356 l 216 356 q 280 356 321 330 q 362 304 381 264 q 400 223 400 178 l 400 178 q 400 140 388 111 q 376 82 366 65 l 366 65 l 345 88 l 760 88 l 757 0 l 297 0 l 257 57 q 269 76 280 103 q 290 130 290 167 l 290 167 q 290 213 272 241 q 253 268 217 268 l 217 268 q 192 268 175 256 q 158 244 150 222 q 141 199 141 172 l 141 172 q 141 126 155 97 q 169 67 187 40 l 187 40 l 99 -10 q 68 30 49 74 q 29 118 29 175 l 29 175 q 29 230 52 270 q 75 310 117 333 q 159 356 216 356 z m 836 571 l 836 571 q 909 571 960 552 q 1010 532 1042 499 q 1074 465 1089 424 q 1103 382 1103 338 l 1103 338 q 1103 285 1087 247 q 1071 208 1047 183 q 1023 157 997 141 l 997 141 l 996 153 q 1048 129 1080 85 q 1111 41 1111 -30 l 1111 -30 q 1111 -100 1088 -143 q 1065 -187 1026 -207 q 986 -228 935 -228 l 935 -228 q 913 -228 892 -226 q 871 -224 857 -220 l 857 -220 l 874 -133 q 883 -136 894 -137 q 905 -139 913 -139 l 913 -139 q 942 -139 961 -126 q 979 -114 988 -89 q 996 -64 996 -26 l 996 -26 q 996 26 970 60 q 944 94 891 96 l 891 96 l 891 184 q 921 192 942 211 q 963 229 975 259 q 987 288 987 331 l 987 331 q 987 373 971 407 q 955 441 921 461 q 887 480 832 480 l 832 480 q 753 480 704 438 q 655 396 632 321 q 609 246 609 148 l 609 148 q 609 117 610 93 q 610 69 612 49 l 612 49 q 612 43 612 37 q 611 30 611 24 l 611 24 q 615 -41 627 -77 q 639 -113 657 -127 q 674 -142 694 -142 l 694 -142 q 711 -142 720 -131 l 720 -131 q 726 -125 728 -113 q 729 -102 729 -83 l 729 -83 l 729 394 l 842 394 l 842 -52 q 842 -100 835 -132 q 827 -164 807 -187 l 807 -187 q 791 -205 765 -216 q 738 -228 701 -228 l 701 -228 q 637 -228 591 -190 q 544 -153 520 -70 q 495 12 495 148 l 495 148 q 495 244 517 322 q 538 400 581 456 q 624 511 688 541 q 752 571 836 571 z"},"ഐ":{"ha":1768,"x_min":36,"x_max":1730,"o":"m 219 -12 l 219 -12 q 170 -12 129 13 q 87 38 62 93 q 36 147 36 237 l 36 237 q 36 314 58 376 q 79 437 119 481 q 158 525 214 548 q 269 571 338 571 l 338 571 q 406 571 457 550 q 507 528 541 489 q 574 450 590 399 q 606 347 606 286 l 606 286 q 606 218 590 164 q 573 109 544 67 q 515 25 478 -11 l 478 -11 l 399 52 q 424 80 445 113 q 465 145 478 186 q 490 227 490 282 l 490 282 q 490 343 472 388 q 454 433 418 457 q 382 481 329 481 l 329 481 q 273 481 230 449 q 187 417 164 362 q 141 306 141 233 l 141 233 q 141 172 151 138 q 160 103 177 89 q 194 75 215 75 l 215 75 q 232 75 244 85 q 256 94 263 113 q 269 132 269 163 l 269 163 q 269 210 254 232 q 239 253 207 253 l 207 253 q 179 253 153 236 q 127 219 100 185 l 100 185 l 83 264 q 106 292 146 315 q 186 338 234 338 l 234 338 q 281 338 313 318 q 345 298 362 261 q 379 223 379 170 l 379 170 q 379 111 360 71 q 341 30 306 9 q 270 -12 219 -12 z m 857 356 l 857 356 q 922 356 963 330 q 1003 304 1023 264 q 1042 223 1042 178 l 1042 178 q 1042 140 1030 111 q 1018 82 1008 65 l 1008 65 l 993 88 l 1406 88 l 1398 0 l 939 0 l 899 57 q 911 76 921 103 q 931 130 931 167 l 931 167 q 931 213 913 241 q 895 268 858 268 l 858 268 q 833 268 817 256 q 800 244 792 222 q 783 199 783 172 l 783 172 q 783 126 797 97 q 811 68 828 40 l 828 40 l 740 -10 q 709 30 690 74 q 670 118 670 175 l 670 175 q 670 230 694 270 q 717 310 759 333 q 801 356 857 356 z m 1439 571 l 1439 571 q 1511 571 1566 546 q 1620 521 1657 471 q 1693 421 1712 348 q 1730 274 1730 179 l 1730 179 q 1730 100 1715 28 q 1700 -44 1673 -108 q 1645 -172 1606 -228 l 1606 -228 l 1517 -176 q 1549 -127 1570 -73 q 1591 -19 1602 44 q 1612 106 1612 178 l 1612 178 q 1612 241 1603 296 q 1594 351 1574 393 q 1553 434 1520 458 q 1486 482 1437 482 l 1437 482 q 1374 482 1333 441 q 1291 400 1271 326 q 1250 251 1250 148 l 1250 148 q 1250 117 1251 93 q 1252 69 1253 49 l 1253 49 q 1254 42 1253 37 q 1252 31 1252 24 l 1252 24 q 1257 -41 1269 -77 q 1280 -113 1298 -127 q 1315 -142 1336 -142 l 1336 -142 q 1353 -142 1362 -131 l 1362 -131 q 1367 -125 1369 -113 q 1371 -102 1371 -83 l 1371 -83 l 1371 394 l 1484 394 l 1484 -52 q 1484 -100 1477 -132 q 1469 -164 1449 -187 l 1449 -187 q 1433 -205 1406 -216 q 1379 -228 1342 -228 l 1342 -228 q 1278 -228 1232 -190 q 1185 -153 1161 -71 q 1136 11 1136 146 l 1136 146 q 1136 242 1155 320 q 1174 398 1212 454 q 1249 510 1306 541 q 1363 571 1439 571 z"},"ഒ":{"ha":685,"x_min":36,"x_max":653,"o":"m 407 571 l 407 571 q 493 571 546 549 q 598 526 622 489 q 646 452 646 406 l 646 406 q 646 377 637 353 q 627 328 607 309 q 586 290 553 276 l 553 276 l 552 282 q 600 267 627 230 q 653 192 653 143 l 653 143 q 653 71 611 30 q 569 -12 487 -12 l 487 -12 q 458 -12 435 -8 q 411 -4 393 0 l 393 0 l 409 85 q 422 81 437 79 q 451 77 467 77 l 467 77 q 505 77 522 95 q 539 113 539 149 l 539 149 q 539 167 533 183 q 527 199 514 210 l 514 210 q 502 222 482 228 q 461 234 427 234 l 427 234 l 417 234 l 417 322 l 426 322 q 461 322 480 328 q 498 333 511 346 l 511 346 q 521 355 526 368 q 531 380 531 396 l 531 396 q 531 437 499 459 q 467 480 400 480 l 400 480 q 343 480 296 464 q 248 448 213 418 q 178 387 159 343 q 140 299 140 242 l 140 242 l 140 225 q 140 168 150 135 q 159 102 176 89 q 193 75 214 75 l 214 75 q 231 75 244 84 q 256 93 263 113 q 269 132 269 163 l 269 163 q 269 211 254 232 q 238 253 206 253 l 206 253 q 178 253 152 236 q 125 219 99 184 l 99 184 l 80 262 q 104 290 144 314 q 184 338 233 338 l 233 338 q 280 338 312 318 q 344 298 361 261 q 378 223 378 169 l 378 169 q 378 110 359 70 q 340 29 305 9 q 269 -12 218 -12 l 218 -12 q 168 -12 127 13 q 85 38 61 92 q 36 145 36 229 l 36 229 q 36 310 62 374 q 87 437 136 481 q 184 525 253 548 q 322 571 407 571 z"},"ഓ":{"ha":1150,"x_min":36,"x_max":1111,"o":"m 407 571 l 407 571 q 493 571 546 549 q 598 526 622 489 q 646 452 646 406 l 646 406 q 646 377 637 353 q 627 328 607 309 q 586 290 553 276 l 553 276 l 552 282 q 600 267 627 230 q 653 192 653 143 l 653 143 q 653 71 611 30 q 569 -12 487 -12 l 487 -12 q 458 -12 435 -8 q 411 -4 393 0 l 393 0 l 409 85 q 422 81 437 79 q 451 77 467 77 l 467 77 q 505 77 522 95 q 539 113 539 149 l 539 149 q 539 167 533 183 q 527 199 514 210 l 514 210 q 502 222 482 228 q 461 234 427 234 l 427 234 l 417 234 l 417 322 l 426 322 q 461 322 480 328 q 498 333 511 346 l 511 346 q 521 355 526 368 q 531 380 531 396 l 531 396 q 531 437 499 459 q 467 480 400 480 l 400 480 q 343 480 296 464 q 248 448 213 418 q 178 387 159 343 q 140 299 140 242 l 140 242 l 140 225 q 140 168 150 135 q 159 102 176 89 q 193 75 214 75 l 214 75 q 231 75 244 84 q 256 93 263 113 q 269 132 269 163 l 269 163 q 269 211 254 232 q 238 253 206 253 l 206 253 q 178 253 152 236 q 125 219 99 184 l 99 184 l 80 262 q 104 290 144 314 q 184 338 233 338 l 233 338 q 280 338 312 318 q 344 298 361 261 q 378 223 378 169 l 378 169 q 378 110 359 70 q 340 29 305 9 q 269 -12 218 -12 l 218 -12 q 168 -12 127 13 q 85 38 61 92 q 36 145 36 229 l 36 229 q 36 310 62 374 q 87 437 136 481 q 184 525 253 548 q 322 571 407 571 z m 1111 281 l 1111 281 q 1111 216 1101 162 q 1091 108 1067 69 q 1043 30 1003 9 q 963 -12 903 -12 l 903 -12 q 851 -12 815 5 q 778 21 755 49 q 732 76 719 110 q 706 144 700 178 l 700 178 l 814 199 q 820 172 830 143 q 839 114 856 95 q 873 76 903 76 l 903 76 q 936 76 956 100 q 976 124 986 170 q 995 215 995 281 l 995 281 q 995 346 986 391 q 976 436 957 460 q 937 483 905 483 l 905 483 q 879 483 861 466 q 843 448 833 421 q 822 393 816 361 l 816 361 l 703 383 q 712 418 727 452 q 741 485 765 512 q 788 539 824 555 q 860 571 912 571 l 912 571 q 968 571 1007 550 q 1045 528 1068 489 q 1091 450 1101 397 q 1111 344 1111 281 z"},"ഔ":{"ha":1357,"x_min":36,"x_max":1321,"o":"m 407 571 l 407 571 q 493 571 546 549 q 598 526 622 489 q 646 452 646 406 l 646 406 q 646 377 637 353 q 627 328 607 309 q 586 290 553 276 l 553 276 l 552 282 q 600 267 627 230 q 653 192 653 143 l 653 143 q 653 71 611 30 q 569 -12 487 -12 l 487 -12 q 458 -12 435 -8 q 411 -4 393 0 l 393 0 l 409 85 q 422 81 437 79 q 451 77 467 77 l 467 77 q 505 77 522 95 q 539 113 539 149 l 539 149 q 539 167 533 183 q 527 199 514 210 l 514 210 q 502 222 482 228 q 461 234 427 234 l 427 234 l 417 234 l 417 322 l 426 322 q 461 322 480 328 q 498 333 511 346 l 511 346 q 521 355 526 368 q 531 380 531 396 l 531 396 q 531 437 499 459 q 467 480 400 480 l 400 480 q 343 480 296 464 q 248 448 213 418 q 178 387 159 343 q 140 299 140 242 l 140 242 l 140 225 q 140 168 150 135 q 159 102 176 89 q 193 75 214 75 l 214 75 q 231 75 244 84 q 256 93 263 113 q 269 132 269 163 l 269 163 q 269 211 254 232 q 238 253 206 253 l 206 253 q 178 253 152 236 q 125 219 99 184 l 99 184 l 80 262 q 104 290 144 314 q 184 338 233 338 l 233 338 q 280 338 312 318 q 344 298 361 261 q 378 223 378 169 l 378 169 q 378 110 359 70 q 340 29 305 9 q 269 -12 218 -12 l 218 -12 q 168 -12 127 13 q 85 38 61 92 q 36 145 36 229 l 36 229 q 36 310 62 374 q 87 437 136 481 q 184 525 253 548 q 322 571 407 571 z m 1135 571 l 1135 571 q 1194 571 1236 540 q 1277 508 1299 450 q 1321 391 1321 309 l 1321 309 q 1321 202 1291 131 q 1261 59 1202 24 q 1143 -12 1056 -12 l 1056 -12 q 1002 -12 954 -1 q 906 9 861 33 l 861 33 l 908 117 q 939 101 973 91 q 1007 80 1048 80 l 1048 80 q 1106 80 1141 107 q 1176 133 1191 183 q 1205 233 1205 306 l 1205 306 q 1205 397 1183 440 q 1161 482 1126 482 l 1126 482 q 1110 482 1100 476 q 1090 470 1083 459 l 1083 459 q 1074 446 1071 427 q 1068 407 1068 364 l 1068 364 l 1068 262 l 955 262 l 955 349 q 955 394 953 418 q 950 441 942 454 l 942 454 q 935 469 922 476 q 909 482 895 482 l 895 482 q 860 482 843 454 q 826 426 826 388 l 826 388 q 826 355 830 329 q 834 303 840 282 l 840 282 l 732 258 q 723 287 718 322 q 712 357 712 390 l 712 390 q 712 438 730 479 q 748 519 786 545 q 823 571 883 571 l 883 571 q 930 571 962 554 q 994 537 1016 504 l 1016 504 l 1002 505 q 1027 541 1059 556 q 1090 571 1135 571 z"},"ക":{"ha":932,"x_min":29,"x_max":903,"o":"m 197 -12 l 197 -12 q 116 -12 73 33 q 29 78 29 157 l 29 157 q 29 210 52 245 q 74 280 112 301 l 112 301 q 134 314 161 322 q 187 330 225 334 q 263 338 321 338 l 321 338 l 623 338 q 707 338 755 328 q 803 318 836 294 l 836 294 q 866 273 885 239 q 903 204 903 155 l 903 155 q 903 75 857 32 q 810 -12 738 -12 l 738 -12 q 717 -12 700 -9 q 682 -7 662 -1 l 662 -1 l 682 84 q 692 81 702 80 q 712 78 724 78 l 724 78 q 757 78 775 98 q 793 117 793 155 l 793 155 q 793 179 785 197 q 777 214 761 224 l 761 224 q 742 239 716 245 q 689 250 634 250 l 634 250 l 292 250 q 247 250 220 246 q 192 241 172 228 l 172 228 q 157 216 148 200 q 138 183 138 159 l 138 159 q 138 133 146 115 q 154 96 172 87 q 189 77 215 77 l 215 77 q 241 77 264 87 q 286 96 313 117 l 313 117 l 364 41 q 335 20 309 9 q 283 -3 256 -7 q 229 -12 197 -12 z m 468 571 l 468 571 q 544 571 591 536 q 638 500 661 435 q 684 370 684 281 l 684 281 q 684 182 658 117 q 632 52 584 20 q 536 -12 468 -12 l 468 -12 q 413 -12 374 9 q 334 29 308 62 l 308 62 q 277 103 264 161 q 251 218 251 283 l 251 283 q 251 424 308 498 q 365 571 468 571 z m 468 483 l 468 483 q 414 483 388 435 q 362 386 362 280 l 362 280 q 362 209 374 164 q 385 119 409 98 q 432 76 467 76 l 467 76 q 501 76 525 97 q 548 118 560 163 q 572 208 572 280 l 572 280 q 572 352 560 397 q 548 441 525 462 q 502 483 468 483 z"},"ഖ":{"ha":897,"x_min":37,"x_max":838,"o":"m 339 571 l 339 571 q 408 571 458 550 q 508 529 541 491 q 573 453 589 403 q 605 352 605 293 l 605 293 q 605 236 593 190 q 580 144 559 106 q 537 68 510 33 l 510 33 l 510 0 l 461 0 l 406 57 q 428 84 447 116 q 465 148 477 190 q 489 231 489 284 l 489 284 q 489 347 471 391 q 452 435 417 458 q 381 481 331 481 l 331 481 q 272 481 230 450 q 187 418 164 365 q 141 311 141 243 l 141 243 l 141 229 q 141 170 151 136 q 160 102 177 89 q 194 75 215 75 l 215 75 q 232 75 245 85 q 257 94 264 113 q 270 132 270 163 l 270 163 q 270 210 255 232 q 239 253 207 253 l 207 253 q 179 253 153 236 q 126 219 99 184 l 99 184 l 81 262 q 105 290 145 314 q 185 338 234 338 l 234 338 q 281 338 313 318 q 345 298 362 261 q 379 223 379 170 l 379 170 q 379 110 360 70 q 341 29 306 9 q 271 -12 220 -12 l 220 -12 q 171 -12 130 13 q 88 38 63 94 q 37 150 37 242 l 37 242 q 37 347 76 421 q 114 494 183 533 q 251 571 339 571 z m 725 559 l 838 559 l 838 0 l 486 0 l 523 88 l 725 88 l 725 559 z"},"ഗ":{"ha":792,"x_min":36,"x_max":756,"o":"m 536 571 l 536 571 q 605 571 655 540 q 704 508 730 448 q 756 388 756 304 l 756 304 q 756 235 742 179 q 728 122 702 76 q 676 29 642 -12 l 642 -12 l 555 50 q 581 85 601 122 q 620 159 631 203 q 641 247 641 299 l 641 299 q 641 359 628 400 q 614 440 591 461 q 567 481 536 481 l 536 481 q 514 481 499 473 q 483 465 473 450 l 473 450 q 462 432 458 404 q 453 376 453 322 l 453 322 l 453 221 q 453 182 449 149 q 444 116 434 90 q 423 64 404 43 l 404 43 q 379 16 343 2 q 307 -12 257 -12 l 257 -12 q 187 -12 138 21 q 89 53 63 113 q 36 172 36 256 l 36 256 q 36 326 51 383 q 65 440 91 486 q 117 532 151 572 l 151 572 l 237 510 q 211 477 192 439 q 172 401 162 357 q 151 313 151 261 l 151 261 q 151 199 165 159 q 178 118 201 98 q 224 78 253 78 l 253 78 q 277 78 293 86 q 309 94 319 109 l 319 109 q 330 127 334 156 q 338 184 338 239 l 338 239 l 338 335 q 338 399 351 443 q 363 487 393 518 l 393 518 q 417 543 451 557 q 484 571 536 571 z"},"ഘ":{"ha":1182,"x_min":29,"x_max":1123,"o":"m 216 571 l 216 571 q 281 571 322 546 q 362 520 382 480 q 401 439 401 394 l 401 394 q 401 357 390 328 q 378 299 367 282 l 367 282 l 355 306 l 541 306 l 550 218 l 299 218 l 258 274 q 270 292 280 320 q 290 347 290 385 l 290 385 q 290 428 272 456 q 254 483 217 483 l 217 483 q 192 483 176 471 q 159 458 151 437 q 142 416 142 388 l 142 388 q 142 343 156 314 q 169 284 186 257 l 186 257 l 98 207 q 67 247 48 291 q 29 334 29 391 l 29 391 q 29 446 53 487 q 76 527 118 549 q 160 571 216 571 z m 1009 559 l 1123 559 l 1123 0 l 473 0 l 473 317 q 473 393 487 436 q 501 478 526 507 l 526 507 q 552 538 593 555 q 634 571 689 571 l 689 571 q 744 571 785 555 q 825 539 851 508 l 851 508 q 881 474 893 430 q 904 386 904 320 l 904 320 l 904 218 l 586 218 l 586 88 l 1009 88 l 1009 559 z m 688 483 l 688 483 q 633 483 610 443 q 586 403 586 329 l 586 329 l 586 306 l 791 306 l 791 329 q 791 405 767 444 q 742 483 688 483 z"},"ങ":{"ha":945,"x_min":37,"x_max":912,"o":"m 325 571 l 325 571 q 397 571 444 547 q 491 522 527 472 l 527 472 l 548 400 l 565 242 l 565 0 l 451 0 l 451 299 q 451 365 442 398 q 433 430 415 449 l 415 449 q 401 464 380 473 q 359 481 325 481 l 325 481 q 271 481 230 454 q 189 426 165 373 q 141 320 141 244 l 141 244 l 141 229 q 141 170 151 137 q 161 103 178 89 q 194 75 215 75 l 215 75 q 233 75 245 85 q 257 94 264 113 q 270 132 270 163 l 270 163 q 270 210 255 232 q 240 253 208 253 l 208 253 q 179 253 153 236 q 127 219 101 185 l 101 185 l 84 264 q 107 292 148 315 q 188 338 236 338 l 236 338 q 282 338 314 318 q 346 298 363 261 q 380 223 380 170 l 380 170 q 380 110 361 70 q 341 29 306 9 q 270 -12 219 -12 l 219 -12 q 171 -12 130 13 q 88 38 63 94 q 37 149 37 242 l 37 242 q 37 352 75 425 q 113 498 178 535 q 243 571 325 571 z m 713 571 l 713 571 q 776 571 819 550 q 861 529 883 494 q 905 458 905 414 l 905 414 q 905 381 896 356 q 887 330 867 311 q 846 291 814 276 l 814 276 l 813 282 q 859 267 886 230 q 912 193 912 143 l 912 143 q 912 69 870 29 q 827 -12 746 -12 l 746 -12 q 718 -12 695 -8 q 672 -5 655 -1 l 655 -1 l 672 84 q 686 81 699 79 q 711 77 726 77 l 726 77 q 762 77 780 94 q 798 110 798 149 l 798 149 q 798 167 792 183 q 786 199 773 210 l 773 210 q 761 222 741 228 q 721 234 689 234 l 689 234 l 672 234 l 672 322 l 688 322 q 717 322 737 328 q 757 334 769 347 l 769 347 q 780 356 785 371 q 790 385 790 403 l 790 403 q 790 443 768 463 q 746 482 708 482 l 708 482 q 676 482 653 473 q 629 464 612 446 l 612 446 q 596 430 585 408 q 574 385 570 353 q 565 321 565 273 l 565 273 l 565 169 l 475 175 l 467 286 l 479 413 q 496 459 527 495 q 558 530 605 551 q 651 571 713 571 z"},"ച":{"ha":821,"x_min":18,"x_max":762,"o":"m 649 559 l 762 559 l 762 0 l 18 0 l 18 88 l 376 88 l 317 73 q 338 90 356 123 q 374 155 374 200 l 374 200 q 374 242 358 266 q 341 290 309 290 l 309 290 q 274 290 257 267 q 239 243 239 203 l 239 203 q 239 190 241 180 q 242 169 243 162 l 243 162 l 134 152 q 132 162 130 178 q 127 193 127 211 l 127 211 q 127 288 175 333 q 222 378 308 378 l 308 378 q 360 378 394 363 q 428 348 448 323 q 468 298 476 267 q 484 236 484 206 l 484 206 q 484 177 478 153 q 472 129 461 109 q 449 88 435 70 l 435 70 l 414 88 l 649 88 l 649 559 z"},"ഛ":{"ha":1190,"x_min":18,"x_max":1154,"o":"m 308 378 l 308 378 q 360 378 394 363 q 428 348 448 323 q 468 298 476 267 q 484 236 484 206 l 484 206 q 484 177 478 153 q 472 129 461 109 q 449 88 435 70 l 435 70 l 414 88 l 653 88 l 694 0 l 18 0 l 18 88 l 376 88 l 317 73 q 338 90 356 123 q 374 155 374 200 l 374 200 q 374 242 358 266 q 341 290 309 290 l 309 290 q 274 290 257 267 q 239 243 239 203 l 239 203 q 239 190 241 180 q 242 169 243 162 l 243 162 l 134 152 q 132 162 130 178 q 127 193 127 211 l 127 211 q 127 288 175 333 q 222 378 308 378 z m 848 571 l 848 571 q 926 571 983 547 q 1040 522 1078 477 q 1116 432 1135 371 q 1154 310 1154 238 l 1154 238 q 1154 148 1131 93 q 1107 37 1064 13 q 1021 -12 962 -12 l 962 -12 q 900 -12 861 17 q 822 45 804 94 q 786 143 786 203 l 786 203 q 786 299 828 353 q 870 406 947 406 l 947 406 q 992 406 1025 384 q 1057 361 1079 322 q 1101 283 1112 235 l 1112 235 l 1071 229 q 1065 250 1052 271 q 1039 292 1020 307 q 1000 321 975 321 l 975 321 q 934 321 916 290 q 897 258 897 199 l 897 199 q 897 161 904 133 q 911 105 927 91 q 943 76 967 76 l 967 76 q 991 76 1008 92 q 1025 108 1035 144 q 1044 180 1044 239 l 1044 239 q 1044 251 1043 271 q 1041 290 1038 308 l 1038 308 q 1038 313 1038 321 q 1037 328 1035 332 l 1035 332 q 1029 371 1007 405 q 984 439 947 460 q 909 481 858 481 l 858 481 q 797 481 757 457 q 717 432 697 388 q 676 344 676 284 l 676 284 q 676 237 687 197 q 697 156 716 122 q 735 88 759 58 l 759 58 l 712 0 l 672 0 l 660 35 q 634 67 611 105 q 588 142 574 189 q 560 236 560 294 l 560 294 q 560 350 578 401 q 595 451 631 489 q 667 527 721 549 q 775 571 848 571 z"},"ജ":{"ha":823,"x_min":31,"x_max":786,"o":"m 266 571 l 266 571 q 315 571 351 561 q 386 551 413 532 q 440 513 462 487 l 462 487 l 427 487 q 459 533 500 552 q 540 571 591 571 l 591 571 q 661 571 704 543 q 746 514 766 468 q 786 422 786 371 l 786 371 q 786 328 775 296 q 763 263 741 239 q 718 214 686 197 l 686 197 l 553 172 l 474 163 q 450 159 414 157 q 377 155 342 155 l 342 155 l 234 155 q 197 155 180 152 q 163 149 153 142 l 153 142 q 146 136 142 129 q 138 122 138 112 l 138 112 q 138 99 144 89 q 150 79 162 74 q 174 69 192 69 l 192 69 q 218 69 240 74 q 262 78 289 89 q 316 100 356 119 l 356 119 q 382 131 407 141 q 432 150 454 158 q 476 166 496 172 q 515 178 529 182 l 529 182 q 547 188 561 197 q 575 205 587 213 q 598 220 610 226 q 622 231 636 231 l 636 231 q 668 231 697 220 q 726 209 746 183 q 765 157 765 112 l 765 112 q 765 54 729 21 q 692 -12 625 -12 l 625 -12 q 573 -12 543 7 q 512 26 499 56 q 485 85 485 117 l 485 117 q 485 154 501 180 q 516 206 536 220 l 536 220 l 625 216 q 616 208 605 195 q 593 181 584 164 q 575 146 575 121 l 575 121 q 575 89 587 75 q 599 61 622 61 l 622 61 q 648 61 659 76 q 669 91 669 114 l 669 114 q 669 132 664 144 q 658 155 648 161 q 637 167 622 167 l 622 167 q 603 167 588 158 q 572 149 552 131 l 552 131 l 543 145 q 533 134 515 119 q 496 104 472 88 q 447 71 416 57 l 416 57 q 369 33 333 18 q 297 2 262 -5 q 227 -12 185 -12 l 185 -12 q 142 -12 107 0 q 71 12 51 39 q 31 65 31 109 l 31 109 q 31 144 45 169 q 59 194 87 210 l 87 210 q 109 221 139 228 q 168 234 228 234 l 228 234 l 462 234 q 503 234 533 236 q 563 238 586 245 q 609 251 626 261 l 626 261 q 650 276 664 302 q 677 328 677 368 l 677 368 q 677 399 667 425 q 657 451 636 468 q 615 484 580 484 l 580 484 q 560 484 547 479 q 534 473 525 464 l 525 464 q 506 446 501 416 q 496 385 496 340 l 496 340 l 496 262 l 392 262 l 392 321 q 392 369 386 402 q 380 435 357 459 l 357 459 q 344 473 321 483 q 297 492 261 492 l 261 492 q 232 492 199 484 q 165 476 146 455 l 146 455 q 143 452 142 445 q 140 438 139 434 l 139 434 q 133 424 131 411 q 128 398 128 382 l 128 382 q 128 344 142 329 q 155 314 176 314 l 176 314 q 192 314 202 322 q 212 330 216 344 q 220 357 220 372 l 220 372 q 220 400 208 414 q 195 428 171 428 l 171 428 q 153 428 136 420 q 118 412 106 403 l 106 403 l 70 427 q 91 453 128 466 q 165 479 203 479 l 203 479 q 237 479 262 466 q 286 453 300 428 q 314 403 314 367 l 314 367 q 314 333 300 305 q 286 276 256 259 q 226 242 178 242 l 178 242 q 114 242 76 280 q 38 317 38 385 l 38 385 q 38 440 64 482 q 90 523 141 547 q 192 571 266 571 z"},"ഝ":{"ha":1469,"x_min":36,"x_max":1433,"o":"m 601 571 l 601 571 q 657 571 700 557 q 742 543 773 516 l 773 516 q 812 482 830 429 q 847 376 847 290 l 847 290 l 847 213 q 847 181 851 154 q 855 127 867 109 l 867 109 q 877 95 893 87 q 908 79 929 79 l 929 79 q 949 79 964 86 q 979 93 988 105 l 988 105 q 1001 123 1007 151 q 1013 178 1013 228 l 1013 228 l 1013 559 l 1126 559 l 1126 237 q 1126 180 1131 150 q 1136 120 1151 103 l 1151 103 q 1162 90 1178 84 q 1194 78 1208 78 l 1208 78 q 1240 78 1265 100 q 1290 122 1304 163 q 1318 204 1318 262 l 1318 262 q 1318 312 1308 355 q 1297 398 1278 436 q 1258 474 1231 508 l 1231 508 l 1318 570 q 1353 530 1379 484 q 1404 438 1419 382 q 1433 326 1433 256 l 1433 256 q 1433 178 1408 118 q 1382 57 1334 23 q 1286 -12 1218 -12 l 1218 -12 q 1167 -12 1130 7 q 1092 26 1060 68 l 1060 68 l 1074 69 q 1059 48 1039 30 q 1019 11 992 0 q 964 -12 925 -12 l 925 -12 q 875 -12 841 3 q 806 18 783 43 l 783 43 q 766 62 755 86 q 743 110 738 143 q 733 176 733 220 l 733 220 l 733 286 q 733 328 728 359 q 723 390 714 412 q 704 434 688 449 l 688 449 q 672 465 649 475 q 625 485 590 485 l 590 485 q 570 485 552 482 q 534 478 518 471 l 518 471 l 503 465 q 465 447 438 410 q 410 373 396 325 q 382 276 382 221 l 382 221 q 382 163 392 132 q 402 100 420 88 q 437 76 457 76 l 457 76 q 477 76 495 88 q 512 100 522 131 q 532 162 532 218 l 532 218 q 532 275 518 324 q 504 372 478 408 q 452 444 416 464 l 416 464 l 398 472 q 382 479 365 482 q 347 485 330 485 l 330 485 q 271 485 231 459 q 191 433 172 388 q 152 343 152 284 l 152 284 q 152 233 163 192 q 174 151 194 118 q 214 84 242 53 l 242 53 l 162 -10 q 126 24 98 66 q 69 108 53 163 q 36 218 36 288 l 36 288 q 36 342 51 393 q 66 443 100 484 q 133 524 187 548 q 240 571 319 571 l 319 571 q 365 571 402 561 q 439 550 472 529 l 472 529 l 492 515 q 563 471 605 397 q 646 323 646 220 l 646 220 q 646 144 624 92 q 602 40 560 14 q 517 -12 456 -12 l 456 -12 q 396 -12 354 16 q 311 43 289 95 q 267 147 267 220 l 267 220 q 267 286 286 340 q 304 394 339 437 q 373 480 422 512 l 422 512 l 446 529 q 482 551 521 561 q 560 571 601 571 z"},"ഞ":{"ha":1300,"x_min":37,"x_max":1264,"o":"m 325 571 l 325 571 q 397 571 444 546 q 491 521 528 472 l 528 472 l 521 439 l 565 225 l 565 0 l 451 0 l 451 299 q 451 365 442 398 q 433 430 415 449 l 415 449 q 401 464 380 473 q 359 481 325 481 l 325 481 q 271 481 230 454 q 189 426 165 373 q 141 320 141 244 l 141 244 l 141 229 q 141 170 151 136 q 161 102 178 89 q 194 75 215 75 l 215 75 q 233 75 245 85 q 257 94 264 113 q 270 132 270 163 l 270 163 q 270 210 255 232 q 240 253 208 253 l 208 253 q 179 253 153 236 q 127 219 101 185 l 101 185 l 84 264 q 107 292 148 315 q 188 338 236 338 l 236 338 q 282 338 314 318 q 346 298 363 261 q 380 223 380 170 l 380 170 q 380 110 361 70 q 341 29 306 9 q 270 -12 219 -12 l 219 -12 q 171 -12 130 13 q 88 38 63 94 q 37 149 37 242 l 37 242 q 37 352 75 425 q 113 498 178 535 q 243 571 325 571 z m 709 571 l 709 571 q 748 571 785 561 q 822 551 856 529 l 856 529 l 876 515 q 947 471 989 397 q 1031 323 1031 220 l 1031 220 q 1031 144 1009 92 q 987 40 945 14 q 902 -12 840 -12 l 840 -12 q 779 -12 737 16 q 695 43 674 95 q 652 147 652 220 l 652 220 q 652 286 671 340 q 689 394 725 437 q 760 480 809 511 l 809 511 l 834 527 q 865 548 905 560 q 944 571 994 571 l 994 571 q 1067 571 1119 548 q 1170 525 1202 484 q 1234 443 1249 392 q 1264 340 1264 284 l 1264 284 q 1264 216 1248 163 q 1232 109 1203 68 q 1174 26 1137 -10 l 1137 -10 l 1058 53 q 1082 80 1103 112 q 1123 144 1136 186 q 1148 227 1148 279 l 1148 279 q 1148 340 1130 386 q 1111 431 1075 458 q 1038 485 985 485 l 985 485 q 960 485 941 482 q 921 478 904 471 l 904 471 l 890 465 q 849 445 822 408 q 794 370 780 322 q 766 274 766 221 l 766 221 q 766 163 776 132 q 786 100 804 88 q 821 76 841 76 l 841 76 q 862 76 879 88 q 896 100 906 131 q 916 162 916 218 l 916 218 q 916 275 902 324 q 888 372 862 408 q 836 444 800 464 l 800 464 l 783 471 q 773 476 763 479 q 753 482 741 484 q 728 485 709 485 l 709 485 q 673 485 650 475 q 626 464 611 451 l 611 451 q 585 426 575 389 q 565 351 565 286 l 565 286 l 565 26 l 460 26 l 460 269 l 493 465 q 515 495 545 520 q 574 544 614 558 q 654 571 709 571 z"},"ട":{"ha":495,"x_min":13,"x_max":475,"o":"m 250 571 l 250 571 q 316 571 371 558 q 426 544 475 521 l 475 521 l 425 439 q 384 460 345 470 q 305 480 254 480 l 254 480 q 212 480 187 469 q 162 458 151 440 q 140 422 140 403 l 140 403 q 140 384 145 372 q 149 360 159 351 l 159 351 q 173 338 196 334 q 218 329 249 329 l 249 329 l 264 329 q 323 329 364 315 q 405 301 431 272 l 431 272 q 449 252 459 226 q 468 199 468 165 l 468 165 q 468 113 443 73 q 417 33 367 11 q 316 -12 239 -12 l 239 -12 q 176 -12 119 2 q 61 15 13 40 l 13 40 l 63 122 q 89 109 116 100 q 142 90 172 85 q 201 79 236 79 l 236 79 q 279 79 305 91 q 331 102 343 121 q 354 139 354 161 l 354 161 q 354 179 348 195 q 342 210 328 219 l 328 219 q 315 229 299 234 q 282 238 247 238 l 247 238 l 239 238 q 180 238 134 252 q 88 265 63 293 l 63 293 q 45 312 36 339 q 26 365 26 399 l 26 399 q 26 448 52 487 q 77 526 127 549 q 177 571 250 571 z"},"ഠ":{"ha":586,"x_min":35,"x_max":551,"o":"m 293 571 l 293 571 q 374 571 432 537 q 489 502 520 437 q 551 372 551 279 l 551 279 q 551 187 521 122 q 490 57 432 23 q 374 -12 292 -12 l 292 -12 q 206 -12 149 26 q 92 63 64 130 q 35 196 35 281 l 35 281 q 35 372 66 437 q 97 502 155 537 q 213 571 293 571 z m 293 78 l 293 78 q 339 78 371 103 q 402 128 418 173 q 434 218 434 280 l 434 280 q 434 343 418 388 q 402 432 371 457 q 340 481 294 481 l 294 481 q 227 481 190 430 q 152 379 152 280 l 152 280 q 152 183 189 131 q 225 78 293 78 z"},"ഡ":{"ha":1077,"x_min":36,"x_max":1041,"o":"m 530 -12 l 530 -12 q 483 -12 449 2 q 415 16 390 42 l 390 42 q 373 61 362 85 q 350 108 344 142 q 338 175 338 221 l 338 221 l 338 318 q 338 375 334 404 q 330 432 319 450 l 319 450 q 309 466 294 474 q 278 481 253 481 l 253 481 q 224 481 201 461 q 178 441 165 401 q 151 360 151 298 l 151 298 q 151 246 162 202 q 172 158 192 121 q 211 83 237 49 l 237 49 l 151 -13 q 117 27 91 74 q 65 120 51 177 q 36 233 36 303 l 36 303 q 36 386 63 446 q 89 506 139 539 q 189 571 259 571 l 259 571 q 307 571 343 557 q 379 543 402 518 l 402 518 q 423 496 433 470 q 443 443 448 411 q 452 378 452 339 l 452 339 l 452 228 q 452 179 456 153 q 460 127 472 108 l 472 108 q 482 94 498 86 q 514 78 536 78 l 536 78 q 555 78 571 86 q 587 93 596 105 l 596 105 q 610 123 616 151 q 621 178 621 227 l 621 227 l 621 559 l 734 559 l 734 237 q 734 179 739 150 q 744 120 759 102 l 759 102 q 771 90 787 84 q 802 78 816 78 l 816 78 q 848 78 873 100 q 897 121 911 163 q 925 204 925 262 l 925 262 q 925 311 915 355 q 905 398 886 436 q 866 474 839 507 l 839 507 l 926 569 q 961 530 987 484 q 1012 437 1027 381 q 1041 325 1041 255 l 1041 255 q 1041 178 1016 117 q 990 56 942 22 q 894 -12 826 -12 l 826 -12 q 775 -12 738 7 q 701 25 668 68 l 668 68 l 683 69 q 656 32 622 10 q 588 -12 530 -12 z"},"ഢ":{"ha":1185,"x_min":36,"x_max":1148,"o":"m 530 -12 l 530 -12 q 483 -12 449 2 q 415 16 390 42 l 390 42 q 373 61 362 85 q 350 109 344 143 q 338 176 338 222 l 338 222 l 338 318 q 338 375 334 404 q 330 432 319 450 l 319 450 q 309 466 294 474 q 278 481 253 481 l 253 481 q 224 481 201 461 q 178 441 165 401 q 151 361 151 299 l 151 299 q 151 247 162 203 q 172 159 191 122 q 210 84 237 49 l 237 49 l 151 -13 q 117 28 91 75 q 65 121 51 178 q 36 234 36 304 l 36 304 q 36 386 63 446 q 89 506 139 539 q 189 571 259 571 l 259 571 q 307 571 343 558 q 379 544 402 518 l 402 518 q 423 496 433 470 q 443 443 448 411 q 452 379 452 339 l 452 339 l 452 229 q 452 179 456 153 q 460 127 472 109 l 472 109 q 482 94 498 87 q 514 79 536 79 l 536 79 q 555 79 571 86 q 587 93 596 105 l 596 105 q 610 123 616 151 q 621 178 621 228 l 621 228 l 621 559 l 734 559 l 734 300 l 683 69 q 657 33 623 11 q 588 -12 530 -12 z m 966 571 l 966 571 q 1015 571 1056 547 q 1097 522 1123 467 q 1148 411 1148 317 l 1148 317 q 1148 208 1110 135 q 1072 61 1007 25 q 942 -12 860 -12 l 860 -12 q 789 -12 743 13 q 696 37 658 85 l 658 85 l 640 269 l 639 511 l 734 511 l 734 261 q 734 195 743 162 q 752 129 770 110 l 770 110 q 784 96 806 87 q 827 78 860 78 l 860 78 q 914 78 956 106 q 997 134 1021 187 q 1044 240 1044 315 l 1044 315 l 1044 331 q 1044 390 1035 423 q 1025 456 1008 470 q 991 484 969 484 l 969 484 q 952 484 940 475 q 928 465 922 446 q 915 427 915 396 l 915 396 q 915 350 930 328 q 945 306 977 306 l 977 306 q 1005 306 1031 323 q 1057 340 1084 374 l 1084 374 l 1101 295 q 1078 268 1038 245 q 997 221 949 221 l 949 221 q 904 221 872 241 q 839 261 822 299 q 805 337 805 389 l 805 389 q 805 449 825 490 q 844 530 880 551 q 915 571 966 571 z"},"ണ":{"ha":1198,"x_min":37,"x_max":1162,"o":"m 325 571 l 325 571 q 397 571 444 547 q 490 522 527 473 l 527 473 l 496 484 q 525 529 565 550 q 605 571 653 571 l 653 571 q 707 571 743 550 q 778 529 804 492 l 804 492 l 789 491 q 822 534 859 553 q 896 571 947 571 l 947 571 q 1015 571 1064 537 q 1112 503 1137 443 q 1162 383 1162 304 l 1162 304 q 1162 234 1147 178 q 1132 121 1107 75 q 1081 28 1048 -11 l 1048 -11 l 960 51 q 987 85 1007 123 q 1026 161 1037 204 q 1047 247 1047 297 l 1047 297 q 1047 357 1033 398 q 1019 438 994 460 q 969 481 937 481 l 937 481 q 923 481 908 475 q 892 469 880 456 l 880 456 q 865 439 860 410 q 855 380 855 322 l 855 322 l 855 0 l 741 0 l 741 329 q 741 382 737 409 q 732 436 718 454 l 718 454 q 708 467 693 474 q 677 481 653 481 l 653 481 q 631 481 616 474 q 601 466 589 453 l 589 453 q 574 433 569 406 q 564 379 564 324 l 564 324 l 564 0 l 451 0 l 451 299 q 451 365 442 398 q 433 430 415 449 l 415 449 q 401 464 380 473 q 359 481 325 481 l 325 481 q 271 481 230 454 q 189 426 165 373 q 141 320 141 244 l 141 244 l 141 229 q 141 170 151 137 q 161 103 178 89 q 194 75 215 75 l 215 75 q 233 75 245 85 q 257 94 264 113 q 270 132 270 163 l 270 163 q 270 210 255 232 q 240 253 208 253 l 208 253 q 179 253 153 236 q 127 219 101 185 l 101 185 l 84 264 q 107 292 148 315 q 188 338 236 338 l 236 338 q 282 338 314 318 q 346 298 363 261 q 380 223 380 170 l 380 170 q 380 110 361 70 q 341 29 306 9 q 270 -12 219 -12 l 219 -12 q 171 -12 130 13 q 88 38 63 94 q 37 149 37 242 l 37 242 q 37 352 75 425 q 113 498 178 535 q 243 571 325 571 z"},"ത":{"ha":915,"x_min":36,"x_max":880,"o":"m 456 -12 l 456 -12 q 396 -12 354 16 q 311 43 289 95 q 267 147 267 220 l 267 220 q 267 286 286 340 q 305 394 340 437 q 375 480 425 511 l 425 511 l 449 527 q 480 548 520 560 q 559 571 610 571 l 610 571 q 683 571 735 548 q 786 525 818 484 q 850 443 865 392 q 880 340 880 284 l 880 284 q 880 216 864 163 q 847 109 819 68 q 790 26 752 -10 l 752 -10 l 673 53 q 698 80 718 112 q 738 144 751 186 q 763 227 763 279 l 763 279 q 763 339 745 385 q 726 431 690 458 q 654 485 601 485 l 601 485 q 575 485 556 482 q 537 478 519 471 l 519 471 l 505 465 q 465 445 438 408 q 410 371 396 323 q 382 274 382 221 l 382 221 q 382 163 392 132 q 402 100 420 88 q 437 76 457 76 l 457 76 q 477 76 495 88 q 512 100 522 131 q 532 162 532 218 l 532 218 q 532 275 518 324 q 504 372 478 408 q 452 444 417 464 l 417 464 l 398 472 q 383 479 366 482 q 348 485 330 485 l 330 485 q 271 485 231 459 q 191 433 172 388 q 152 343 152 284 l 152 284 q 152 233 163 192 q 174 151 194 118 q 214 84 242 53 l 242 53 l 162 -10 q 126 24 98 66 q 69 108 53 163 q 36 218 36 288 l 36 288 q 36 342 51 393 q 66 443 99 484 q 132 524 186 548 q 240 571 318 571 l 318 571 q 364 571 402 561 q 439 550 472 529 l 472 529 l 491 515 q 563 471 605 397 q 646 323 646 220 l 646 220 q 646 144 624 92 q 602 40 560 14 q 517 -12 456 -12 z"},"ഥ":{"ha":802,"x_min":59,"x_max":748,"o":"m 59 559 l 172 559 l 172 88 l 349 88 l 349 0 l 59 0 l 59 559 z m 524 571 l 524 571 q 580 571 620 557 q 659 542 685 516 l 685 516 q 722 482 735 433 q 748 384 748 309 l 748 309 l 748 0 l 299 0 l 299 304 q 299 357 305 396 q 311 435 324 464 q 337 492 361 515 l 361 515 q 387 541 427 556 q 467 571 524 571 z m 524 482 l 524 482 q 496 482 477 474 q 457 465 445 451 l 445 451 q 428 431 420 399 q 412 366 412 303 l 412 303 l 412 88 l 635 88 l 635 297 q 635 364 627 398 q 619 431 603 451 l 603 451 q 590 465 570 474 q 550 482 524 482 z"},"ദ":{"ha":577,"x_min":43,"x_max":544,"o":"m 343 571 l 343 571 q 406 571 449 551 q 492 530 515 494 q 537 458 537 413 l 537 413 q 537 365 516 332 q 495 299 444 276 l 444 276 l 444 282 q 491 267 518 231 q 544 194 544 143 l 544 143 q 544 71 501 30 q 457 -12 372 -12 l 372 -12 q 342 -12 316 -8 q 290 -5 270 0 l 270 0 l 287 85 q 304 82 320 80 q 336 77 351 77 l 351 77 q 394 77 412 95 q 430 113 430 149 l 430 149 q 430 167 424 183 q 418 199 405 210 l 405 210 q 393 222 373 228 q 353 234 315 234 l 315 234 l 290 234 l 290 322 l 313 322 q 347 322 368 328 q 388 334 401 347 l 401 347 q 411 356 417 371 q 422 385 422 404 l 422 404 q 422 442 401 462 q 379 482 338 482 l 338 482 q 280 482 240 450 q 199 418 178 360 q 157 302 157 224 l 157 224 q 157 170 164 117 q 170 63 181 18 l 181 18 l 72 -4 q 59 46 51 108 q 43 169 43 224 l 43 224 q 43 333 78 410 q 112 487 179 529 q 246 571 343 571 z"},"ധ":{"ha":804,"x_min":36,"x_max":768,"o":"m 546 -12 l 546 -12 q 509 -12 483 -2 q 456 8 436 26 q 415 44 395 67 l 395 67 l 409 67 q 378 25 341 7 q 304 -12 252 -12 l 252 -12 q 183 -12 135 22 q 87 56 62 117 q 36 178 36 255 l 36 255 q 36 324 50 381 q 64 437 90 484 q 116 530 150 570 l 150 570 l 237 508 q 211 475 192 438 q 172 400 162 357 q 151 313 151 262 l 151 262 q 151 203 166 162 q 180 120 206 99 q 231 78 262 78 l 262 78 q 283 78 297 85 q 310 91 319 101 l 319 101 q 334 118 340 147 q 345 175 345 225 l 345 225 l 345 559 l 459 559 l 459 225 q 459 170 465 144 q 470 118 484 101 l 484 101 q 493 90 507 84 q 520 78 540 78 l 540 78 q 569 78 595 98 q 621 118 637 159 q 653 200 653 262 l 653 262 q 653 312 643 356 q 632 400 613 438 q 594 476 567 508 l 567 508 l 654 570 q 688 529 714 483 q 739 437 754 382 q 768 326 768 259 l 768 259 q 768 179 743 118 q 717 57 667 23 q 617 -12 546 -12 z"},"ന":{"ha":804,"x_min":36,"x_max":768,"o":"m 258 571 l 258 571 q 296 571 322 561 q 348 551 369 534 q 389 517 408 492 l 408 492 l 395 492 q 426 534 463 553 q 500 571 552 571 l 552 571 q 621 571 669 537 q 717 503 743 443 q 768 383 768 304 l 768 304 q 768 235 754 179 q 740 122 714 76 q 688 30 653 -11 l 653 -11 l 566 51 q 593 85 613 123 q 632 160 643 203 q 653 246 653 297 l 653 297 q 653 357 639 398 q 624 439 599 460 q 573 481 542 481 l 542 481 q 522 481 509 475 q 495 468 485 458 l 485 458 q 471 442 465 413 q 459 384 459 334 l 459 334 l 459 0 l 345 0 l 345 334 q 345 389 340 415 q 334 441 320 458 l 320 458 q 312 469 298 475 q 284 481 264 481 l 264 481 q 235 481 209 461 q 183 441 167 401 q 151 360 151 297 l 151 297 q 151 247 162 204 q 172 160 191 122 q 210 84 237 51 l 237 51 l 150 -11 q 117 30 91 76 q 65 122 51 178 q 36 233 36 300 l 36 300 q 36 380 62 441 q 87 502 137 537 q 187 571 258 571 z"},"ഩ":{"ha":910,"x_min":37,"x_max":874,"o":"m 325 571 l 325 571 q 397 571 444 547 q 490 522 527 473 l 527 473 l 497 487 q 526 532 566 552 q 606 571 657 571 l 657 571 q 726 571 775 537 q 823 503 849 443 q 874 383 874 304 l 874 304 q 874 234 860 178 q 845 121 819 75 q 793 29 759 -11 l 759 -11 l 672 51 q 699 85 719 123 q 738 160 749 203 q 759 246 759 297 l 759 297 q 759 357 745 398 q 730 439 705 460 q 679 481 647 481 l 647 481 q 628 481 614 475 q 600 468 591 458 l 591 458 q 576 442 571 413 q 565 384 565 334 l 565 334 l 565 0 l 451 0 l 451 298 q 451 365 442 398 q 433 430 415 449 l 415 449 q 401 464 380 473 q 359 481 325 481 l 325 481 q 271 481 230 454 q 189 426 165 373 q 141 320 141 244 l 141 244 l 141 229 q 141 170 151 137 q 161 103 178 89 q 194 75 215 75 l 215 75 q 233 75 245 85 q 257 94 264 113 q 270 132 270 163 l 270 163 q 270 210 255 232 q 240 253 208 253 l 208 253 q 179 253 153 236 q 127 219 101 185 l 101 185 l 84 264 q 107 292 148 315 q 188 338 236 338 l 236 338 q 282 338 314 318 q 346 298 363 261 q 380 223 380 170 l 380 170 q 380 110 361 70 q 341 29 306 9 q 270 -12 219 -12 l 219 -12 q 171 -12 130 13 q 88 38 63 94 q 37 149 37 242 l 37 242 q 37 352 75 425 q 113 498 178 535 q 243 571 325 571 z"},"പ":{"ha":791,"x_min":29,"x_max":732,"o":"m 216 356 l 216 356 q 281 356 322 330 q 362 304 382 264 q 401 223 401 178 l 401 178 q 401 140 389 111 q 377 82 367 65 l 367 65 l 354 88 l 618 88 l 618 559 l 732 559 l 732 0 l 298 0 l 258 57 q 269 76 280 103 q 290 130 290 168 l 290 168 q 290 212 272 240 q 254 268 217 268 l 217 268 q 192 268 176 256 q 159 243 151 221 q 142 199 142 172 l 142 172 q 142 126 156 97 q 170 67 187 40 l 187 40 l 99 -10 q 68 30 49 74 q 29 118 29 174 l 29 174 q 29 230 53 270 q 76 310 118 333 q 160 356 216 356 z"},"ഫ":{"ha":1009,"x_min":29,"x_max":955,"o":"m 216 356 l 216 356 q 281 356 322 330 q 362 304 382 264 q 401 223 401 178 l 401 178 q 401 140 389 111 q 377 82 367 65 l 367 65 l 351 88 l 572 88 l 572 0 l 298 0 l 258 57 q 269 76 280 103 q 290 130 290 168 l 290 168 q 290 212 272 240 q 254 268 217 268 l 217 268 q 192 268 176 256 q 159 243 151 221 q 142 199 142 172 l 142 172 q 142 126 156 97 q 170 68 187 40 l 187 40 l 99 -10 q 68 30 49 74 q 29 118 29 174 l 29 174 q 29 230 53 270 q 76 310 118 333 q 160 356 216 356 z m 731 571 l 731 571 q 787 571 826 557 q 865 542 892 516 l 892 516 q 928 482 942 433 q 955 384 955 309 l 955 309 l 955 0 l 505 0 l 505 304 q 505 357 511 396 q 517 435 531 464 q 544 492 567 515 l 567 515 q 593 541 634 556 q 674 571 731 571 z m 730 482 l 730 482 q 702 482 683 474 q 664 465 651 451 l 651 451 q 635 431 627 399 q 619 366 619 303 l 619 303 l 619 88 l 841 88 l 841 297 q 841 364 834 398 q 826 431 809 451 l 809 451 q 797 465 777 474 q 756 482 730 482 z"},"ബ":{"ha":1160,"x_min":37,"x_max":1101,"o":"m 325 571 l 325 571 q 397 571 444 547 q 490 522 527 473 l 527 473 l 546 406 l 565 254 l 565 0 l 451 0 l 451 299 q 451 365 442 398 q 433 430 415 449 l 415 449 q 401 464 380 473 q 359 481 325 481 l 325 481 q 271 481 230 454 q 189 426 165 373 q 141 320 141 244 l 141 244 l 141 229 q 141 170 151 137 q 161 103 178 89 q 194 75 215 75 l 215 75 q 233 75 245 85 q 257 94 264 113 q 270 132 270 163 l 270 163 q 270 210 255 232 q 240 253 208 253 l 208 253 q 179 253 153 236 q 127 219 101 185 l 101 185 l 84 264 q 107 292 148 315 q 188 338 236 338 l 236 338 q 282 338 314 318 q 346 298 363 261 q 380 223 380 170 l 380 170 q 380 110 361 70 q 341 29 306 9 q 270 -12 219 -12 l 219 -12 q 171 -12 130 13 q 88 38 63 94 q 37 149 37 242 l 37 242 q 37 352 75 425 q 113 498 178 535 q 243 571 325 571 z m 988 559 l 1101 559 l 1101 0 l 726 0 l 678 56 q 705 96 723 132 q 740 168 749 208 q 758 248 758 297 l 758 297 q 758 357 744 398 q 729 439 704 460 q 679 481 647 481 l 647 481 q 628 481 614 475 q 600 468 591 458 l 591 458 q 576 442 571 413 q 565 384 565 334 l 565 334 l 565 4 l 455 4 l 455 245 l 495 423 l 497 487 q 526 532 566 552 q 605 571 657 571 l 657 571 q 726 571 774 537 q 822 503 848 443 q 873 383 873 304 l 873 304 q 873 254 865 213 q 857 171 843 137 q 828 102 808 72 l 808 72 l 790 88 l 988 88 l 988 559 z"},"ഭ":{"ha":601,"x_min":43,"x_max":573,"o":"m 369 571 l 369 571 q 430 571 476 554 q 522 537 548 505 q 573 472 573 425 l 573 425 q 573 398 565 377 q 557 355 541 340 l 541 340 q 525 324 498 316 q 471 308 426 308 l 426 308 l 417 308 q 397 308 385 306 q 373 303 365 299 l 365 299 q 358 294 355 288 q 351 281 351 273 l 351 273 q 351 253 370 246 q 388 239 420 239 l 420 239 l 423 239 q 468 239 496 230 q 523 221 539 205 l 539 205 q 556 189 565 169 q 573 148 573 120 l 573 120 q 573 83 555 53 q 537 22 499 5 q 460 -12 395 -12 l 395 -12 q 367 -12 340 -9 q 312 -6 286 0 q 260 6 236 15 l 236 15 l 272 97 q 303 88 332 83 q 361 77 389 77 l 389 77 q 433 77 450 88 q 466 99 466 118 l 466 118 q 466 135 453 144 q 439 153 410 153 l 410 153 l 407 153 q 355 153 323 163 q 291 173 275 193 l 275 193 q 262 207 254 228 q 245 248 245 271 l 245 271 q 245 299 255 322 q 264 344 284 360 l 284 360 q 302 374 328 383 q 354 392 402 392 l 402 392 l 414 392 q 439 392 452 400 q 465 407 465 427 l 465 427 q 465 455 438 468 q 411 481 366 481 l 366 481 q 292 481 246 450 q 200 418 179 360 q 157 302 157 224 l 157 224 q 157 170 164 117 q 170 63 181 18 l 181 18 l 72 -4 q 59 46 51 108 q 43 169 43 224 l 43 224 q 43 332 79 409 q 114 486 187 529 q 259 571 369 571 z"},"മ":{"ha":663,"x_min":51,"x_max":612,"o":"m 325 571 l 325 571 q 402 571 455 552 q 507 533 541 499 l 541 499 q 566 474 582 442 q 598 410 605 367 q 612 324 612 267 l 612 267 l 612 0 l 51 0 l 51 269 q 51 326 59 369 q 66 411 82 443 q 97 475 121 499 l 121 499 q 156 533 204 552 q 251 571 325 571 z m 263 480 l 263 480 q 239 480 219 464 q 199 448 186 419 l 186 419 q 175 396 170 363 q 164 330 164 279 l 164 279 l 164 65 l 148 67 q 197 117 235 173 q 272 228 294 286 q 315 344 315 399 l 315 399 q 315 424 311 442 q 306 460 295 470 q 283 480 263 480 z m 428 377 l 428 377 q 428 324 411 274 q 394 224 363 175 q 331 125 289 73 l 289 73 l 270 84 q 291 86 318 87 q 345 88 357 88 l 357 88 l 499 88 l 499 276 q 499 339 488 380 q 476 421 452 447 q 428 473 388 487 l 388 487 l 390 490 q 405 472 417 444 q 428 415 428 377 z"},"യ":{"ha":932,"x_min":37,"x_max":894,"o":"m 600 -12 l 600 -12 q 550 -12 512 -2 q 474 8 435 32 l 435 32 q 429 36 423 42 q 416 48 411 52 l 411 52 q 362 89 333 137 q 304 185 292 238 q 279 291 279 343 l 279 343 q 279 379 286 410 q 292 441 303 467 l 303 467 l 318 485 q 335 516 360 536 q 385 555 415 563 q 445 571 476 571 l 476 571 q 568 571 619 513 q 669 455 669 343 l 669 343 q 669 247 632 173 q 595 98 531 50 l 531 50 q 524 44 517 39 q 510 34 502 29 l 502 29 q 467 9 427 -1 q 386 -12 335 -12 l 335 -12 q 261 -12 205 14 q 149 39 112 85 q 74 130 56 192 q 37 254 37 328 l 37 328 q 37 403 60 458 q 83 512 130 542 q 176 571 243 571 l 243 571 q 294 571 334 551 q 374 530 407 488 l 407 488 l 322 433 q 306 459 287 471 q 268 483 246 483 l 246 483 q 216 483 195 466 q 174 448 163 414 q 152 379 152 329 l 152 329 q 152 249 176 192 q 199 135 242 105 q 284 74 341 74 l 341 74 q 366 74 386 78 q 405 81 421 88 l 421 88 q 430 91 437 93 q 443 95 450 99 l 450 99 q 482 121 506 159 q 529 196 542 244 q 554 291 554 342 l 554 342 q 554 396 542 427 q 530 457 513 470 q 495 483 475 483 l 475 483 q 451 483 432 469 q 413 454 404 423 q 394 391 394 342 l 394 342 q 394 297 405 251 q 415 204 436 165 q 457 126 489 102 l 489 102 q 496 98 502 97 q 507 95 514 91 l 514 91 q 529 84 551 80 q 572 75 597 75 l 597 75 q 657 75 698 102 q 738 128 758 180 q 778 232 778 304 l 778 304 q 778 360 763 416 q 748 472 717 523 l 717 523 l 813 571 q 853 513 874 446 q 894 378 894 311 l 894 311 q 894 244 879 186 q 864 127 830 83 q 795 38 739 13 q 682 -12 600 -12 z"},"ര":{"ha":666,"x_min":36,"x_max":630,"o":"m 325 571 l 325 571 q 402 571 459 547 q 516 522 554 477 q 592 432 611 371 q 630 310 630 238 l 630 238 q 630 148 607 93 q 583 37 540 13 q 497 -12 438 -12 l 438 -12 q 376 -12 337 17 q 298 45 280 94 q 262 143 262 203 l 262 203 q 262 299 304 353 q 345 406 423 406 l 423 406 q 468 406 501 384 q 533 361 555 322 q 577 283 588 235 l 588 235 l 547 229 q 541 250 529 271 q 516 292 496 307 q 476 321 450 321 l 450 321 q 409 321 391 290 q 373 258 373 199 l 373 199 q 373 161 381 133 q 388 105 404 91 q 419 76 443 76 l 443 76 q 467 76 484 92 q 501 108 510 144 q 519 180 519 239 l 519 239 q 519 251 518 271 q 517 290 514 308 l 514 308 q 513 313 513 321 q 513 328 511 332 l 511 332 q 505 371 483 405 q 460 439 423 460 q 385 481 333 481 l 333 481 q 273 481 233 457 q 192 432 172 388 q 152 344 152 284 l 152 284 q 152 232 163 191 q 173 150 194 117 q 214 83 242 52 l 242 52 l 162 -11 q 127 23 98 67 q 69 110 53 165 q 36 219 36 288 l 36 288 q 36 346 53 397 q 70 448 105 487 q 140 526 195 549 q 250 571 325 571 z"},"റ":{"ha":603,"x_min":35,"x_max":568,"o":"m 304 571 l 304 571 q 375 571 425 549 q 475 526 507 486 q 538 446 553 395 q 568 344 568 287 l 568 287 q 568 219 552 165 q 535 111 506 68 q 477 25 440 -11 l 440 -11 l 359 52 q 385 80 406 113 q 426 145 438 187 q 450 229 450 284 l 450 284 q 450 345 432 389 q 414 433 382 457 q 349 481 305 481 l 305 481 q 258 481 224 457 q 190 433 172 389 q 153 345 153 286 l 153 286 q 153 234 164 193 q 174 152 195 118 q 215 83 243 52 l 243 52 l 162 -11 q 127 23 98 66 q 69 109 52 164 q 35 219 35 288 l 35 288 q 35 343 51 394 q 66 445 99 485 q 132 525 183 548 q 233 571 304 571 z"},"ല":{"ha":763,"x_min":55,"x_max":704,"o":"m 591 559 l 704 559 l 704 0 l 55 0 l 55 317 q 55 393 69 436 q 83 478 108 507 l 108 507 q 133 538 174 555 q 215 571 271 571 l 271 571 q 325 571 366 555 q 407 539 432 508 l 432 508 q 462 474 474 430 q 486 386 486 320 l 486 320 l 486 218 l 168 218 l 168 88 l 591 88 l 591 559 z m 270 483 l 270 483 q 215 483 192 443 q 168 403 168 329 l 168 329 l 168 306 l 372 306 l 372 329 q 372 405 348 444 q 324 483 270 483 z"},"ള":{"ha":648,"x_min":35,"x_max":615,"o":"m 346 482 l 346 482 q 306 482 271 475 q 235 467 207 452 q 178 437 159 416 q 140 395 133 367 l 133 367 q 132 363 134 360 q 135 356 135 351 l 135 351 q 133 344 131 332 q 129 320 129 304 l 129 304 q 129 254 145 228 q 160 202 190 202 l 190 202 q 216 202 228 223 q 239 244 239 275 l 239 275 q 239 296 234 312 q 228 328 217 337 q 205 345 187 345 l 187 345 q 161 345 143 335 q 124 324 105 308 l 105 308 l 49 331 q 68 354 94 375 q 119 396 150 410 q 180 423 211 423 l 211 423 q 259 423 289 403 q 318 383 332 350 q 345 317 345 275 l 345 275 q 345 233 330 198 q 314 163 280 142 q 246 120 193 120 l 193 120 q 146 120 111 143 q 75 165 55 208 q 35 250 35 312 l 35 312 q 35 365 54 412 q 72 459 112 495 q 151 531 212 551 q 273 571 357 571 l 357 571 q 438 571 494 552 q 550 532 580 495 q 609 457 609 404 l 609 404 q 609 363 590 335 q 571 306 535 289 q 499 271 447 263 l 447 263 l 397 302 l 397 324 l 402 324 q 424 324 442 328 q 459 332 473 343 l 473 343 q 483 352 489 365 q 494 378 494 395 l 494 395 q 494 423 479 442 q 464 461 431 472 q 398 482 346 482 z m 615 153 l 615 153 q 615 115 601 86 q 587 56 563 37 l 563 37 q 546 24 526 16 q 505 8 475 4 q 444 0 397 0 l 397 0 l 271 0 q 230 0 212 -2 q 193 -5 181 -11 l 181 -11 q 167 -18 161 -28 q 155 -39 155 -53 l 155 -53 q 155 -67 160 -77 q 165 -88 176 -96 l 176 -96 q 188 -103 209 -107 q 229 -111 269 -111 l 269 -111 l 593 -111 l 593 -201 l 262 -201 q 205 -201 165 -192 q 125 -184 100 -168 l 100 -168 q 71 -150 56 -122 q 40 -95 40 -59 l 40 -59 q 40 -22 55 8 q 70 38 101 57 l 101 57 q 117 68 137 75 q 157 81 187 85 q 216 89 259 89 l 259 89 l 384 89 q 422 89 444 93 q 465 96 478 107 l 478 107 q 489 116 495 130 q 501 143 501 161 l 501 161 q 501 180 495 195 q 488 210 474 219 l 474 219 q 463 227 446 231 q 429 235 400 235 l 400 235 l 397 235 l 397 311 l 495 294 q 551 276 583 241 q 615 206 615 153 z"},"ഴ":{"ha":603,"x_min":33,"x_max":571,"o":"m 232 416 l 232 416 q 232 486 276 529 q 320 571 400 571 l 400 571 q 461 571 499 546 q 536 520 554 481 q 571 441 571 398 l 571 398 q 571 327 542 273 q 513 218 458 186 q 402 154 325 154 l 325 154 l 302 154 q 214 154 154 185 q 94 216 64 271 q 33 326 33 399 l 33 399 q 33 442 46 485 q 58 528 84 571 l 84 571 l 178 528 q 163 495 155 465 q 147 435 147 400 l 147 400 q 147 345 167 309 q 186 272 222 255 q 257 237 301 237 l 301 237 l 326 237 q 369 237 399 258 q 428 278 443 315 q 458 351 458 399 l 458 399 q 458 435 445 461 q 431 487 399 487 l 399 487 q 381 487 368 477 q 355 467 348 450 q 341 432 341 409 l 341 409 q 341 373 353 339 q 364 305 379 272 q 394 239 406 204 q 417 169 417 129 l 417 129 q 417 96 404 63 q 390 30 356 9 q 322 -12 261 -12 l 261 -12 q 225 -12 187 -5 q 149 1 113 17 l 113 17 l 149 99 q 175 88 198 83 q 220 77 244 77 l 244 77 q 283 77 296 98 q 309 119 309 140 l 309 140 q 309 172 298 204 q 286 236 271 270 q 255 303 244 340 q 232 376 232 416 z"},"വ":{"ha":858,"x_min":35,"x_max":799,"o":"m 304 571 l 304 571 q 374 571 424 549 q 473 526 505 488 q 537 449 552 400 q 566 350 566 295 l 566 295 q 566 237 554 191 q 541 145 520 107 q 498 69 470 33 l 470 33 l 487 88 l 686 88 l 686 559 l 799 559 l 799 0 l 416 0 l 367 61 q 389 86 408 118 q 427 149 439 190 q 450 231 450 284 l 450 284 q 450 345 432 389 q 414 433 382 457 q 349 480 305 480 l 305 480 q 258 480 224 457 q 190 433 172 389 q 153 345 153 286 l 153 286 q 153 234 164 193 q 174 152 195 118 q 215 83 243 52 l 243 52 l 162 -11 q 127 23 98 66 q 69 109 52 164 q 35 219 35 288 l 35 288 q 35 343 51 394 q 66 445 99 485 q 132 525 183 548 q 233 571 304 571 z"},"ശ":{"ha":927,"x_min":36,"x_max":891,"o":"m 595 571 l 595 571 q 664 571 719 548 q 774 525 813 481 q 851 437 871 376 q 891 315 891 238 l 891 238 q 891 148 868 93 q 844 37 801 13 q 758 -12 699 -12 l 699 -12 q 637 -12 598 17 q 559 45 541 94 q 523 143 523 203 l 523 203 q 523 299 565 353 q 607 406 684 406 l 684 406 q 729 406 762 384 q 794 361 816 322 q 838 283 849 235 l 849 235 l 807 229 q 802 250 789 271 q 776 292 757 307 q 737 321 711 321 l 711 321 q 671 321 653 290 q 634 258 634 199 l 634 199 q 634 161 641 133 q 648 105 664 91 q 680 76 704 76 l 704 76 q 728 76 745 92 q 762 108 772 144 q 781 180 781 239 l 781 239 q 781 251 780 271 q 779 290 776 308 l 776 308 q 775 313 776 321 q 777 328 774 331 l 774 331 q 769 371 747 405 q 724 439 687 460 q 650 481 597 481 l 597 481 q 563 481 540 474 q 517 467 499 451 l 499 451 q 469 425 460 380 q 451 335 451 261 l 451 261 l 451 221 q 451 164 441 120 q 430 75 402 43 l 402 43 q 377 17 342 3 q 306 -12 255 -12 l 255 -12 q 186 -12 137 21 q 88 53 62 113 q 36 172 36 256 l 36 256 q 36 326 51 383 q 65 440 91 486 q 117 532 151 572 l 151 572 l 237 510 q 211 477 192 439 q 172 401 162 357 q 151 313 151 261 l 151 261 q 151 199 164 159 q 177 118 201 98 q 224 78 252 78 l 252 78 q 274 78 291 87 q 307 95 315 110 l 315 110 q 327 129 331 158 q 335 186 335 231 l 335 231 l 335 290 q 335 372 354 426 q 372 479 411 514 l 411 514 q 443 542 487 557 q 530 571 595 571 z"},"ഷ":{"ha":1038,"x_min":29,"x_max":979,"o":"m 216 356 l 216 356 q 281 356 322 330 q 362 304 382 264 q 401 223 401 178 l 401 178 q 401 140 389 111 q 377 82 367 65 l 367 65 l 353 88 l 600 88 l 641 0 l 298 0 l 258 57 q 270 76 280 103 q 290 130 290 167 l 290 167 q 290 212 272 240 q 254 268 217 268 l 217 268 q 192 268 176 256 q 159 243 151 221 q 142 199 142 172 l 142 172 q 142 126 156 97 q 170 67 187 40 l 187 40 l 99 -10 q 68 30 49 74 q 29 118 29 175 l 29 175 q 29 230 53 270 q 76 310 118 333 q 160 356 216 356 z m 979 0 l 584 0 l 584 401 q 584 427 581 444 q 578 460 572 470 l 572 470 q 568 476 561 480 q 554 484 544 484 l 544 484 q 522 484 509 465 q 495 446 495 411 l 495 411 q 495 385 502 364 q 509 342 531 330 q 552 318 593 318 l 593 318 l 629 318 q 675 318 711 338 q 746 357 775 391 q 803 425 826 469 q 849 512 869 559 l 869 559 l 979 559 l 979 0 z m 546 571 l 546 571 q 581 571 607 562 q 633 553 651 535 l 651 535 q 673 514 684 482 q 695 449 695 393 l 695 393 l 695 88 l 867 88 l 867 306 q 867 328 868 348 q 869 367 871 384 q 872 401 873 414 l 873 414 l 875 405 q 849 346 811 308 q 773 269 729 251 q 684 233 638 233 l 638 233 l 592 233 q 520 233 475 257 q 430 281 409 322 q 388 362 388 412 l 388 412 q 388 453 406 490 q 423 526 459 549 q 494 571 546 571 z"},"സ":{"ha":1077,"x_min":36,"x_max":1041,"o":"m 548 571 l 548 571 q 594 571 628 557 q 662 543 686 518 l 686 518 q 705 499 716 475 q 727 451 733 418 q 738 385 738 338 l 738 338 l 738 241 q 738 184 743 156 q 747 127 758 109 l 758 109 q 767 94 783 86 q 799 78 823 78 l 823 78 q 853 78 876 98 q 899 118 912 159 q 925 199 925 261 l 925 261 q 925 313 915 357 q 905 401 886 439 q 866 477 840 510 l 840 510 l 925 572 q 960 532 986 486 q 1012 440 1027 383 q 1041 326 1041 256 l 1041 256 q 1041 172 1014 113 q 987 53 938 21 q 888 -12 820 -12 l 820 -12 q 770 -12 734 2 q 698 16 673 43 l 673 43 q 655 64 644 90 q 633 116 629 149 q 624 182 624 220 l 624 220 l 624 331 q 624 380 620 407 q 616 433 604 450 l 604 450 q 595 466 579 474 q 563 481 540 481 l 540 481 q 521 481 505 474 q 489 466 480 454 l 480 454 q 467 436 462 409 q 456 381 456 332 l 456 332 l 456 0 l 343 0 l 343 322 q 343 381 338 411 q 333 440 317 457 l 317 457 q 307 469 291 475 q 275 481 260 481 l 260 481 q 229 481 204 460 q 179 438 165 397 q 151 356 151 297 l 151 297 q 151 247 162 205 q 172 162 191 124 q 210 86 237 52 l 237 52 l 150 -10 q 116 30 90 77 q 64 123 50 179 q 36 235 36 304 l 36 304 q 36 383 61 443 q 86 503 134 537 q 182 571 251 571 l 251 571 q 302 571 339 553 q 376 534 408 491 l 408 491 l 394 490 q 420 527 455 549 q 489 571 548 571 z"},"ഹ":{"ha":1059,"x_min":29,"x_max":1023,"o":"m 216 356 l 216 356 q 281 356 322 330 q 362 304 382 264 q 401 223 401 178 l 401 178 q 401 140 389 111 q 377 82 367 65 l 367 65 l 353 88 l 590 88 l 642 0 l 298 0 l 258 57 q 270 76 280 103 q 290 130 290 167 l 290 167 q 290 212 272 240 q 254 268 217 268 l 217 268 q 192 268 176 256 q 159 243 151 221 q 142 199 142 172 l 142 172 q 142 126 156 97 q 170 67 187 40 l 187 40 l 99 -10 q 68 30 49 74 q 29 118 29 175 l 29 175 q 29 230 53 270 q 76 310 118 333 q 160 356 216 356 z m 759 571 l 759 571 q 830 571 880 549 q 930 526 962 486 q 994 446 1009 395 q 1023 344 1023 287 l 1023 287 q 1023 218 1007 164 q 990 110 961 67 q 932 24 895 -11 l 895 -11 l 815 52 q 840 80 861 113 q 881 145 894 187 q 906 229 906 284 l 906 284 q 906 345 888 389 q 870 433 838 457 q 805 481 760 481 l 760 481 q 714 481 680 457 q 646 433 627 389 q 608 345 608 286 l 608 286 q 608 237 618 197 q 628 157 647 124 q 666 91 692 61 l 692 61 l 642 0 l 621 0 l 590 33 q 564 67 542 105 q 520 143 506 189 q 492 235 492 292 l 492 292 q 492 346 508 397 q 523 447 556 486 q 588 525 639 548 q 689 571 759 571 z"},"ഺ":{"ha":643,"x_min":19,"x_max":625,"o":"m 143 88 l 625 88 l 625 0 l 408 0 l 408 -202 l 295 -202 l 295 0 l 76 0 l 19 71 l 205 564 l 311 529 l 143 88 z"},"഻":{"ha":0,"x_min":-321,"x_max":-237,"o":"m -321 592 l -321 864 l -237 864 l -237 592 l -321 592 z"},"഼":{"ha":0,"x_min":-239,"x_max":16,"o":"m -239 726 l -239 726 q -239 785 -204 822 q -170 859 -113 859 l -113 859 q -54 859 -19 823 q 16 786 16 726 l 16 726 q 16 665 -19 629 q -54 592 -112 592 l -112 592 q -171 592 -205 629 q -239 665 -239 726 z m -157 727 l -157 727 q -157 699 -146 683 q -135 666 -112 666 l -112 666 q -89 666 -78 683 q -67 699 -67 726 l -67 726 q -67 753 -78 769 q -90 785 -113 785 l -113 785 q -134 785 -145 769 q -157 753 -157 727 z"},"ഽ":{"ha":433,"x_min":-68,"x_max":501,"o":"m 335 797 l 335 797 q 383 797 416 777 q 449 757 470 723 q 491 689 501 648 l 501 648 l 390 625 q 385 651 378 670 q 371 688 360 699 q 349 709 332 709 l 332 709 q 318 709 308 703 q 297 697 290 686 l 290 686 q 282 672 278 648 q 274 624 274 580 l 274 580 l 274 -2 q 274 -81 263 -127 q 251 -173 218 -203 l 218 -203 q 198 -221 169 -232 q 139 -244 98 -244 l 98 -244 q 51 -244 18 -224 q -16 -204 -37 -170 q -58 -136 -68 -94 l -68 -94 l 43 -71 q 48 -97 56 -116 q 63 -136 74 -146 q 85 -156 101 -156 l 101 -156 q 117 -156 127 -149 q 137 -143 143 -132 l 143 -132 q 152 -116 156 -91 q 159 -66 159 -27 l 159 -27 l 159 554 q 159 632 171 679 q 182 726 215 755 l 215 755 q 236 775 265 786 q 294 797 335 797 z"},"ാ":{"ha":467,"x_min":17,"x_max":428,"o":"m 428 281 l 428 281 q 428 216 418 162 q 408 108 384 69 q 360 30 320 9 q 280 -12 220 -12 l 220 -12 q 168 -12 132 5 q 95 21 72 49 q 49 76 36 110 q 23 144 17 178 l 17 178 l 131 199 q 137 172 147 143 q 156 114 173 95 q 190 76 220 76 l 220 76 q 253 76 273 100 q 293 124 303 170 q 312 215 312 281 l 312 281 q 312 346 303 391 q 293 436 274 460 q 254 483 222 483 l 222 483 q 196 483 178 466 q 160 448 150 421 q 139 393 133 361 l 133 361 l 20 383 q 29 418 44 452 q 58 485 82 512 q 105 539 141 555 q 177 571 229 571 l 229 571 q 285 571 324 550 q 362 528 385 489 q 408 450 418 397 q 428 344 428 281 z"},"ി":{"ha":232,"x_min":-199,"x_max":173,"o":"m -18 848 l -18 848 q 20 848 52 838 q 84 828 108 808 l 108 808 q 133 787 147 759 q 160 730 167 689 q 173 648 173 585 l 173 585 l 173 0 l 59 0 l 59 551 q 59 599 57 636 q 55 672 49 697 q 43 722 32 735 l 32 735 q 23 747 11 754 q -1 760 -20 760 l -20 760 q -37 760 -52 752 q -68 743 -77 726 q -86 709 -86 683 l -86 683 q -86 672 -84 660 q -83 647 -81 639 l -81 639 l -192 624 q -196 636 -197 652 q -199 667 -199 684 l -199 684 q -199 738 -175 775 q -151 811 -110 830 q -69 848 -18 848 z"},"ീ":{"ha":232,"x_min":-243,"x_max":173,"o":"m -74 848 l -74 848 q -21 848 20 835 q 60 822 94 794 l 94 794 q 140 756 157 698 q 173 639 173 545 l 173 545 l 173 0 l 59 0 l 59 525 q 59 587 55 629 q 51 671 41 699 q 30 727 11 745 l 11 745 q -7 761 -30 767 q -53 773 -86 773 l -86 773 q -103 773 -119 768 q -136 762 -146 748 q -157 734 -157 710 l -157 710 q -157 684 -145 671 q -134 658 -114 658 l -114 658 q -88 658 -78 674 q -68 689 -68 713 l -68 713 q -68 737 -78 758 q -89 779 -106 793 l -106 793 l -10 779 q -1 769 6 751 q 12 732 12 707 l 12 707 q 12 671 0 643 q -13 614 -41 597 q -69 580 -115 580 l -115 580 q -152 580 -181 595 q -211 609 -227 638 q -243 667 -243 709 l -243 709 q -243 749 -224 780 q -206 811 -168 830 q -131 848 -74 848 z"},"ു":{"ha":312,"x_min":-22,"x_max":318,"o":"m 148 -232 l 148 -232 q 69 -232 24 -183 q -22 -135 -22 -53 l -22 -53 q -22 2 -1 42 q 20 82 58 104 q 96 125 147 125 l 147 125 q 199 125 237 104 q 275 83 297 44 q 318 4 318 -53 l 318 -53 q 318 -109 297 -149 q 275 -189 237 -210 q 199 -232 148 -232 z m 148 -150 l 148 -150 q 179 -150 198 -126 q 216 -102 216 -53 l 216 -53 q 216 -5 198 19 q 180 43 148 43 l 148 43 q 117 43 98 19 q 79 -5 79 -54 l 79 -54 q 79 -103 98 -126 q 117 -150 148 -150 z m 114 571 l 114 571 q 170 571 202 548 q 234 525 248 488 q 261 451 261 408 l 261 408 q 261 337 245 260 q 229 182 205 93 l 205 93 l 100 108 q 121 188 134 259 q 146 330 146 391 l 146 391 q 146 431 133 456 q 120 481 84 481 l 84 481 q 71 481 59 479 q 46 477 35 473 l 35 473 l 17 559 q 35 563 59 567 q 82 571 114 571 z"},"ൂ":{"ha":312,"x_min":-22,"x_max":318,"o":"m 149 -232 l 149 -232 q 69 -232 24 -183 q -22 -135 -22 -53 l -22 -53 q -22 2 -1 42 q 20 82 58 104 q 96 125 147 125 l 147 125 q 199 125 238 104 q 276 83 297 44 q 318 4 318 -53 l 318 -53 q 318 -109 297 -149 q 275 -189 237 -210 q 199 -232 149 -232 z m 148 48 l 148 48 q 112 48 88 24 q 64 -1 64 -54 l 64 -54 q 64 -106 88 -129 q 111 -153 148 -153 l 148 -153 q 184 -153 208 -129 q 232 -106 232 -54 l 232 -54 q 232 -2 209 23 q 186 48 148 48 z m 148 -98 l 148 -98 q 98 -98 75 -67 q 51 -36 51 13 l 51 13 q 51 35 61 56 q 70 76 87 99 l 87 99 l 130 72 q 114 63 105 50 q 95 37 95 22 l 95 22 q 95 8 102 -2 q 108 -13 120 -18 q 131 -24 149 -24 l 149 -24 q 166 -24 178 -18 q 190 -12 196 -2 q 201 8 201 21 l 201 21 q 201 36 193 49 q 185 61 169 69 l 169 69 l 212 99 q 231 74 239 55 q 246 36 246 15 l 246 15 q 246 -14 237 -39 q 228 -65 207 -81 q 185 -98 148 -98 z m 115 571 l 115 571 q 170 571 202 548 q 234 525 248 488 q 261 451 261 408 l 261 408 q 261 337 245 260 q 229 182 205 93 l 205 93 l 100 107 q 121 188 134 259 q 146 330 146 391 l 146 391 q 146 431 133 456 q 120 481 84 481 l 84 481 q 72 481 59 479 q 46 477 35 473 l 35 473 l 17 559 q 35 563 59 567 q 83 571 115 571 z"},"ൃ":{"ha":243,"x_min":-133,"x_max":241,"o":"m 40 -327 l 40 -327 q -13 -327 -52 -309 q -91 -292 -112 -257 q -133 -222 -133 -172 l -133 -172 q -133 -107 -91 -66 q -50 -26 31 -26 l 31 -26 q 64 -26 101 -38 q 138 -50 179 -85 l 179 -85 l 153 -162 q 124 -136 96 -124 q 68 -112 37 -112 l 37 -112 q 9 -112 -8 -127 q -25 -143 -25 -175 l -25 -175 q -25 -205 -7 -221 q 10 -238 39 -238 l 39 -238 q 69 -238 89 -226 q 109 -215 119 -189 q 129 -164 129 -123 l 129 -123 q 129 -95 124 -66 q 119 -37 109 -2 q 98 33 83 79 l 83 79 q 65 130 52 187 q 38 243 38 305 l 38 305 q 38 373 56 437 q 73 501 100 559 l 100 559 l 218 559 q 195 510 180 469 q 165 428 158 390 q 151 352 151 310 l 151 310 q 151 258 162 212 q 173 166 191 110 l 191 110 q 207 61 218 22 q 229 -18 235 -52 q 241 -87 241 -122 l 241 -122 q 241 -195 214 -240 q 186 -286 141 -306 q 95 -327 40 -327 z"},"ൄ":{"ha":243,"x_min":-250,"x_max":240,"o":"m -23 -327 l -23 -327 q -96 -327 -147 -306 q -198 -286 -224 -246 q -250 -207 -250 -152 l -250 -152 q -250 -97 -219 -63 q -188 -30 -138 -30 l -138 -30 q -108 -30 -88 -44 q -69 -58 -57 -79 l -57 -79 l -68 -77 q -54 -55 -34 -42 q -15 -30 11 -30 l 11 -30 q 40 -30 58 -41 q 76 -52 86 -69 q 95 -86 99 -105 q 102 -125 102 -143 l 102 -143 l 102 -176 l 30 -176 l 30 -159 q 30 -135 25 -121 q 19 -108 2 -108 l 2 -108 q -16 -108 -21 -121 q -27 -135 -27 -157 l -27 -157 l -27 -176 l -99 -176 l -99 -157 q -99 -135 -105 -121 q -112 -108 -127 -108 l -127 -108 q -141 -108 -149 -119 q -158 -131 -158 -151 l -158 -151 q -158 -193 -124 -215 q -91 -238 -24 -238 l -24 -238 q 44 -238 85 -209 q 126 -181 126 -119 l 126 -119 q 126 -91 121 -63 q 116 -35 106 0 q 96 34 82 79 l 82 79 q 66 128 52 184 q 38 240 38 305 l 38 305 q 38 373 56 437 q 73 501 100 559 l 100 559 l 218 559 q 195 510 180 469 q 165 428 158 390 q 151 352 151 310 l 151 310 q 151 258 162 213 q 172 167 190 112 l 190 112 q 208 61 219 23 q 229 -16 235 -49 q 240 -83 240 -121 l 240 -121 q 240 -187 209 -232 q 177 -278 118 -302 q 58 -327 -23 -327 z"},"െ":{"ha":642,"x_min":36,"x_max":606,"o":"m 219 -12 l 219 -12 q 170 -12 129 13 q 87 38 62 93 q 36 147 36 237 l 36 237 q 36 314 58 376 q 79 437 119 481 q 158 525 214 548 q 269 571 338 571 l 338 571 q 406 571 457 550 q 507 528 541 489 q 574 450 590 399 q 606 347 606 286 l 606 286 q 606 218 590 164 q 573 109 544 67 q 515 25 478 -11 l 478 -11 l 399 52 q 424 80 445 113 q 465 145 478 186 q 490 227 490 282 l 490 282 q 490 343 472 388 q 454 433 418 457 q 382 481 329 481 l 329 481 q 273 481 230 449 q 187 417 164 362 q 141 306 141 233 l 141 233 q 141 172 151 138 q 160 103 177 89 q 194 75 215 75 l 215 75 q 232 75 244 85 q 256 94 263 113 q 269 132 269 163 l 269 163 q 269 210 254 232 q 239 253 207 253 l 207 253 q 179 253 153 236 q 127 219 100 185 l 100 185 l 83 264 q 106 292 146 315 q 186 338 234 338 l 234 338 q 281 338 313 318 q 345 298 362 261 q 379 223 379 170 l 379 170 q 379 111 360 71 q 341 30 306 9 q 270 -12 219 -12 z"},"േ":{"ha":540,"x_min":35,"x_max":508,"o":"m 321 -12 l 321 -12 q 261 -12 209 5 q 157 22 118 59 q 78 95 57 151 q 35 207 35 283 l 35 283 q 35 358 58 412 q 81 466 122 501 q 162 536 215 554 q 268 571 329 571 l 329 571 q 394 571 434 552 q 473 532 491 499 q 508 465 508 425 l 508 425 q 508 383 491 354 q 473 324 443 309 q 412 293 373 293 l 373 293 q 323 293 293 311 q 263 328 250 358 q 236 388 236 422 l 236 422 q 236 445 243 466 q 249 487 257 499 l 257 499 l 356 511 q 341 498 333 476 q 324 453 324 427 l 324 427 q 324 404 334 388 q 343 371 367 371 l 367 371 q 391 371 401 385 q 411 399 411 423 l 411 423 q 411 454 393 471 q 375 487 345 487 l 345 487 q 332 487 318 487 q 303 487 294 486 l 294 486 q 250 484 217 459 q 184 434 165 389 q 146 344 146 282 l 146 282 q 146 222 163 176 q 180 130 211 104 q 242 77 286 73 l 286 73 q 297 72 312 72 q 326 72 337 72 l 337 72 q 360 72 375 80 q 390 87 398 101 q 406 115 406 137 l 406 137 q 406 161 397 176 q 387 190 365 190 l 365 190 q 340 190 329 173 q 318 155 318 131 l 318 131 q 318 104 327 83 q 336 61 352 48 l 352 48 l 251 61 q 243 74 237 95 q 230 116 230 140 l 230 140 q 230 172 243 202 q 256 231 286 250 q 316 268 367 268 l 367 268 q 406 268 437 253 q 468 237 486 208 q 503 178 503 134 l 503 134 q 503 94 485 61 q 466 27 426 8 q 385 -12 321 -12 z"},"ൈ":{"ha":1283,"x_min":36,"x_max":1247,"o":"m 219 -12 l 219 -12 q 170 -12 129 13 q 87 38 62 93 q 36 147 36 237 l 36 237 q 36 314 58 376 q 79 437 119 481 q 158 525 214 548 q 269 571 338 571 l 338 571 q 406 571 457 550 q 507 528 541 489 q 574 450 590 399 q 606 347 606 286 l 606 286 q 606 218 590 164 q 573 109 544 67 q 515 25 478 -11 l 478 -11 l 399 52 q 424 80 445 113 q 465 145 478 186 q 490 227 490 282 l 490 282 q 490 343 472 388 q 454 433 418 457 q 382 481 329 481 l 329 481 q 273 481 230 449 q 187 417 164 362 q 141 306 141 233 l 141 233 q 141 172 151 138 q 160 103 177 89 q 194 75 215 75 l 215 75 q 232 75 244 85 q 256 94 263 113 q 269 132 269 163 l 269 163 q 269 210 254 232 q 239 253 207 253 l 207 253 q 179 253 153 236 q 127 219 100 185 l 100 185 l 83 264 q 106 292 146 315 q 186 338 234 338 l 234 338 q 281 338 313 318 q 345 298 362 261 q 379 223 379 170 l 379 170 q 379 111 360 71 q 341 30 306 9 q 270 -12 219 -12 z m 860 -12 l 860 -12 q 811 -12 770 13 q 728 38 703 93 q 677 147 677 237 l 677 237 q 677 314 699 376 q 720 437 760 481 q 799 525 855 548 q 910 571 979 571 l 979 571 q 1047 571 1098 550 q 1148 528 1182 489 q 1215 450 1231 399 q 1247 347 1247 286 l 1247 286 q 1247 218 1231 164 q 1214 109 1185 67 q 1156 25 1119 -11 l 1119 -11 l 1040 52 q 1065 80 1086 113 q 1106 145 1119 186 q 1131 227 1131 282 l 1131 282 q 1131 343 1113 388 q 1095 433 1059 457 q 1023 481 970 481 l 970 481 q 914 481 871 449 q 828 417 805 362 q 782 306 782 233 l 782 233 q 782 172 792 138 q 801 103 818 89 q 835 75 856 75 l 856 75 q 873 75 885 85 q 897 94 904 113 q 910 132 910 163 l 910 163 q 910 210 895 232 q 880 253 848 253 l 848 253 q 820 253 794 236 q 768 219 741 185 l 741 185 l 724 264 q 747 292 787 315 q 827 338 875 338 l 875 338 q 922 338 954 318 q 986 298 1003 261 q 1020 223 1020 170 l 1020 170 q 1020 111 1001 71 q 982 30 947 9 q 911 -12 860 -12 z"},"ൊ":{"ha":1281,"x_min":36,"x_max":1242,"o":"m 219 -12 l 219 -12 q 170 -12 129 13 q 87 38 62 93 q 36 147 36 237 l 36 237 q 36 314 58 376 q 79 437 119 481 q 158 525 214 548 q 269 571 338 571 l 338 571 q 406 571 457 550 q 507 528 541 489 q 574 450 590 399 q 606 347 606 286 l 606 286 q 606 218 590 164 q 573 109 544 67 q 515 25 478 -11 l 478 -11 l 399 52 q 424 80 445 113 q 465 145 478 186 q 490 227 490 282 l 490 282 q 490 343 472 388 q 454 433 418 457 q 382 481 329 481 l 329 481 q 273 481 230 449 q 187 417 164 362 q 141 306 141 233 l 141 233 q 141 172 151 138 q 160 103 177 89 q 194 75 215 75 l 215 75 q 232 75 244 85 q 256 94 263 113 q 269 132 269 163 l 269 163 q 269 210 254 232 q 239 253 207 253 l 207 253 q 179 253 153 236 q 127 219 100 185 l 100 185 l 83 264 q 106 292 146 315 q 186 338 234 338 l 234 338 q 281 338 313 318 q 345 298 362 261 q 379 223 379 170 l 379 170 q 379 111 360 71 q 341 30 306 9 q 270 -12 219 -12 z m 736 222 l 736 222 q 704 222 685 241 q 665 260 665 298 l 665 298 q 665 337 684 356 q 703 374 736 374 l 736 374 q 768 374 787 356 q 806 338 806 298 l 806 298 q 806 260 787 241 q 768 222 736 222 z m 1242 281 l 1242 281 q 1242 216 1232 162 q 1222 108 1198 69 q 1174 30 1134 9 q 1094 -12 1034 -12 l 1034 -12 q 982 -12 946 5 q 909 21 886 49 q 863 76 850 110 q 837 144 831 178 l 831 178 l 945 199 q 951 172 961 143 q 970 114 987 95 q 1004 76 1034 76 l 1034 76 q 1067 76 1087 100 q 1107 124 1117 170 q 1126 215 1126 281 l 1126 281 q 1126 346 1117 391 q 1107 436 1088 460 q 1068 483 1036 483 l 1036 483 q 1010 483 992 466 q 974 448 964 421 q 953 393 947 361 l 947 361 l 834 383 q 843 418 858 452 q 872 485 896 512 q 919 539 955 555 q 991 571 1043 571 l 1043 571 q 1099 571 1138 550 q 1176 528 1199 489 q 1222 450 1232 397 q 1242 344 1242 281 z"},"ോ":{"ha":1162,"x_min":35,"x_max":1124,"o":"m 321 -12 l 321 -12 q 261 -12 209 5 q 157 22 118 59 q 78 95 57 151 q 35 207 35 283 l 35 283 q 35 358 58 412 q 81 466 122 501 q 162 536 215 554 q 268 571 329 571 l 329 571 q 394 571 434 552 q 473 532 491 499 q 508 465 508 425 l 508 425 q 508 383 491 354 q 473 324 443 309 q 412 293 373 293 l 373 293 q 323 293 293 311 q 263 328 250 358 q 236 388 236 422 l 236 422 q 236 445 243 466 q 249 487 257 499 l 257 499 l 356 511 q 341 498 333 476 q 324 453 324 427 l 324 427 q 324 404 334 388 q 343 371 367 371 l 367 371 q 391 371 401 385 q 411 399 411 423 l 411 423 q 411 454 393 471 q 375 487 345 487 l 345 487 q 332 487 318 487 q 303 487 294 486 l 294 486 q 250 484 217 459 q 184 434 165 389 q 146 344 146 282 l 146 282 q 146 222 163 176 q 180 130 211 104 q 242 77 286 73 l 286 73 q 297 72 312 72 q 326 72 337 72 l 337 72 q 360 72 375 80 q 390 87 398 101 q 406 115 406 137 l 406 137 q 406 161 397 176 q 387 190 365 190 l 365 190 q 340 190 329 173 q 318 155 318 131 l 318 131 q 318 104 327 83 q 336 61 352 48 l 352 48 l 251 61 q 243 74 237 95 q 230 116 230 140 l 230 140 q 230 172 243 202 q 256 231 286 250 q 316 268 367 268 l 367 268 q 406 268 437 253 q 468 237 486 208 q 503 178 503 134 l 503 134 q 503 94 485 61 q 466 27 426 8 q 385 -12 321 -12 z m 617 222 l 617 222 q 585 222 566 241 q 546 260 546 298 l 546 298 q 546 337 565 356 q 584 374 617 374 l 617 374 q 649 374 668 356 q 687 338 687 298 l 687 298 q 687 260 668 241 q 649 222 617 222 z m 1123 281 l 1123 281 q 1123 216 1113 162 q 1103 108 1079 69 q 1055 30 1015 9 q 975 -12 915 -12 l 915 -12 q 863 -12 827 5 q 790 21 767 49 q 744 76 731 110 q 718 144 712 178 l 712 178 l 826 199 q 832 172 842 143 q 851 114 868 95 q 885 76 915 76 l 915 76 q 948 76 968 100 q 988 124 998 170 q 1007 215 1007 281 l 1007 281 q 1007 346 998 391 q 988 436 969 460 q 949 483 917 483 l 917 483 q 891 483 873 466 q 855 448 845 421 q 834 393 828 361 l 828 361 l 715 383 q 724 418 739 452 q 753 485 777 512 q 800 539 836 555 q 872 571 924 571 l 924 571 q 980 571 1019 550 q 1057 528 1080 489 q 1103 450 1113 397 q 1123 344 1123 281 z"},"ൌ":{"ha":1504,"x_min":36,"x_max":1468,"o":"m 219 -12 l 219 -12 q 170 -12 129 13 q 87 38 62 93 q 36 147 36 237 l 36 237 q 36 314 58 376 q 79 437 119 481 q 158 525 214 548 q 269 571 338 571 l 338 571 q 406 571 457 550 q 507 528 541 489 q 574 450 590 399 q 606 347 606 286 l 606 286 q 606 218 590 164 q 573 109 544 67 q 515 25 478 -11 l 478 -11 l 399 52 q 424 80 445 113 q 465 145 478 186 q 490 227 490 282 l 490 282 q 490 343 472 388 q 454 433 418 457 q 382 481 329 481 l 329 481 q 273 481 230 449 q 187 417 164 362 q 141 306 141 233 l 141 233 q 141 172 151 138 q 160 103 177 89 q 194 75 215 75 l 215 75 q 232 75 244 85 q 256 94 263 113 q 269 132 269 163 l 269 163 q 269 210 254 232 q 239 253 207 253 l 207 253 q 179 253 153 236 q 127 219 100 185 l 100 185 l 83 264 q 106 292 146 315 q 186 338 234 338 l 234 338 q 281 338 313 318 q 345 298 362 261 q 379 223 379 170 l 379 170 q 379 111 360 71 q 341 30 306 9 q 270 -12 219 -12 z m 736 222 l 736 222 q 704 222 685 241 q 665 260 665 298 l 665 298 q 665 337 684 356 q 703 374 736 374 l 736 374 q 768 374 787 356 q 806 338 806 298 l 806 298 q 806 260 787 241 q 768 222 736 222 z m 1282 571 l 1282 571 q 1341 571 1383 540 q 1424 508 1446 450 q 1468 391 1468 309 l 1468 309 q 1468 202 1438 131 q 1408 59 1349 24 q 1290 -12 1203 -12 l 1203 -12 q 1149 -12 1101 -1 q 1053 9 1008 33 l 1008 33 l 1055 117 q 1086 101 1120 91 q 1154 80 1195 80 l 1195 80 q 1253 80 1288 107 q 1323 133 1338 183 q 1352 233 1352 306 l 1352 306 q 1352 397 1330 440 q 1308 482 1273 482 l 1273 482 q 1257 482 1247 476 q 1237 470 1230 459 l 1230 459 q 1221 446 1218 427 q 1215 407 1215 364 l 1215 364 l 1215 262 l 1102 262 l 1102 349 q 1102 394 1100 418 q 1097 441 1089 454 l 1089 454 q 1082 469 1069 476 q 1056 482 1042 482 l 1042 482 q 1007 482 990 454 q 973 426 973 388 l 973 388 q 973 355 977 329 q 981 303 987 282 l 987 282 l 879 258 q 870 287 865 322 q 859 357 859 390 l 859 390 q 859 438 877 479 q 895 519 933 545 q 970 571 1030 571 l 1030 571 q 1077 571 1109 554 q 1141 537 1163 504 l 1163 504 l 1149 505 q 1174 541 1206 556 q 1237 571 1282 571 z"},"്":{"ha":0,"x_min":-268,"x_max":67,"o":"m -101 594 l -101 594 q -158 594 -195 615 q -232 635 -250 672 q -268 708 -268 755 l -268 755 q -268 777 -264 795 q -261 813 -256 826 l -256 826 l -158 810 q -161 799 -162 786 q -164 772 -164 759 l -164 759 q -164 729 -156 711 q -148 693 -133 686 q -118 678 -99 678 l -99 678 q -79 678 -64 686 q -49 693 -40 711 q -32 729 -32 760 l -32 760 q -32 772 -34 786 q -36 799 -39 810 l -39 810 l 57 826 q 61 814 64 796 q 67 777 67 756 l 67 756 q 67 708 50 672 q 33 635 -4 615 q -42 594 -101 594 z"},"ൎ":{"ha":0,"x_min":-336,"x_max":-210,"o":"m -336 822 l -210 822 l -219 633 l -328 633 l -336 822 z"},"൏":{"ha":1112,"x_min":42,"x_max":1073,"o":"m 528 571 l 528 571 q 600 571 647 547 q 693 522 730 473 l 730 473 l 700 487 q 729 532 769 552 q 808 571 857 571 l 857 571 q 925 571 973 534 q 1021 496 1047 422 q 1073 348 1073 239 l 1073 239 q 1073 84 1020 -23 q 967 -130 854 -184 q 741 -239 559 -239 l 559 -239 q 438 -239 351 -214 q 263 -189 204 -144 q 144 -99 109 -39 q 73 21 58 91 q 42 161 42 236 l 42 236 q 42 308 59 387 q 76 465 110 546 l 110 546 l 207 511 q 178 443 164 372 q 150 300 150 236 l 150 236 q 150 176 161 121 q 171 65 197 17 q 223 -31 270 -67 q 316 -103 388 -123 q 459 -143 560 -143 l 560 -143 q 678 -143 755 -116 q 832 -90 876 -40 q 920 9 939 81 q 957 152 957 243 l 957 243 q 957 322 944 375 q 930 428 907 455 q 883 481 849 481 l 849 481 q 830 481 817 475 q 803 468 794 458 l 794 458 q 779 442 773 413 q 767 384 767 334 l 767 334 l 767 0 l 654 0 l 654 298 q 654 365 645 398 q 636 430 618 449 l 618 449 q 604 464 583 473 q 562 481 528 481 l 528 481 q 474 481 433 454 q 392 426 368 373 q 344 320 344 244 l 344 244 l 344 229 q 344 170 354 137 q 364 103 381 89 q 397 75 418 75 l 418 75 q 436 75 448 85 q 460 94 467 113 q 473 132 473 163 l 473 163 q 473 210 458 232 q 443 253 411 253 l 411 253 q 382 253 356 236 q 330 219 304 185 l 304 185 l 287 264 q 310 292 351 315 q 391 338 439 338 l 439 338 q 485 338 517 318 q 549 298 566 261 q 583 223 583 170 l 583 170 q 583 110 564 70 q 544 29 509 9 q 473 -12 422 -12 l 422 -12 q 374 -12 333 13 q 291 38 266 94 q 240 149 240 242 l 240 242 q 240 352 278 425 q 316 498 381 535 q 446 571 528 571 z"},"ൔ":{"ha":576,"x_min":52,"x_max":562,"o":"m 164 797 l 164 797 q 198 797 225 787 q 251 777 265 762 l 265 762 q 285 740 293 711 q 301 682 301 637 l 301 637 l 301 523 q 301 479 306 442 q 310 404 328 366 q 345 327 382 282 l 382 282 l 400 260 q 428 225 469 180 q 510 135 562 82 l 562 82 l 521 0 l 52 0 l 52 269 q 52 327 60 370 q 67 412 82 444 q 97 475 121 499 l 121 499 q 155 532 201 551 q 246 570 302 570 l 302 570 q 358 570 400 547 q 441 524 465 481 q 489 438 489 379 l 489 379 q 489 325 466 282 q 442 238 410 201 l 410 201 l 390 181 q 370 159 349 138 q 328 116 307 96 q 285 76 262 57 l 262 57 l 270 85 q 293 87 314 88 q 335 89 344 89 l 344 89 l 376 89 q 382 89 397 89 q 411 88 428 88 q 444 87 456 85 l 456 85 l 453 62 q 421 96 393 126 q 364 156 341 183 l 341 183 l 313 216 q 264 272 239 321 q 214 369 206 419 q 197 468 197 528 l 197 528 l 197 622 q 197 652 193 668 q 188 683 178 691 l 178 691 q 172 698 161 702 q 150 706 134 706 l 134 706 q 119 706 105 704 q 90 701 79 698 l 79 698 l 59 783 q 78 789 106 793 q 133 797 164 797 z m 165 269 l 165 65 l 144 65 q 179 95 213 127 q 246 159 276 193 q 306 226 328 262 l 328 262 l 349 291 q 362 314 371 337 q 379 359 379 387 l 379 387 q 379 417 367 439 q 355 461 333 473 q 311 485 281 485 l 281 485 q 245 485 222 467 q 198 448 186 417 l 186 417 q 179 401 174 381 q 169 361 167 334 q 165 307 165 269 l 165 269 z"},"ൕ":{"ha":930,"x_min":37,"x_max":895,"o":"m 613 -12 l 613 -12 q 573 -12 543 -7 q 512 -3 487 7 q 462 16 435 32 l 435 32 q 430 36 423 42 q 416 48 412 52 l 412 52 q 363 89 334 137 q 304 185 292 238 q 279 291 279 343 l 279 343 q 279 379 285 410 q 291 441 303 467 l 303 467 l 318 485 q 335 516 360 535 q 385 554 415 563 q 445 571 476 571 l 476 571 q 568 571 618 513 q 668 455 668 343 l 668 343 q 668 279 653 225 q 637 171 606 127 q 575 83 531 50 l 531 50 q 524 44 517 39 q 510 34 502 29 l 502 29 q 467 9 427 -1 q 386 -12 335 -12 l 335 -12 q 261 -12 205 14 q 149 39 112 85 q 74 130 56 192 q 37 254 37 328 l 37 328 q 37 403 60 458 q 83 512 130 542 q 176 571 243 571 l 243 571 q 293 571 334 551 q 374 530 407 488 l 407 488 l 322 433 q 306 459 287 471 q 267 483 246 483 l 246 483 q 216 483 195 466 q 174 448 163 414 q 151 379 151 329 l 151 329 q 151 249 175 192 q 199 135 242 105 q 284 74 340 74 l 340 74 q 366 74 385 78 q 404 81 421 88 l 421 88 q 429 91 436 93 q 443 95 450 99 l 450 99 q 481 121 505 159 q 528 196 541 244 q 553 291 553 342 l 553 342 q 553 396 542 427 q 530 457 513 470 q 495 483 475 483 l 475 483 q 450 483 432 469 q 413 454 404 423 q 394 391 394 342 l 394 342 q 394 297 405 251 q 416 204 438 165 q 459 126 490 102 l 490 102 q 497 98 503 97 q 508 95 515 91 l 515 91 q 530 84 553 80 q 575 75 608 75 l 608 75 q 666 75 704 96 q 742 117 761 154 q 780 191 780 239 l 780 239 q 780 276 772 309 q 764 342 748 378 q 731 414 705 458 l 705 458 q 683 500 666 533 q 649 566 640 597 q 630 627 630 661 l 630 661 q 630 693 644 724 q 657 755 690 776 q 722 797 779 797 l 779 797 q 813 797 838 792 q 863 787 876 783 l 876 783 l 857 696 q 845 701 832 703 q 819 705 801 705 l 801 705 q 770 705 757 690 q 743 674 743 651 l 743 651 q 743 631 749 613 q 754 594 768 568 q 782 541 806 499 l 806 499 q 834 450 854 408 q 874 365 885 324 q 895 283 895 240 l 895 240 q 895 202 886 165 q 876 128 856 96 q 836 64 803 40 q 770 15 723 2 q 675 -12 613 -12 z"},"ൖ":{"ha":672,"x_min":33,"x_max":639,"o":"m 222 171 l 222 171 q 222 145 231 124 q 239 103 258 91 q 277 78 308 78 l 308 78 q 349 78 364 97 q 379 116 379 145 l 379 145 q 379 177 369 206 q 358 235 345 266 q 331 296 321 332 q 311 368 311 413 l 311 413 q 311 458 330 494 q 348 529 384 550 q 419 571 470 571 l 470 571 q 530 571 568 546 q 605 521 622 481 q 639 441 639 399 l 639 399 q 639 329 611 274 q 582 219 523 187 q 464 155 374 155 l 374 155 l 342 155 q 299 155 264 161 q 228 167 194 182 l 194 182 l 159 191 q 121 211 93 241 q 64 271 49 311 q 33 351 33 399 l 33 399 q 33 442 46 486 q 58 529 84 572 l 84 572 l 178 528 q 163 496 155 465 q 147 434 147 400 l 147 400 q 147 367 156 339 q 164 310 174 290 l 174 290 l 212 269 q 235 254 270 246 q 304 237 338 237 l 338 237 l 378 237 q 429 237 462 258 q 495 278 511 315 q 527 352 527 399 l 527 399 q 527 435 514 461 q 500 487 468 487 l 468 487 q 450 487 437 477 q 424 467 417 450 q 410 432 410 409 l 410 409 q 410 372 422 338 q 434 304 449 271 q 463 238 475 204 q 487 170 487 132 l 487 132 q 487 106 479 81 q 470 55 451 35 q 432 14 398 1 q 363 -12 310 -12 l 310 -12 q 254 -12 212 7 q 169 26 145 67 q 120 108 120 173 l 120 173 q 120 213 133 257 q 145 300 166 349 q 187 398 210 452 l 210 452 q 234 502 248 537 q 262 571 269 598 q 275 624 275 648 l 275 648 q 275 674 260 690 q 245 706 213 706 l 213 706 q 200 706 186 704 q 171 701 160 698 l 160 698 l 139 783 q 159 790 189 794 q 218 797 248 797 l 248 797 q 306 797 336 776 q 365 755 376 726 q 387 697 387 671 l 387 671 q 387 646 382 621 q 377 595 366 565 q 355 535 338 497 q 320 459 296 407 l 296 407 q 271 354 256 318 q 241 282 234 257 q 227 232 225 212 q 222 192 222 171 z"},"ൗ":{"ha":675,"x_min":30,"x_max":639,"o":"m 453 571 l 453 571 q 512 571 554 540 q 595 508 617 450 q 639 391 639 309 l 639 309 q 639 202 609 131 q 579 59 520 24 q 461 -12 374 -12 l 374 -12 q 320 -12 272 -1 q 224 9 179 33 l 179 33 l 226 117 q 257 101 291 91 q 325 80 366 80 l 366 80 q 424 80 459 107 q 494 133 509 183 q 523 233 523 306 l 523 306 q 523 397 501 440 q 479 482 444 482 l 444 482 q 428 482 418 476 q 408 470 401 459 l 401 459 q 392 446 389 427 q 386 407 386 364 l 386 364 l 386 262 l 273 262 l 273 349 q 273 394 271 418 q 268 441 260 454 l 260 454 q 253 469 240 476 q 227 482 213 482 l 213 482 q 178 482 161 454 q 144 426 144 388 l 144 388 q 144 355 148 329 q 152 303 158 282 l 158 282 l 50 258 q 41 287 36 322 q 30 357 30 390 l 30 390 q 30 438 48 479 q 66 519 104 545 q 141 571 201 571 l 201 571 q 248 571 280 554 q 312 537 334 504 l 334 504 l 320 505 q 345 541 377 556 q 408 571 453 571 z"},"൘":{"ha":1076,"x_min":35,"x_max":1036,"o":"m 532 -12 l 532 -12 q 486 -12 449 8 q 412 27 382 70 l 382 70 l 397 66 q 369 28 336 8 q 302 -12 249 -12 l 249 -12 q 181 -12 133 23 q 85 58 60 119 q 35 180 35 259 l 35 259 q 35 326 50 381 q 64 436 90 482 q 116 528 150 569 l 150 569 l 236 507 q 209 475 190 438 q 171 400 161 356 q 151 312 151 262 l 151 262 q 151 200 166 159 q 180 118 205 98 q 229 78 256 78 l 256 78 q 276 78 289 85 q 302 92 311 103 l 311 103 q 324 121 329 147 q 333 173 333 221 l 333 221 l 333 559 l 446 559 l 446 232 q 446 182 452 154 q 458 126 471 107 l 471 107 q 482 93 498 86 q 513 78 532 78 l 532 78 q 555 78 570 86 q 584 93 594 106 l 594 106 q 608 124 613 152 q 617 180 617 227 l 617 227 l 617 559 l 730 559 l 730 251 l 679 66 q 652 28 618 8 q 583 -12 532 -12 z m 823 -12 l 823 -12 q 771 -12 734 7 q 696 26 666 69 l 666 69 l 625 236 l 625 549 l 730 549 l 730 239 q 730 184 736 153 q 741 121 757 102 l 757 102 q 767 90 781 84 q 794 78 813 78 l 813 78 q 846 78 870 105 q 894 131 907 185 q 920 238 920 317 l 920 317 q 920 399 908 467 q 895 535 869 589 q 842 642 800 679 q 758 716 699 735 q 639 754 560 754 l 560 754 q 504 754 450 747 q 396 739 351 728 l 351 728 l 335 820 q 376 830 411 836 q 445 842 482 845 q 518 847 563 847 l 563 847 q 665 847 743 823 q 821 799 876 754 q 931 708 967 644 q 1002 579 1019 498 q 1036 417 1036 322 l 1036 322 q 1036 209 1011 135 q 986 61 939 25 q 891 -12 823 -12 z"},"൙":{"ha":1004,"x_min":36,"x_max":985,"o":"m 324 571 l 324 571 q 402 571 459 546 q 516 520 554 475 q 592 429 611 368 q 630 306 630 233 l 630 233 q 630 142 607 88 q 583 34 540 11 q 497 -12 439 -12 l 439 -12 q 377 -12 340 12 q 302 36 285 73 q 268 109 268 151 l 268 151 q 268 203 287 239 q 306 275 339 297 l 339 297 q 360 312 387 321 q 413 330 449 334 q 485 338 533 338 l 533 338 l 718 338 l 718 250 l 541 250 q 486 250 458 244 q 430 238 411 224 l 411 224 q 396 213 388 195 q 379 177 379 151 l 379 151 q 379 120 395 99 q 410 78 442 78 l 442 78 q 466 78 483 94 q 499 110 508 144 q 517 178 517 234 l 517 234 q 517 250 517 267 q 516 283 514 294 l 514 294 l 509 318 q 505 362 483 399 q 461 436 424 459 q 386 481 333 481 l 333 481 q 272 481 232 457 q 191 432 172 388 q 152 344 152 284 l 152 284 q 152 232 163 191 q 173 150 194 117 q 214 83 242 52 l 242 52 l 162 -11 q 127 23 98 67 q 69 110 53 165 q 36 219 36 288 l 36 288 q 36 345 53 396 q 70 447 105 487 q 140 526 195 549 q 250 571 324 571 z m 830 559 l 830 559 q 885 559 919 538 q 953 517 969 484 q 985 450 985 411 l 985 411 q 985 371 971 340 q 956 309 930 289 l 930 289 q 912 275 890 266 q 867 257 836 254 q 805 250 761 250 l 761 250 l 590 250 l 592 338 l 772 338 q 807 338 826 343 q 844 347 854 355 l 854 355 q 868 364 874 377 q 880 390 880 413 l 880 413 q 880 440 867 456 q 854 472 829 472 l 829 472 q 802 472 788 453 q 774 434 774 401 l 774 401 q 774 366 785 342 q 795 317 811 295 l 811 295 l 710 290 q 695 312 684 345 q 672 377 672 412 l 672 412 q 672 460 693 493 q 713 525 749 542 q 785 559 830 559 z"},"൚":{"ha":955,"x_min":36,"x_max":903,"o":"m 617 571 l 617 571 q 694 571 747 552 q 799 533 833 499 l 833 499 q 858 474 874 442 q 889 410 896 367 q 903 324 903 267 l 903 267 l 903 0 l 456 0 l 456 83 q 498 129 533 182 q 567 235 587 290 q 607 345 607 399 l 607 399 q 607 424 603 442 q 598 460 587 470 q 575 480 555 480 l 555 480 q 531 480 511 464 q 490 447 478 419 l 478 419 q 466 392 462 358 q 458 324 458 273 l 458 273 l 458 230 l 345 230 l 345 334 q 345 388 340 415 q 334 441 320 458 l 320 458 q 312 469 298 475 q 284 481 264 481 l 264 481 q 235 481 209 461 q 183 441 167 401 q 151 360 151 297 l 151 297 q 151 247 162 203 q 172 159 191 122 q 210 84 237 51 l 237 51 l 150 -11 q 117 30 91 76 q 65 122 51 178 q 36 233 36 300 l 36 300 q 36 380 62 441 q 87 502 137 537 q 187 571 260 571 l 260 571 q 298 571 327 561 q 356 551 379 530 q 402 508 423 474 l 423 474 l 392 467 q 416 503 449 526 q 481 548 523 560 q 565 571 617 571 z m 719 377 l 719 377 q 719 324 702 274 q 685 224 654 175 q 622 125 580 73 l 580 73 l 562 84 q 582 86 610 87 q 637 88 649 88 l 649 88 l 791 88 l 791 276 q 791 339 780 380 q 768 421 744 447 q 719 473 680 487 l 680 487 l 681 490 q 696 472 708 444 q 719 415 719 377 z"},"൛":{"ha":858,"x_min":59,"x_max":822,"o":"m 554 -12 l 554 -12 q 483 -12 434 11 q 384 33 353 72 q 321 110 307 160 q 292 209 292 264 l 292 264 q 292 322 305 368 q 317 414 339 453 q 360 491 388 526 l 388 526 l 371 471 l 172 471 l 172 0 l 59 0 l 59 559 l 442 559 l 491 498 q 469 473 450 442 q 431 410 420 370 q 408 329 408 275 l 408 275 q 408 215 426 171 q 444 126 477 103 q 510 79 553 79 l 553 79 q 600 79 634 103 q 667 126 686 170 q 705 214 705 273 l 705 273 q 705 325 694 366 q 683 407 663 442 q 643 477 615 507 l 615 507 l 696 570 q 732 537 761 494 q 789 450 806 395 q 822 340 822 271 l 822 271 q 822 216 807 165 q 792 114 759 75 q 726 35 675 12 q 624 -12 554 -12 z"},"൜":{"ha":1341,"x_min":36,"x_max":1305,"o":"m 807 571 l 807 571 q 856 571 891 558 q 926 544 949 520 l 949 520 q 968 501 980 475 q 991 448 997 414 q 1003 380 1003 336 l 1003 336 l 1003 241 q 1003 184 1007 156 q 1011 127 1022 109 l 1022 109 q 1032 94 1048 86 q 1063 78 1087 78 l 1087 78 q 1117 78 1140 98 q 1163 118 1177 159 q 1190 199 1190 261 l 1190 261 q 1190 313 1180 357 q 1169 401 1150 439 q 1131 477 1104 510 l 1104 510 l 1190 572 q 1224 532 1250 486 q 1276 439 1291 383 q 1305 326 1305 256 l 1305 256 q 1305 172 1278 113 q 1251 53 1202 21 q 1152 -12 1084 -12 l 1084 -12 q 1035 -12 999 2 q 962 16 937 43 l 937 43 q 919 63 909 90 q 898 116 894 150 q 889 183 889 220 l 889 220 l 889 331 q 889 375 885 404 q 880 432 869 450 l 869 450 q 861 465 846 473 q 830 481 808 481 l 808 481 q 787 481 772 474 q 757 466 748 452 l 748 452 q 736 434 732 407 q 728 379 728 334 l 728 334 l 728 224 q 728 181 722 147 q 716 112 705 86 q 693 59 674 39 l 674 39 q 652 16 618 2 q 583 -12 533 -12 l 533 -12 q 484 -12 450 2 q 415 16 392 39 l 392 39 q 374 60 362 87 q 350 113 344 147 q 338 181 338 223 l 338 223 l 338 318 q 338 377 334 405 q 330 432 319 450 l 319 450 q 309 466 294 474 q 278 481 253 481 l 253 481 q 224 481 201 461 q 178 441 165 401 q 151 360 151 298 l 151 298 q 151 246 162 202 q 172 158 192 121 q 211 83 237 49 l 237 49 l 151 -13 q 117 27 91 74 q 65 120 51 177 q 36 233 36 303 l 36 303 q 36 386 63 446 q 89 506 139 539 q 189 571 259 571 l 259 571 q 307 571 343 557 q 379 543 403 518 l 403 518 q 423 496 433 469 q 443 441 448 408 q 452 374 452 333 l 452 333 l 452 228 q 452 184 456 156 q 460 128 472 109 l 472 109 q 480 94 496 86 q 511 78 533 78 l 533 78 q 554 78 569 86 q 584 93 593 107 l 593 107 q 605 126 609 153 q 613 180 613 226 l 613 226 l 613 333 q 613 378 619 413 q 625 447 637 474 q 648 500 667 520 l 667 520 q 689 543 723 557 q 757 571 807 571 z"},"൝":{"ha":1773,"x_min":9,"x_max":1737,"o":"m 689 571 l 689 571 q 738 571 773 558 q 808 544 831 520 l 831 520 q 850 501 862 475 q 873 448 879 414 q 885 380 885 336 l 885 336 l 885 228 q 885 184 889 156 q 893 128 904 109 l 904 109 q 912 94 928 86 q 943 78 965 78 l 965 78 q 986 78 1002 86 q 1017 93 1025 107 l 1025 107 q 1037 126 1042 153 q 1046 180 1046 226 l 1046 226 l 1046 333 q 1046 378 1052 413 q 1057 447 1069 474 q 1081 500 1099 520 l 1099 520 q 1121 543 1155 557 q 1189 571 1239 571 l 1239 571 q 1288 571 1324 558 q 1359 544 1381 520 l 1381 520 q 1400 501 1412 475 q 1423 448 1429 414 q 1435 380 1435 336 l 1435 336 l 1435 241 q 1435 184 1439 156 q 1443 127 1455 109 l 1455 109 q 1464 94 1480 86 q 1496 78 1520 78 l 1520 78 q 1550 78 1573 98 q 1595 118 1609 159 q 1622 199 1622 261 l 1622 261 q 1622 313 1612 357 q 1601 401 1582 439 q 1563 477 1536 510 l 1536 510 l 1622 572 q 1656 532 1682 486 q 1708 439 1723 383 q 1737 326 1737 256 l 1737 256 q 1737 172 1711 113 q 1684 53 1634 21 q 1584 -12 1516 -12 l 1516 -12 q 1467 -12 1431 2 q 1394 16 1369 43 l 1369 43 q 1351 63 1341 90 q 1330 116 1326 150 q 1321 183 1321 220 l 1321 220 l 1321 331 q 1321 375 1317 404 q 1313 432 1302 450 l 1302 450 q 1293 465 1278 473 q 1262 481 1241 481 l 1241 481 q 1220 481 1205 474 q 1189 466 1181 452 l 1181 452 q 1168 434 1164 407 q 1160 379 1160 334 l 1160 334 l 1160 224 q 1160 181 1155 147 q 1149 112 1137 86 q 1125 59 1106 39 l 1106 39 q 1084 16 1050 2 q 1016 -12 966 -12 l 966 -12 q 916 -12 882 2 q 847 16 824 39 l 824 39 q 806 60 794 87 q 782 113 777 147 q 771 181 771 223 l 771 223 l 771 334 q 771 378 767 405 q 762 432 751 450 l 751 450 q 743 465 728 473 q 712 481 690 481 l 690 481 q 669 481 654 474 q 639 466 630 452 l 630 452 q 618 434 614 407 q 610 379 610 334 l 610 334 l 610 222 q 610 151 597 111 q 584 70 557 41 l 557 41 q 533 15 500 2 q 466 -12 420 -12 l 420 -12 q 362 -12 327 10 q 292 32 266 68 l 266 68 l 280 68 q 259 41 235 23 q 211 5 184 -3 q 157 -12 124 -12 l 124 -12 q 88 -12 61 -5 q 34 2 9 16 l 9 16 l 44 100 q 62 91 83 85 q 103 78 127 78 l 127 78 q 144 78 161 84 q 178 89 189 102 l 189 102 q 205 120 210 150 q 215 179 215 237 l 215 237 l 215 555 l 328 559 l 328 228 q 328 178 334 151 q 339 123 352 105 l 352 105 q 361 93 377 86 q 393 78 412 78 l 412 78 q 434 78 450 86 q 466 93 475 108 l 475 108 q 487 126 491 152 q 495 178 495 226 l 495 226 l 495 333 q 495 378 501 413 q 507 447 519 474 q 530 500 549 520 l 549 520 q 571 543 605 557 q 639 571 689 571 z"},"൞":{"ha":1235,"x_min":36,"x_max":1208,"o":"m 324 571 l 324 571 q 402 571 459 546 q 516 520 554 475 q 592 429 611 368 q 630 306 630 233 l 630 233 q 630 142 607 88 q 583 34 540 11 q 497 -12 439 -12 l 439 -12 q 377 -12 340 12 q 302 36 285 73 q 268 109 268 151 l 268 151 q 268 203 287 239 q 306 275 339 297 l 339 297 q 360 312 387 321 q 413 330 449 334 q 485 338 533 338 l 533 338 l 572 338 l 572 250 l 541 250 q 486 250 458 244 q 430 238 411 224 l 411 224 q 396 213 388 195 q 379 177 379 151 l 379 151 q 379 120 395 99 q 410 78 442 78 l 442 78 q 466 78 483 94 q 499 110 508 144 q 517 178 517 234 l 517 234 q 517 251 517 267 q 516 283 514 294 l 514 294 l 509 318 q 505 362 483 399 q 461 436 424 459 q 387 481 333 481 l 333 481 q 272 481 232 457 q 191 432 172 388 q 152 344 152 284 l 152 284 q 152 232 163 191 q 173 150 194 117 q 214 83 242 52 l 242 52 l 162 -11 q 127 23 98 67 q 69 110 53 165 q 36 219 36 288 l 36 288 q 36 345 53 396 q 70 447 105 487 q 140 526 195 549 q 250 571 324 571 z m 1021 203 l 1021 203 q 957 203 916 229 q 875 255 856 296 q 836 337 836 382 l 836 382 q 836 419 848 448 q 859 477 870 494 l 870 494 l 884 470 l 705 470 l 748 496 q 761 480 771 455 q 780 429 780 400 l 780 400 q 780 345 757 312 q 733 279 692 265 q 650 250 597 250 l 597 250 l 571 250 l 571 338 l 597 338 q 626 338 645 345 q 663 351 672 366 q 680 380 680 404 l 680 404 q 680 425 673 444 q 666 462 657 475 l 657 475 l 686 559 l 939 559 l 979 502 q 967 484 957 457 q 947 430 947 392 l 947 392 q 947 347 965 319 q 983 291 1020 291 l 1020 291 q 1045 291 1062 304 q 1078 316 1087 338 q 1095 360 1095 387 l 1095 387 q 1095 433 1082 463 q 1068 492 1050 519 l 1050 519 l 1138 569 q 1169 530 1189 486 q 1208 441 1208 384 l 1208 384 q 1208 330 1185 289 q 1161 248 1120 226 q 1078 203 1021 203 z"},"ൟ":{"ha":1224,"x_min":25,"x_max":1199,"o":"m 25 269 l 25 269 q 25 329 60 366 q 94 403 152 403 l 152 403 q 209 403 245 367 q 280 330 280 269 l 280 269 q 280 209 246 173 q 211 136 152 136 l 152 136 q 94 136 60 173 q 25 209 25 269 z m 107 270 l 107 270 q 107 243 119 227 q 130 210 152 210 l 152 210 q 175 210 187 226 q 198 242 198 270 l 198 270 q 198 297 187 313 q 175 329 152 329 l 152 329 q 130 329 119 314 q 107 298 107 270 z m 944 269 l 944 269 q 944 329 979 366 q 1013 403 1070 403 l 1070 403 q 1128 403 1164 367 q 1199 330 1199 269 l 1199 269 q 1199 209 1164 173 q 1129 136 1070 136 l 1070 136 q 1012 136 978 173 q 944 209 944 269 z m 1026 270 l 1026 270 q 1026 243 1037 227 q 1048 210 1070 210 l 1070 210 q 1094 210 1106 226 q 1117 242 1117 270 l 1117 270 q 1117 297 1105 313 q 1093 329 1070 329 l 1070 329 q 1049 329 1038 314 q 1026 298 1026 270 z m 603 571 l 603 571 q 681 571 738 547 q 795 522 833 477 q 870 432 890 371 q 909 310 909 238 l 909 238 q 909 148 886 93 q 862 37 819 13 q 776 -12 717 -12 l 717 -12 q 654 -12 616 17 q 577 45 559 94 q 541 143 541 203 l 541 203 q 541 299 583 353 q 624 406 702 406 l 702 406 q 746 406 779 384 q 812 361 834 322 q 856 283 867 235 l 867 235 l 825 229 q 820 250 807 271 q 794 292 775 307 q 755 321 729 321 l 729 321 q 688 321 670 290 q 652 258 652 199 l 652 199 q 652 161 659 133 q 666 105 682 91 q 697 76 722 76 l 722 76 q 746 76 763 92 q 780 108 789 144 q 798 180 798 239 l 798 239 q 798 251 797 271 q 795 290 793 308 l 793 308 q 792 313 792 321 q 791 328 790 332 l 790 332 q 783 371 761 405 q 738 439 701 460 q 664 481 612 481 l 612 481 q 551 481 511 457 q 470 432 450 388 q 430 344 430 284 l 430 284 q 430 232 441 191 q 452 150 473 117 q 493 83 521 52 l 521 52 l 441 -11 q 406 23 377 67 q 348 110 331 165 q 314 219 314 288 l 314 288 q 314 346 332 397 q 349 448 384 487 q 419 526 474 549 q 529 571 603 571 z"},"ൠ":{"ha":814,"x_min":33,"x_max":781,"o":"m 603 571 l 603 571 q 685 571 733 516 q 781 460 781 354 l 781 354 q 781 287 760 237 q 738 187 697 152 l 697 152 q 665 121 622 103 q 579 84 525 79 l 525 79 l 453 89 l 354 87 l 289 79 q 233 85 195 102 q 156 119 124 148 l 124 148 q 80 183 57 234 q 33 285 33 354 l 33 354 q 33 420 56 469 q 79 517 121 544 q 163 571 220 571 l 220 571 q 274 571 310 549 q 345 527 363 489 q 381 451 381 405 l 381 405 q 381 349 363 312 q 345 275 311 256 q 276 237 228 237 l 228 237 q 194 237 164 250 q 133 263 109 282 q 84 300 67 319 l 67 319 l 97 401 q 113 378 128 360 q 142 341 160 331 q 178 320 203 320 l 203 320 q 237 320 255 342 q 272 363 272 407 l 272 407 q 272 443 257 464 q 241 485 214 485 l 214 485 q 190 485 173 472 q 156 458 148 431 q 139 404 139 365 l 139 365 q 139 346 142 328 q 144 310 148 295 l 148 295 l 143 274 q 155 242 180 221 q 204 199 237 186 q 269 173 305 167 q 341 161 376 161 l 376 161 l 440 161 q 472 161 508 167 q 543 172 577 185 q 610 197 635 219 q 660 241 672 274 l 672 274 l 668 295 q 671 309 674 328 q 676 346 676 364 l 676 364 q 676 405 668 432 q 660 458 644 472 q 628 485 604 485 l 604 485 q 576 485 560 464 q 544 442 544 402 l 544 402 q 544 361 561 341 q 577 320 610 320 l 610 320 q 636 320 654 331 q 672 341 687 359 q 702 377 717 400 l 717 400 l 747 318 q 731 300 707 282 q 683 263 653 250 q 622 237 586 237 l 586 237 q 538 237 504 256 q 470 275 452 312 q 434 348 434 401 l 434 401 q 434 450 454 489 q 473 527 511 549 q 548 571 603 571 z m 408 -235 l 408 -235 q 305 -235 233 -215 q 161 -195 124 -151 q 86 -108 86 -40 l 86 -40 q 86 6 107 39 q 128 71 165 92 q 202 112 251 122 q 300 131 355 131 l 355 131 l 456 131 q 515 131 565 122 q 614 112 651 92 q 688 71 709 38 q 729 5 729 -41 l 729 -41 q 729 -103 695 -146 q 660 -190 589 -212 q 517 -235 408 -235 z m 409 -147 l 409 -147 q 487 -147 533 -134 q 578 -121 598 -96 q 618 -72 618 -37 l 618 -37 q 618 -3 602 18 q 585 39 557 52 q 528 64 493 70 q 457 75 417 75 l 417 75 l 399 75 q 343 75 297 65 q 251 54 224 30 q 197 6 197 -37 l 197 -37 q 197 -74 217 -98 q 237 -122 284 -134 q 331 -147 409 -147 z m 477 41 l 477 41 q 505 41 523 31 q 541 20 550 3 q 558 -15 562 -34 q 565 -54 565 -72 l 565 -72 l 565 -104 l 493 -104 l 493 -85 q 493 -63 489 -50 q 485 -37 468 -37 l 468 -37 q 452 -37 448 -50 q 443 -63 443 -83 l 443 -83 l 443 -104 l 371 -104 l 371 -84 q 371 -63 367 -50 q 362 -37 346 -37 l 346 -37 q 330 -37 326 -51 q 321 -65 321 -85 l 321 -85 l 321 -104 l 250 -104 l 250 -72 q 250 -55 253 -35 q 256 -15 265 2 q 274 19 292 30 q 309 41 338 41 l 338 41 q 364 41 380 32 q 395 22 407 6 l 407 6 q 421 24 438 33 q 455 41 477 41 z"},"ൡ":{"ha":1180,"x_min":37,"x_max":1157,"o":"m 325 571 l 325 571 q 397 571 443 547 q 489 522 527 474 l 527 474 l 540 397 l 565 239 l 565 0 l 451 0 l 451 299 q 451 365 442 398 q 433 430 415 449 l 415 449 q 401 464 380 473 q 359 481 325 481 l 325 481 q 271 481 230 454 q 189 426 165 373 q 141 320 141 244 l 141 244 l 141 229 q 141 170 151 137 q 161 103 178 89 q 194 75 215 75 l 215 75 q 233 75 245 85 q 257 94 264 114 q 270 133 270 163 l 270 163 q 270 210 255 232 q 240 253 208 253 l 208 253 q 179 253 153 236 q 127 219 101 185 l 101 185 l 84 264 q 107 292 148 315 q 188 338 236 338 l 236 338 q 282 338 314 318 q 346 298 363 261 q 380 223 380 170 l 380 170 q 380 110 361 70 q 341 29 306 9 q 270 -12 219 -12 l 219 -12 q 171 -12 130 13 q 88 38 63 94 q 37 149 37 242 l 37 242 q 37 352 75 425 q 113 498 178 535 q 243 571 325 571 z m 705 571 l 705 571 q 790 571 848 539 q 905 507 938 455 q 971 402 981 339 l 981 339 q 986 314 988 286 q 990 258 990 230 l 990 230 q 990 145 968 92 q 946 38 905 13 q 863 -12 802 -12 l 802 -12 q 743 -12 705 13 q 666 38 648 81 q 630 123 630 177 l 630 177 q 630 281 695 337 q 759 392 868 392 l 868 392 q 886 392 899 392 q 911 392 921 390 l 921 390 l 945 388 q 1010 376 1058 336 q 1106 296 1132 235 q 1157 174 1157 95 l 1157 95 q 1157 32 1142 -21 q 1126 -75 1092 -115 q 1058 -156 1004 -178 q 950 -201 874 -201 l 874 -201 q 836 -201 804 -195 q 772 -190 742 -180 l 742 -180 l 773 -94 q 798 -102 822 -106 q 845 -110 873 -110 l 873 -110 q 926 -110 960 -92 q 994 -74 1014 -44 q 1033 -15 1041 23 q 1049 60 1049 98 l 1049 98 q 1049 147 1039 184 q 1029 221 1010 248 q 991 274 962 291 l 962 291 l 927 298 q 915 303 900 305 q 885 307 872 307 l 872 307 q 829 307 800 292 q 770 276 756 248 q 741 219 741 177 l 741 177 q 741 147 748 125 q 755 102 769 90 q 783 77 806 77 l 806 77 q 844 77 863 111 q 882 145 882 232 l 882 232 q 882 265 878 297 q 873 328 864 356 l 864 356 l 860 374 q 847 407 825 431 q 803 455 773 468 q 743 481 704 481 l 704 481 q 678 481 656 475 q 633 469 612 452 l 612 452 q 597 440 587 421 q 576 402 571 370 q 565 338 565 284 l 565 284 l 565 210 l 492 464 q 515 497 544 521 q 573 545 613 558 q 652 571 705 571 z"},"ൢ":{"ha":0,"x_min":-746,"x_max":-29,"o":"m -539 24 l -539 24 q -492 24 -449 8 q -406 -8 -378 -51 l -378 -51 l -342 -159 l -342 -333 l -436 -333 l -436 -180 q -436 -142 -442 -115 q -448 -89 -465 -73 l -465 -73 q -477 -62 -495 -55 q -514 -49 -541 -49 l -541 -49 q -564 -49 -587 -56 q -611 -64 -629 -81 q -648 -98 -658 -130 l -658 -130 q -661 -142 -661 -153 q -662 -165 -662 -184 l -662 -184 q -662 -233 -647 -250 q -632 -268 -615 -268 l -615 -268 q -595 -268 -583 -254 q -571 -241 -571 -212 l -571 -212 q -571 -184 -582 -170 q -594 -157 -617 -157 l -617 -157 q -641 -157 -659 -170 q -678 -184 -698 -206 l -698 -206 l -718 -149 q -689 -122 -659 -105 q -629 -89 -598 -89 l -598 -89 q -542 -89 -515 -121 q -488 -154 -488 -210 l -488 -210 q -488 -269 -518 -303 q -549 -337 -612 -337 l -612 -337 q -674 -337 -710 -294 q -746 -252 -746 -175 l -746 -175 q -746 -111 -718 -67 q -690 -23 -642 1 q -595 24 -539 24 z m -235 23 l -235 23 q -177 23 -130 0 q -84 -24 -57 -68 q -30 -112 -30 -175 l -30 -175 q -30 -260 -66 -298 q -102 -337 -163 -337 l -163 -337 q -206 -337 -233 -319 q -261 -301 -274 -271 q -288 -241 -288 -205 l -288 -205 q -288 -163 -274 -134 q -261 -105 -235 -90 q -209 -75 -173 -75 l -173 -75 q -145 -75 -123 -88 q -101 -101 -83 -127 q -66 -153 -54 -191 l -54 -191 l -90 -195 q -102 -167 -117 -153 q -132 -140 -152 -140 l -152 -140 q -179 -140 -191 -157 q -204 -174 -204 -205 l -204 -205 q -204 -235 -193 -251 q -182 -267 -159 -267 l -159 -267 q -137 -267 -125 -244 q -114 -221 -114 -177 l -114 -177 q -114 -167 -114 -156 q -114 -146 -115 -138 l -115 -138 l -123 -113 q -132 -92 -150 -77 q -169 -63 -190 -56 q -212 -49 -234 -49 l -234 -49 q -260 -49 -278 -55 q -297 -61 -308 -71 l -308 -71 q -327 -87 -335 -112 q -343 -138 -342 -186 l -342 -186 l -421 -126 q -418 -71 -390 -38 q -362 -6 -320 9 q -278 23 -235 23 z"},"ൣ":{"ha":0,"x_min":-746,"x_max":82,"o":"m -539 24 l -539 24 q -492 24 -449 8 q -406 -8 -378 -51 l -378 -51 l -342 -159 l -342 -333 l -436 -333 l -436 -180 q -436 -142 -442 -115 q -448 -89 -465 -73 l -465 -73 q -477 -62 -495 -55 q -514 -49 -541 -49 l -541 -49 q -564 -49 -587 -56 q -611 -64 -629 -81 q -648 -98 -658 -130 l -658 -130 q -661 -142 -661 -153 q -662 -165 -662 -184 l -662 -184 q -662 -233 -647 -250 q -632 -268 -615 -268 l -615 -268 q -595 -268 -583 -254 q -571 -241 -571 -212 l -571 -212 q -571 -184 -582 -170 q -594 -157 -617 -157 l -617 -157 q -641 -157 -659 -170 q -678 -184 -698 -206 l -698 -206 l -718 -149 q -689 -122 -659 -105 q -629 -89 -598 -89 l -598 -89 q -542 -89 -515 -121 q -488 -154 -488 -210 l -488 -210 q -488 -269 -518 -303 q -549 -337 -612 -337 l -612 -337 q -674 -337 -710 -294 q -746 -252 -746 -175 l -746 -175 q -746 -111 -718 -67 q -690 -23 -642 1 q -595 24 -539 24 z m -235 23 l -235 23 q -179 23 -133 1 q -88 -21 -60 -64 q -33 -108 -33 -174 l -33 -174 q -33 -229 -48 -265 q -64 -302 -92 -319 q -121 -337 -161 -337 l -161 -337 q -208 -337 -235 -319 q -263 -302 -275 -273 q -288 -245 -288 -213 l -288 -213 q -288 -150 -247 -110 q -206 -70 -120 -70 l -120 -70 q -109 -70 -97 -71 q -86 -72 -73 -74 l -73 -74 q -33 -80 3 -100 q 38 -121 60 -158 q 81 -196 81 -254 l 81 -254 q 81 -287 75 -313 q 69 -339 59 -358 l 59 -358 l -19 -330 q -12 -315 -8 -296 q -4 -277 -4 -255 l -4 -255 q -4 -214 -17 -187 q -31 -160 -65 -145 l -65 -145 l -86 -141 q -95 -139 -104 -137 q -114 -136 -123 -136 l -123 -136 q -162 -136 -183 -157 q -204 -178 -204 -213 l -204 -213 q -204 -238 -193 -252 q -182 -267 -160 -267 l -160 -267 q -138 -267 -126 -243 q -115 -220 -115 -172 l -115 -172 q -115 -160 -116 -148 q -117 -137 -120 -125 l -120 -125 l -125 -107 q -135 -87 -152 -74 q -170 -62 -191 -55 q -212 -49 -234 -49 l -234 -49 q -260 -49 -278 -55 q -297 -61 -308 -71 l -308 -71 q -327 -87 -335 -112 q -343 -138 -342 -186 l -342 -186 l -420 -126 q -417 -85 -399 -56 q -382 -27 -355 -10 q -328 7 -296 15 q -265 23 -235 23 z"},"൦":{"ha":510,"x_min":37,"x_max":473,"o":"m 256 39 l 256 39 q 189 39 140 67 q 91 95 64 150 q 37 204 37 282 l 37 282 q 37 361 65 415 q 92 469 141 497 q 190 525 255 525 l 255 525 q 324 525 373 497 q 422 468 448 414 q 473 360 473 282 l 473 282 q 473 205 446 151 q 419 96 371 68 q 322 39 256 39 z m 256 128 l 256 128 q 285 128 308 144 q 331 160 345 195 q 359 229 359 283 l 359 283 q 359 363 329 400 q 299 436 255 436 l 255 436 q 212 436 182 400 q 151 364 151 281 l 151 281 q 151 201 181 165 q 211 128 256 128 z"},"൧":{"ha":803,"x_min":11,"x_max":749,"o":"m 345 -111 l 345 -201 l 240 -201 q 176 -201 136 -192 q 96 -184 71 -168 l 71 -168 q 42 -150 27 -122 q 11 -95 11 -59 l 11 -59 q 11 -22 26 8 q 41 37 72 57 l 72 57 q 87 67 108 74 q 128 81 158 85 q 187 88 230 88 l 230 88 l 384 88 l 414 0 l 236 0 q 197 0 180 -2 q 163 -4 152 -10 l 152 -10 q 138 -16 132 -27 q 125 -39 125 -54 l 125 -54 q 125 -81 147 -96 l 147 -96 q 159 -103 180 -107 q 201 -111 240 -111 l 240 -111 l 345 -111 z m 524 571 l 524 571 q 580 571 620 557 q 659 542 686 516 l 686 516 q 722 482 736 433 q 749 384 749 309 l 749 309 l 749 0 l 299 0 l 299 304 q 299 357 305 396 q 311 435 325 464 q 338 492 361 515 l 361 515 q 387 541 427 556 q 467 571 524 571 z m 524 482 l 524 482 q 496 482 477 474 q 458 465 445 451 l 445 451 q 428 431 421 399 q 413 366 413 303 l 413 303 l 413 88 l 635 88 l 635 297 q 635 364 628 398 q 620 431 603 451 l 603 451 q 590 465 570 474 q 550 482 524 482 z"},"൨":{"ha":755,"x_min":35,"x_max":738,"o":"m 304 571 l 304 571 q 374 571 424 549 q 473 526 505 488 q 537 449 552 400 q 566 350 566 295 l 566 295 q 566 237 554 191 q 541 145 520 107 q 498 69 470 33 l 470 33 l 487 88 l 738 88 l 738 0 l 416 0 l 367 61 q 389 86 408 118 q 427 149 439 190 q 450 231 450 284 l 450 284 q 450 345 432 389 q 414 433 382 457 q 349 480 305 480 l 305 480 q 258 480 224 457 q 190 433 172 389 q 153 345 153 286 l 153 286 q 153 234 164 193 q 174 152 195 118 q 215 83 243 52 l 243 52 l 162 -11 q 127 23 98 66 q 69 109 52 164 q 35 219 35 288 l 35 288 q 35 343 51 394 q 66 445 99 485 q 132 525 183 548 q 233 571 304 571 z"},"൩":{"ha":952,"x_min":36,"x_max":933,"o":"m 258 571 l 258 571 q 296 571 322 561 q 348 551 369 534 q 389 517 408 492 l 408 492 l 395 492 q 426 534 463 553 q 500 571 552 571 l 552 571 q 621 571 669 537 q 717 503 743 443 q 768 383 768 304 l 768 304 q 768 245 758 199 q 747 153 725 113 q 703 73 669 31 l 669 31 l 665 0 l 621 0 l 572 56 q 600 94 618 131 q 636 168 645 208 q 653 248 653 297 l 653 297 q 653 357 639 398 q 624 439 599 460 q 573 481 542 481 l 542 481 q 522 481 509 475 q 495 468 485 458 l 485 458 q 471 442 465 413 q 459 384 459 334 l 459 334 l 459 0 l 345 0 l 345 334 q 345 389 340 415 q 334 441 320 458 l 320 458 q 312 469 298 475 q 284 481 264 481 l 264 481 q 235 481 209 461 q 183 441 167 401 q 151 360 151 297 l 151 297 q 151 247 162 204 q 172 160 191 122 q 210 84 237 51 l 237 51 l 150 -11 q 117 30 91 76 q 65 122 51 178 q 36 233 36 300 l 36 300 q 36 380 62 441 q 87 502 137 537 q 187 571 258 571 z m 642 0 l 689 88 l 933 88 l 933 0 l 642 0 z"},"൪":{"ha":705,"x_min":36,"x_max":700,"o":"m 324 571 l 324 571 q 396 571 448 548 q 500 525 540 484 l 540 484 q 591 434 616 367 q 640 299 640 224 l 640 224 q 640 145 618 93 q 595 40 552 14 q 508 -12 443 -12 l 443 -12 q 382 -12 341 14 q 299 40 278 84 q 256 128 256 182 l 256 182 q 256 246 281 295 q 305 343 353 388 q 401 432 471 482 l 471 482 q 517 513 542 534 q 567 555 577 575 q 586 594 586 620 l 586 620 q 586 639 580 658 q 573 676 563 691 l 563 691 l 666 739 q 682 714 691 687 q 700 659 700 626 l 700 626 q 700 579 681 544 q 661 509 622 478 q 583 446 525 408 l 525 408 q 478 374 444 340 q 409 305 389 267 q 369 228 369 179 l 369 179 q 369 129 389 102 q 408 75 442 75 l 442 75 q 470 75 488 89 q 506 103 515 133 q 524 163 524 213 l 524 213 q 524 278 503 339 q 482 400 437 439 l 437 439 q 418 459 391 471 q 363 482 330 482 l 330 482 q 273 482 233 459 q 193 435 173 391 q 152 347 152 285 l 152 285 q 152 233 163 192 q 173 151 194 117 q 214 83 242 52 l 242 52 l 162 -11 q 127 23 98 67 q 69 110 53 165 q 36 219 36 288 l 36 288 q 36 345 53 396 q 70 447 105 486 q 140 525 195 548 q 249 571 324 571 z"},"൫":{"ha":898,"x_min":41,"x_max":857,"o":"m 456 727 l 456 727 q 557 727 632 695 q 707 662 757 603 q 807 543 832 462 q 857 381 857 284 l 857 284 q 857 212 843 137 q 829 62 798 -11 l 798 -11 l 698 26 q 715 66 725 108 q 735 150 740 194 q 745 237 745 280 l 745 280 q 745 358 728 423 q 710 488 675 536 q 639 583 585 610 q 530 636 457 636 l 457 636 q 365 636 297 592 q 229 548 191 464 q 153 379 153 258 l 153 258 q 153 186 166 124 q 179 62 207 15 q 235 -33 279 -59 q 323 -86 387 -86 l 387 -86 q 473 -86 513 -46 q 552 -6 552 65 l 552 65 q 552 104 541 136 q 530 168 505 187 q 480 205 439 205 l 439 205 l 429 205 l 429 292 l 440 292 q 470 292 488 297 q 506 301 518 311 l 518 311 q 531 321 538 336 q 544 351 544 375 l 544 375 q 544 412 525 432 q 505 452 467 452 l 467 452 q 428 452 402 429 q 376 405 364 364 q 351 322 351 268 l 351 268 q 351 208 367 149 q 382 90 413 37 l 413 37 l 313 -8 q 277 57 257 126 q 237 195 237 274 l 237 274 q 237 354 266 415 q 294 475 347 509 q 399 543 471 543 l 471 543 q 534 543 575 522 q 616 500 637 463 q 658 426 658 380 l 658 380 q 658 351 649 326 q 640 300 620 280 q 600 259 567 245 l 567 245 l 554 256 q 604 235 635 184 q 666 132 666 62 l 666 62 q 666 -16 633 -69 q 600 -123 539 -150 q 477 -177 391 -177 l 391 -177 q 282 -177 204 -127 q 126 -77 84 19 q 41 114 41 251 l 41 251 q 41 372 74 462 q 107 551 165 610 q 222 669 297 698 q 372 727 456 727 z"},"൬":{"ha":1076,"x_min":35,"x_max":1036,"o":"m 532 571 l 532 571 q 583 571 618 551 q 652 531 679 493 l 679 493 l 730 308 l 730 0 l 617 0 l 617 332 q 617 379 613 408 q 608 436 594 453 l 594 453 q 584 467 570 474 q 555 481 532 481 l 532 481 q 513 481 498 474 q 482 466 471 452 l 471 452 q 458 433 452 406 q 446 378 446 327 l 446 327 l 446 0 l 333 0 l 333 338 q 333 386 329 412 q 324 438 311 456 l 311 456 q 302 467 289 474 q 276 481 256 481 l 256 481 q 229 481 205 461 q 180 441 166 400 q 151 359 151 297 l 151 297 q 151 247 161 204 q 171 160 190 123 q 209 85 236 52 l 236 52 l 150 -10 q 116 31 90 77 q 64 123 50 178 q 35 233 35 300 l 35 300 q 35 379 60 440 q 85 501 133 536 q 181 571 249 571 l 249 571 q 302 571 336 551 q 369 531 397 493 l 397 493 l 382 489 q 412 532 449 552 q 486 571 532 571 z m 823 571 l 823 571 q 925 571 981 488 q 1036 405 1036 229 l 1036 229 q 1036 84 1004 -11 q 971 -106 901 -153 q 831 -201 714 -201 l 714 -201 q 693 -201 668 -199 q 642 -197 618 -193 l 618 -193 l 626 -103 q 643 -107 663 -108 q 683 -110 704 -110 l 704 -110 q 770 -110 813 -86 q 855 -62 879 -17 q 902 27 911 89 q 920 150 920 227 l 920 227 q 920 314 907 370 q 894 426 870 454 q 846 481 813 481 l 813 481 q 794 481 781 475 q 767 469 757 457 l 757 457 q 741 438 736 407 q 730 375 730 320 l 730 320 l 730 10 l 625 10 l 625 323 l 666 490 q 696 533 734 552 q 771 571 823 571 z"},"൭":{"ha":664,"x_min":37,"x_max":625,"o":"m 338 571 l 338 571 q 411 571 465 546 q 519 520 555 473 q 590 425 608 358 q 625 291 625 207 l 625 207 q 625 107 605 31 q 585 -46 545 -97 q 504 -149 443 -175 q 381 -201 298 -201 l 298 -201 q 271 -201 245 -199 q 219 -198 193 -193 l 193 -193 l 201 -102 q 219 -106 241 -108 q 263 -110 286 -110 l 286 -110 q 350 -110 393 -87 q 435 -65 461 -23 q 486 19 498 78 q 509 136 509 208 l 509 208 q 509 345 462 413 q 414 481 329 481 l 329 481 q 270 481 227 449 q 184 416 163 362 q 141 308 141 240 l 141 240 l 141 228 q 141 169 151 136 q 160 102 177 89 q 194 75 215 75 l 215 75 q 232 75 245 85 q 257 94 264 113 q 270 132 270 163 l 270 163 q 270 210 255 232 q 239 253 207 253 l 207 253 q 179 253 153 236 q 126 219 99 184 l 99 184 l 83 264 q 107 292 146 315 q 185 338 234 338 l 234 338 q 281 338 313 318 q 345 298 362 261 q 379 223 379 170 l 379 170 q 379 110 360 70 q 341 30 306 9 q 271 -12 220 -12 l 220 -12 q 171 -12 130 13 q 88 38 63 94 q 37 149 37 240 l 37 240 q 37 343 75 418 q 112 492 180 532 q 248 571 338 571 z"},"൮":{"ha":852,"x_min":35,"x_max":793,"o":"m 304 571 l 304 571 q 374 571 424 549 q 473 526 505 488 q 537 449 552 400 q 566 350 566 295 l 566 295 q 566 237 554 191 q 541 145 520 107 q 498 69 470 33 l 470 33 l 487 88 l 679 88 l 679 559 l 793 559 l 793 161 l 725 0 l 416 0 l 367 61 q 389 86 408 118 q 427 149 439 190 q 450 231 450 284 l 450 284 q 450 345 432 389 q 414 433 382 457 q 349 480 305 480 l 305 480 q 258 480 224 457 q 190 433 172 389 q 153 345 153 286 l 153 286 q 153 234 164 193 q 174 152 195 118 q 215 83 243 52 l 243 52 l 162 -11 q 127 23 98 66 q 69 109 52 164 q 35 219 35 288 l 35 288 q 35 343 51 394 q 66 445 99 485 q 132 525 183 548 q 233 571 304 571 z m 505 -201 l 505 -201 q 477 -201 450 -198 q 423 -196 400 -190 l 400 -190 l 412 -100 q 428 -104 451 -107 q 473 -110 493 -110 l 493 -110 q 549 -110 585 -97 q 620 -85 640 -62 q 660 -40 669 -10 q 677 20 678 56 l 678 56 l 793 233 l 793 120 q 793 50 786 1 q 778 -48 762 -81 q 745 -114 715 -140 l 715 -140 q 683 -168 631 -184 q 578 -201 505 -201 z"},"൯":{"ha":991,"x_min":36,"x_max":985,"o":"m 259 571 l 259 571 q 297 571 325 562 q 353 552 376 533 q 399 514 422 487 l 422 487 l 459 242 l 459 0 l 345 0 l 345 335 q 345 389 340 415 q 334 441 320 458 l 320 458 q 312 469 298 475 q 284 481 264 481 l 264 481 q 235 481 209 461 q 183 441 167 400 q 151 359 151 297 l 151 297 q 151 247 162 204 q 172 160 191 122 q 210 84 237 51 l 237 51 l 150 -11 q 117 30 91 76 q 65 122 51 178 q 36 233 36 300 l 36 300 q 36 379 62 440 q 87 501 137 536 q 187 571 259 571 z m 601 571 l 601 571 q 675 571 730 548 q 784 525 825 482 l 825 482 q 875 432 901 365 q 926 298 926 224 l 926 224 q 926 145 904 93 q 881 40 838 14 q 794 -12 729 -12 l 729 -12 q 668 -12 626 14 q 584 40 563 84 q 541 128 541 182 l 541 182 q 541 246 566 295 q 591 343 639 388 q 686 432 756 482 l 756 482 q 803 513 828 534 q 852 555 862 575 q 871 594 871 620 l 871 620 q 871 639 865 658 q 858 676 848 691 l 848 691 l 951 739 q 967 714 976 687 q 985 659 985 626 l 985 626 q 985 579 966 544 q 946 509 908 478 q 869 446 811 408 l 811 408 q 764 374 729 340 q 694 305 675 267 q 655 228 655 179 l 655 179 q 655 129 674 102 q 693 75 728 75 l 728 75 q 756 75 774 89 q 791 103 800 133 q 809 163 809 213 l 809 213 q 809 279 788 339 q 766 398 721 438 l 721 438 q 701 458 671 470 q 641 482 602 482 l 602 482 q 572 482 548 475 q 524 468 505 451 l 505 451 q 490 436 479 416 q 468 396 464 365 q 459 334 459 287 l 459 287 l 459 36 l 354 36 l 354 302 l 385 460 q 408 493 437 518 q 465 542 505 557 q 544 571 601 571 z"},"൰":{"ha":922,"x_min":-26,"x_max":886,"o":"m 176 559 l 289 559 l 289 151 l 287 109 q 287 27 276 -27 q 265 -81 238 -120 l 238 -120 q 212 -158 166 -179 q 120 -201 55 -201 l 55 -201 q 34 -201 14 -199 q -7 -197 -26 -192 l -26 -192 l -17 -103 q -5 -106 10 -108 q 24 -110 40 -110 l 40 -110 q 79 -110 103 -98 q 127 -87 143 -70 l 143 -70 q 163 -45 170 -6 q 176 33 176 95 l 176 95 l 176 559 z m 670 -12 l 670 -12 q 620 -12 583 7 q 546 25 515 67 l 515 67 l 531 71 q 499 28 464 8 q 429 -12 382 -12 l 382 -12 q 345 -12 318 -1 q 291 9 271 30 q 251 50 234 80 l 234 80 l 199 258 l 200 555 l 289 544 l 289 229 q 289 177 294 150 q 299 123 313 105 l 313 105 q 322 92 338 85 q 354 78 378 78 l 378 78 q 400 78 416 86 q 431 93 441 106 l 441 106 q 456 126 461 154 q 466 181 466 235 l 466 235 l 466 559 l 580 559 l 580 237 q 580 178 585 149 q 589 119 604 102 l 604 102 q 616 89 631 84 q 646 78 660 78 l 660 78 q 692 78 717 100 q 742 122 757 163 q 771 204 771 262 l 771 262 q 771 312 761 356 q 750 399 731 437 q 712 475 685 507 l 685 507 l 772 569 q 807 529 833 483 q 858 436 872 380 q 886 324 886 255 l 886 255 q 886 179 862 118 q 837 57 789 23 q 741 -12 670 -12 z"},"൱":{"ha":809,"x_min":36,"x_max":769,"o":"m 259 571 l 259 571 q 297 571 323 561 q 349 551 371 533 q 392 515 414 489 l 414 489 l 459 242 l 459 0 l 345 0 l 345 335 q 345 389 340 415 q 334 441 320 458 l 320 458 q 312 469 298 475 q 284 481 264 481 l 264 481 q 235 481 209 461 q 183 441 167 401 q 151 360 151 297 l 151 297 q 151 247 162 204 q 172 160 191 122 q 210 84 237 51 l 237 51 l 150 -11 q 117 30 91 76 q 65 122 51 178 q 36 233 36 300 l 36 300 q 36 380 62 441 q 87 502 137 537 q 187 571 259 571 z m 552 571 l 552 571 q 621 571 670 535 q 718 499 744 423 q 769 347 769 229 l 769 229 q 769 84 737 -11 q 704 -107 634 -154 q 563 -201 447 -201 l 447 -201 q 424 -201 398 -199 q 372 -197 346 -193 l 346 -193 l 354 -103 q 372 -106 393 -108 q 414 -110 438 -110 l 438 -110 q 504 -110 546 -86 q 588 -62 612 -17 q 635 27 644 89 q 653 151 653 227 l 653 227 q 653 315 640 371 q 627 427 603 454 q 578 481 544 481 l 544 481 q 525 481 511 476 q 497 470 486 457 l 486 457 q 470 440 465 410 q 459 379 459 322 l 459 322 l 459 10 l 354 10 l 354 313 l 395 490 q 426 532 463 552 q 500 571 552 571 z"},"൲":{"ha":1253,"x_min":36,"x_max":1234,"o":"m 1079 559 l 1079 559 q 1134 559 1168 538 q 1202 517 1218 484 q 1234 450 1234 411 l 1234 411 q 1234 371 1220 340 q 1205 309 1179 289 l 1179 289 q 1161 275 1139 266 q 1116 257 1085 254 q 1054 250 1010 250 l 1010 250 l 842 250 l 845 338 l 1021 338 q 1056 338 1075 343 q 1093 347 1103 355 l 1103 355 q 1117 364 1123 377 q 1129 390 1129 413 l 1129 413 q 1129 440 1116 456 q 1103 472 1078 472 l 1078 472 q 1051 472 1037 453 q 1023 434 1023 401 l 1023 401 q 1023 366 1034 342 q 1044 317 1060 295 l 1060 295 l 959 290 q 944 312 933 345 q 921 377 921 412 l 921 412 q 921 460 942 493 q 962 525 998 542 q 1034 559 1079 559 z m 260 571 l 260 571 q 297 571 324 562 q 351 552 373 534 q 395 516 419 488 l 419 488 l 459 235 l 459 0 l 346 0 l 346 335 q 346 389 341 415 q 335 441 321 458 l 321 458 q 312 469 299 475 q 285 481 265 481 l 265 481 q 235 481 210 461 q 184 441 168 401 q 152 360 152 297 l 152 297 q 152 247 163 204 q 173 160 192 122 q 211 84 237 51 l 237 51 l 151 -11 q 117 30 92 76 q 66 122 51 178 q 36 233 36 300 l 36 300 q 36 380 62 441 q 88 502 138 537 q 188 571 260 571 z m 592 571 l 592 571 q 654 571 707 549 q 759 526 798 484 q 836 441 857 378 q 878 314 878 232 l 878 232 q 878 143 854 89 q 830 35 788 12 q 745 -12 686 -12 l 686 -12 q 625 -12 588 12 q 550 36 534 73 q 517 109 517 151 l 517 151 q 517 203 536 239 q 554 275 587 297 l 587 297 q 608 312 634 321 q 660 330 696 334 q 732 338 782 338 l 782 338 l 988 338 l 988 250 l 787 250 q 734 250 707 244 q 679 238 659 224 l 659 224 q 644 213 636 195 q 627 177 627 151 l 627 151 q 627 120 643 99 q 658 78 690 78 l 690 78 q 714 78 731 94 q 748 110 757 144 q 766 177 766 232 l 766 232 q 766 248 765 264 q 764 279 763 292 l 763 292 l 757 322 q 751 361 733 398 q 714 434 680 458 q 646 481 594 481 l 594 481 q 570 481 548 475 q 525 468 505 451 l 505 451 q 488 438 479 419 q 469 399 464 368 q 459 337 459 291 l 459 291 l 459 210 l 393 223 l 385 466 q 406 496 434 520 q 462 544 500 558 q 538 571 592 571 z"},"൳":{"ha":661,"x_min":36,"x_max":639,"o":"m 217 -12 l 217 -12 q 164 -12 124 14 q 83 40 60 92 q 36 143 36 220 l 36 220 q 36 301 62 361 q 88 420 139 457 l 139 457 q 173 482 214 497 q 254 511 308 518 q 361 525 433 525 l 433 525 l 639 525 l 639 432 l 444 432 q 378 432 333 428 q 287 423 257 413 q 227 402 203 385 l 203 385 q 177 365 163 338 q 149 311 143 280 l 143 280 l 143 255 q 141 247 141 237 q 140 227 140 212 l 140 212 q 140 162 150 132 q 159 102 176 89 q 192 75 213 75 l 213 75 q 231 75 244 84 q 256 93 263 113 q 269 132 269 163 l 269 163 q 269 210 254 232 q 239 253 207 253 l 207 253 q 178 253 152 236 q 126 219 99 184 l 99 184 l 81 262 q 104 290 144 314 q 184 338 234 338 l 234 338 q 281 338 313 318 q 345 298 362 261 q 379 223 379 169 l 379 169 q 379 110 360 70 q 341 29 306 9 q 270 -12 217 -12 z"},"൴":{"ha":831,"x_min":36,"x_max":795,"o":"m 424 790 l 537 790 l 537 205 q 537 175 540 154 q 542 132 547 118 q 551 103 560 93 l 560 93 q 568 84 579 80 q 590 76 606 76 l 606 76 q 630 76 647 91 q 663 105 672 136 q 680 166 680 215 l 680 215 q 680 266 669 311 q 657 355 634 390 q 610 425 574 449 q 537 472 488 481 l 488 481 l 461 479 q 450 480 438 481 q 426 482 413 482 l 413 482 q 352 482 302 466 q 252 450 216 419 q 179 387 160 343 q 141 298 141 241 l 141 241 l 141 223 q 141 167 150 135 q 159 102 177 89 q 194 75 215 75 l 215 75 q 232 75 244 84 q 256 93 263 113 q 269 132 269 163 l 269 163 q 269 211 254 232 q 239 253 207 253 l 207 253 q 178 253 152 236 q 126 219 99 184 l 99 184 l 81 262 q 104 290 144 314 q 184 338 234 338 l 234 338 q 281 338 313 318 q 345 298 362 261 q 379 223 379 169 l 379 169 q 379 110 360 70 q 341 30 306 9 q 270 -12 219 -12 l 219 -12 q 170 -12 129 13 q 87 37 62 91 q 36 144 36 230 l 36 230 q 36 310 62 374 q 88 437 138 481 q 188 525 257 548 q 326 571 413 571 l 413 571 q 430 571 445 571 q 459 571 474 569 l 474 569 l 507 566 q 569 558 622 532 q 674 505 713 460 q 752 415 774 355 q 795 294 795 218 l 795 218 q 795 148 774 96 q 752 44 710 16 q 668 -12 606 -12 l 606 -12 q 563 -12 532 0 q 500 12 478 34 l 478 34 q 458 54 446 81 q 434 107 429 144 q 424 181 424 233 l 424 233 l 424 790 z"},"൵":{"ha":1096,"x_min":37,"x_max":1091,"o":"m 325 571 l 325 571 q 397 571 444 547 q 491 522 527 472 l 527 472 l 544 399 l 565 239 l 565 0 l 451 0 l 451 299 q 451 365 442 398 q 433 430 415 449 l 415 449 q 401 464 380 473 q 359 481 325 481 l 325 481 q 271 481 230 454 q 189 426 165 373 q 141 320 141 244 l 141 244 l 141 229 q 141 170 151 137 q 161 103 178 89 q 194 75 215 75 l 215 75 q 233 75 245 85 q 257 94 264 113 q 270 132 270 163 l 270 163 q 270 210 255 232 q 240 253 208 253 l 208 253 q 179 253 153 236 q 127 219 101 185 l 101 185 l 84 264 q 107 292 148 315 q 188 338 236 338 l 236 338 q 282 338 314 318 q 346 298 363 261 q 380 223 380 170 l 380 170 q 380 110 361 70 q 341 29 306 9 q 270 -12 219 -12 l 219 -12 q 171 -12 130 13 q 88 38 63 94 q 37 149 37 242 l 37 242 q 37 352 75 425 q 113 498 178 535 q 243 571 325 571 z m 707 571 l 707 571 q 781 571 836 548 q 890 525 931 482 l 931 482 q 981 432 1007 365 q 1032 298 1032 224 l 1032 224 q 1032 145 1010 93 q 987 40 944 14 q 900 -12 835 -12 l 835 -12 q 773 -12 732 14 q 690 40 669 84 q 647 128 647 182 l 647 182 q 647 246 672 295 q 697 343 745 388 q 793 432 862 482 l 862 482 q 909 513 934 534 q 958 555 968 575 q 977 594 977 620 l 977 620 q 977 639 971 658 q 964 676 954 691 l 954 691 l 1057 739 q 1073 714 1082 687 q 1091 659 1091 626 l 1091 626 q 1091 579 1072 544 q 1052 509 1014 478 q 975 446 917 408 l 917 408 q 870 374 835 340 q 800 305 781 267 q 761 228 761 179 l 761 179 q 761 129 780 102 q 799 75 834 75 l 834 75 q 862 75 880 89 q 897 103 906 133 q 915 163 915 213 l 915 213 q 915 279 894 339 q 872 398 827 438 l 827 438 q 807 458 777 470 q 747 482 708 482 l 708 482 q 678 482 654 475 q 630 468 611 451 l 611 451 q 595 436 585 416 q 574 396 570 365 q 565 334 565 287 l 565 287 l 565 36 l 460 36 l 460 302 l 491 460 q 514 493 543 518 q 571 542 611 557 q 650 571 707 571 z"},"൶":{"ha":1206,"x_min":29,"x_max":1154,"o":"m 216 356 l 216 356 q 281 356 322 330 q 362 304 382 264 q 401 223 401 178 l 401 178 q 401 140 389 111 q 377 82 367 65 l 367 65 l 354 88 l 640 88 l 649 0 l 298 0 l 258 57 q 269 76 280 103 q 290 130 290 168 l 290 168 q 290 212 272 240 q 254 268 217 268 l 217 268 q 192 268 176 256 q 159 243 151 221 q 142 199 142 172 l 142 172 q 142 126 156 97 q 170 67 187 40 l 187 40 l 99 -10 q 68 30 49 74 q 29 118 29 174 l 29 174 q 29 230 53 270 q 76 310 118 333 q 160 356 216 356 z m 868 571 l 868 571 q 945 571 998 552 q 1050 533 1084 499 l 1084 499 q 1109 474 1125 442 q 1140 410 1147 367 q 1154 324 1154 267 l 1154 267 l 1154 0 l 594 0 l 594 269 q 594 326 602 369 q 609 411 625 443 q 640 475 664 499 l 664 499 q 698 533 746 552 q 794 571 868 571 z m 806 480 l 806 480 q 782 480 762 464 q 742 448 729 419 l 729 419 q 718 396 713 363 q 707 330 707 279 l 707 279 l 707 65 l 691 67 q 739 117 777 173 q 815 228 837 286 q 858 344 858 399 l 858 399 q 858 424 854 442 q 849 460 838 470 q 826 480 806 480 z m 971 377 l 971 377 q 971 324 954 274 q 936 224 905 175 q 874 125 831 73 l 831 73 l 813 84 q 833 86 861 87 q 888 88 900 88 l 900 88 l 1042 88 l 1042 276 q 1042 339 1031 380 q 1019 421 995 447 q 970 473 931 487 l 931 487 l 932 490 q 948 472 960 444 q 971 415 971 377 z"},"൷":{"ha":1549,"x_min":29,"x_max":1529,"o":"m 216 356 l 216 356 q 281 356 322 330 q 362 304 382 264 q 401 223 401 178 l 401 178 q 401 140 389 111 q 377 82 367 65 l 367 65 l 353 88 l 590 88 l 641 0 l 298 0 l 258 57 q 270 76 280 103 q 290 130 290 167 l 290 167 q 290 212 272 240 q 254 268 217 268 l 217 268 q 192 268 176 256 q 159 243 151 221 q 142 199 142 172 l 142 172 q 142 126 156 97 q 170 67 187 40 l 187 40 l 99 -10 q 68 30 49 74 q 29 118 29 175 l 29 175 q 29 230 53 270 q 76 310 118 333 q 160 356 216 356 z m 715 571 l 715 571 q 753 571 780 562 q 806 552 829 534 q 851 516 875 488 l 875 488 l 915 275 l 915 230 l 802 230 l 802 335 q 802 389 796 415 q 790 441 777 458 l 777 458 q 768 469 755 475 q 741 481 720 481 l 720 481 q 691 481 666 462 q 640 442 624 402 q 608 362 608 301 l 608 301 q 608 229 628 170 q 648 111 686 57 l 686 57 l 639 0 l 578 0 l 558 70 q 538 103 523 138 q 508 173 500 215 q 492 256 492 305 l 492 305 q 492 382 518 442 q 544 502 594 537 q 644 571 715 571 z m 1060 571 l 1060 571 q 1123 571 1176 549 q 1229 526 1268 483 q 1307 440 1329 377 q 1351 314 1351 232 l 1351 232 q 1351 142 1327 89 q 1303 35 1261 12 q 1218 -12 1159 -12 l 1159 -12 q 1098 -12 1060 12 q 1022 36 1006 73 q 989 109 989 151 l 989 151 q 989 203 1008 239 q 1027 275 1060 297 l 1060 297 q 1081 312 1107 321 q 1133 330 1169 334 q 1204 338 1252 338 l 1252 338 l 1322 338 l 1322 250 l 1259 250 q 1207 250 1179 244 q 1151 238 1132 224 l 1132 224 q 1117 213 1109 195 q 1100 177 1100 151 l 1100 151 q 1100 120 1115 99 q 1130 78 1162 78 l 1162 78 q 1186 78 1203 94 q 1220 110 1229 144 q 1237 177 1237 232 l 1237 232 q 1237 248 1237 264 q 1236 279 1235 292 l 1235 292 l 1229 322 q 1224 361 1205 398 q 1185 434 1150 458 q 1114 481 1058 481 l 1058 481 q 1026 481 1004 475 q 982 469 961 451 l 961 451 q 946 438 936 419 q 925 399 920 368 q 915 337 915 291 l 915 291 l 915 244 l 848 240 l 843 469 q 865 499 894 522 q 922 545 963 558 q 1004 571 1060 571 z m 1409 447 l 1519 469 q 1524 456 1527 438 q 1529 419 1529 400 l 1529 400 q 1529 363 1516 336 q 1503 308 1478 289 l 1478 289 q 1450 268 1413 259 q 1375 250 1310 250 l 1310 250 l 1305 250 l 1305 338 l 1304 338 q 1334 338 1354 341 q 1374 344 1387 352 l 1387 352 q 1401 360 1408 375 q 1415 389 1415 410 l 1415 410 q 1415 418 1413 429 q 1411 440 1409 447 l 1409 447 z"},"൸":{"ha":1930,"x_min":9,"x_max":1879,"o":"m 1237 571 l 1237 571 q 1263 571 1285 566 q 1307 561 1327 549 q 1347 537 1365 519 q 1383 501 1398 474 l 1398 474 l 1367 467 q 1391 503 1424 526 q 1456 548 1498 560 q 1540 571 1592 571 l 1592 571 q 1669 571 1722 552 q 1774 533 1808 499 l 1808 499 q 1833 474 1849 442 q 1865 410 1872 367 q 1879 324 1879 267 l 1879 267 l 1879 0 l 1431 0 l 1431 83 q 1474 129 1508 182 q 1542 235 1563 290 q 1583 345 1583 399 l 1583 399 q 1583 424 1578 442 q 1573 460 1562 470 q 1550 480 1529 480 l 1529 480 q 1506 480 1486 465 q 1466 449 1453 420 l 1453 420 q 1442 395 1438 361 q 1434 327 1434 273 l 1434 273 l 1434 230 l 1321 230 l 1321 331 q 1321 375 1317 404 q 1313 432 1302 450 l 1302 450 q 1293 465 1278 473 q 1262 481 1240 481 l 1240 481 q 1219 481 1204 474 q 1189 466 1181 452 l 1181 452 q 1168 434 1164 407 q 1160 379 1160 334 l 1160 334 l 1160 224 q 1160 181 1155 147 q 1149 112 1137 86 q 1125 59 1106 39 l 1106 39 q 1084 16 1050 2 q 1016 -12 966 -12 l 966 -12 q 916 -12 882 2 q 847 16 824 39 l 824 39 q 806 60 794 87 q 782 113 777 147 q 771 181 771 223 l 771 223 l 771 334 q 771 378 767 405 q 762 432 751 450 l 751 450 q 743 465 728 473 q 712 481 690 481 l 690 481 q 669 481 654 474 q 639 466 630 452 l 630 452 q 618 434 614 407 q 610 379 610 334 l 610 334 l 610 222 q 610 151 597 111 q 584 70 557 41 l 557 41 q 533 15 500 2 q 466 -12 420 -12 l 420 -12 q 362 -12 327 10 q 292 32 266 68 l 266 68 l 280 68 q 259 41 235 23 q 211 5 184 -3 q 157 -12 124 -12 l 124 -12 q 88 -12 61 -5 q 34 2 9 16 l 9 16 l 44 100 q 62 91 83 85 q 103 78 127 78 l 127 78 q 144 78 161 84 q 178 89 189 102 l 189 102 q 205 120 210 150 q 215 179 215 237 l 215 237 l 215 555 l 328 559 l 328 228 q 328 178 334 151 q 339 123 352 105 l 352 105 q 361 93 377 86 q 393 78 412 78 l 412 78 q 434 78 450 86 q 466 93 475 108 l 475 108 q 487 126 491 152 q 495 178 495 226 l 495 226 l 495 333 q 495 378 501 413 q 507 447 519 474 q 530 500 549 520 l 549 520 q 571 543 605 557 q 639 571 689 571 l 689 571 q 738 571 773 558 q 808 544 831 520 l 831 520 q 850 501 862 475 q 873 448 879 414 q 885 380 885 336 l 885 336 l 885 228 q 885 184 889 156 q 893 128 904 109 l 904 109 q 912 94 928 86 q 943 78 965 78 l 965 78 q 986 78 1002 86 q 1017 93 1025 107 l 1025 107 q 1037 126 1042 153 q 1046 180 1046 226 l 1046 226 l 1046 333 q 1046 378 1052 413 q 1057 447 1069 474 q 1081 500 1099 520 l 1099 520 q 1121 543 1156 557 q 1190 571 1237 571 z m 1695 377 l 1695 377 q 1695 324 1678 274 q 1661 224 1630 175 q 1598 125 1555 73 l 1555 73 l 1537 84 q 1558 86 1585 87 q 1612 88 1624 88 l 1624 88 l 1766 88 l 1766 276 q 1766 339 1755 380 q 1743 421 1719 447 q 1695 473 1655 487 l 1655 487 l 1657 490 q 1672 472 1684 444 q 1695 415 1695 377 z"},"൹":{"ha":1009,"x_min":36,"x_max":987,"o":"m 259 571 l 259 571 q 296 571 323 562 q 350 552 372 534 q 394 516 418 488 l 418 488 l 459 235 l 459 0 l 345 0 l 345 335 q 345 389 340 415 q 334 441 320 458 l 320 458 q 312 469 298 475 q 284 481 264 481 l 264 481 q 235 481 209 461 q 183 441 167 401 q 151 360 151 297 l 151 297 q 151 247 162 204 q 172 160 191 122 q 210 84 237 51 l 237 51 l 150 -11 q 117 30 91 76 q 65 122 51 178 q 36 233 36 300 l 36 300 q 36 380 62 441 q 87 502 137 537 q 187 571 259 571 z m 591 571 l 591 571 q 654 571 706 549 q 758 526 797 484 q 835 441 856 378 q 877 314 877 232 l 877 232 q 877 143 854 89 q 830 35 787 12 q 744 -12 686 -12 l 686 -12 q 624 -12 587 12 q 549 36 533 73 q 516 109 516 151 l 516 151 q 516 203 535 239 q 553 275 586 297 l 586 297 q 607 312 633 321 q 659 330 695 334 q 731 338 781 338 l 781 338 l 987 338 l 987 250 l 786 250 q 733 250 706 244 q 678 238 658 224 l 658 224 q 643 213 635 195 q 627 177 627 151 l 627 151 q 627 120 642 99 q 657 78 689 78 l 689 78 q 713 78 730 94 q 747 110 756 144 q 765 177 765 232 l 765 232 q 765 248 765 264 q 764 279 762 292 l 762 292 l 756 322 q 751 361 732 398 q 713 434 679 458 q 645 481 593 481 l 593 481 q 569 481 547 475 q 524 468 504 451 l 504 451 q 488 438 478 419 q 468 399 464 368 q 459 337 459 291 l 459 291 l 459 210 l 392 223 l 384 466 q 406 496 434 520 q 461 544 500 558 q 538 571 591 571 z"},"ൺ":{"ha":1348,"x_min":37,"x_max":1312,"o":"m 325 571 l 325 571 q 397 571 444 547 q 490 522 527 473 l 527 473 l 496 484 q 525 529 565 550 q 605 571 656 571 l 656 571 q 714 571 752 547 q 789 522 817 478 l 817 478 l 816 448 l 855 323 l 855 0 l 741 0 l 741 329 q 741 382 737 409 q 732 436 718 454 l 718 454 q 708 467 693 474 q 677 481 653 481 l 653 481 q 631 481 616 474 q 601 466 589 453 l 589 453 q 574 433 569 406 q 564 379 564 324 l 564 324 l 564 0 l 451 0 l 451 299 q 451 365 442 398 q 433 430 415 449 l 415 449 q 401 464 380 473 q 359 481 325 481 l 325 481 q 271 481 230 454 q 189 426 165 373 q 141 320 141 244 l 141 244 l 141 229 q 141 170 151 137 q 161 103 178 89 q 194 75 215 75 l 215 75 q 233 75 245 85 q 257 94 264 113 q 270 132 270 163 l 270 163 q 270 210 255 232 q 240 253 208 253 l 208 253 q 179 253 153 236 q 127 219 101 185 l 101 185 l 84 264 q 107 292 148 315 q 188 338 236 338 l 236 338 q 282 338 314 318 q 346 298 363 261 q 380 223 380 170 l 380 170 q 380 110 361 70 q 341 29 306 9 q 270 -12 219 -12 l 219 -12 q 171 -12 130 13 q 88 38 63 94 q 37 149 37 242 l 37 242 q 37 352 75 425 q 113 498 178 535 q 243 571 325 571 z m 1125 -12 l 1125 -12 q 1065 -12 1024 15 q 982 41 961 92 q 940 142 940 215 l 940 215 q 940 267 953 315 q 966 363 994 410 q 1022 456 1066 501 l 1066 501 l 1079 528 q 1111 564 1130 593 q 1148 621 1148 648 l 1148 648 q 1148 674 1134 690 q 1119 706 1087 706 l 1087 706 q 1073 706 1058 704 q 1042 701 1032 697 l 1032 697 l 1011 783 q 1031 789 1061 793 q 1090 797 1120 797 l 1120 797 q 1177 797 1207 777 q 1237 756 1249 727 q 1261 698 1261 669 l 1261 669 q 1261 621 1237 575 q 1213 529 1168 480 l 1168 480 l 1152 462 q 1119 426 1097 385 q 1075 344 1065 301 q 1054 257 1054 212 l 1054 212 q 1054 164 1063 134 q 1071 104 1087 90 q 1103 76 1125 76 l 1125 76 q 1161 76 1179 106 q 1196 136 1196 214 l 1196 214 q 1196 258 1187 305 q 1177 352 1157 392 q 1136 431 1102 454 l 1102 454 q 1083 467 1061 476 q 1039 484 1003 484 l 1003 484 q 973 484 948 477 q 923 469 902 452 l 902 452 q 887 438 877 418 q 866 398 861 368 q 855 337 855 291 l 855 291 l 855 70 l 749 70 l 749 264 l 782 461 q 805 493 833 518 q 861 543 903 557 q 944 571 1002 571 l 1002 571 q 1043 571 1078 563 q 1112 555 1141 540 l 1141 540 q 1145 539 1148 537 q 1151 535 1154 533 l 1154 533 q 1207 503 1242 455 q 1277 407 1295 347 q 1312 287 1312 222 l 1312 222 q 1312 105 1264 47 q 1216 -12 1125 -12 z"},"ൻ":{"ha":952,"x_min":36,"x_max":917,"o":"m 258 571 l 258 571 q 296 571 323 562 q 350 552 373 534 q 395 515 417 490 l 417 490 l 459 256 l 459 0 l 345 0 l 345 335 q 345 389 340 415 q 334 441 320 458 l 320 458 q 312 469 298 475 q 284 481 264 481 l 264 481 q 235 481 209 461 q 183 441 167 401 q 151 360 151 297 l 151 297 q 151 247 162 204 q 172 160 191 122 q 210 84 237 51 l 237 51 l 150 -11 q 117 30 91 76 q 65 122 51 178 q 36 233 36 300 l 36 300 q 36 380 62 441 q 87 502 137 537 q 187 571 258 571 z m 729 -12 l 729 -12 q 669 -12 628 15 q 587 41 566 92 q 544 142 544 215 l 544 215 q 544 267 557 315 q 570 363 598 410 q 626 456 670 501 l 670 501 l 683 528 q 715 564 734 593 q 752 621 752 648 l 752 648 q 752 674 738 690 q 723 706 691 706 l 691 706 q 677 706 663 704 q 648 701 636 697 l 636 697 l 615 783 q 635 789 665 793 q 694 797 724 797 l 724 797 q 781 797 811 777 q 841 756 853 727 q 865 698 865 669 l 865 669 q 865 621 841 575 q 817 529 772 480 l 772 480 l 756 462 q 723 426 701 385 q 679 344 669 301 q 658 257 658 212 l 658 212 q 658 164 667 134 q 675 104 691 90 q 707 76 729 76 l 729 76 q 765 76 783 106 q 800 136 800 214 l 800 214 q 800 258 791 305 q 781 352 761 392 q 740 431 706 454 l 706 454 q 687 467 665 476 q 643 484 607 484 l 607 484 q 577 484 552 477 q 527 469 506 452 l 506 452 q 491 438 481 418 q 470 398 465 368 q 459 337 459 291 l 459 291 l 459 70 l 353 70 l 353 264 l 386 461 q 409 493 438 518 q 466 543 507 557 q 548 571 606 571 l 606 571 q 647 571 682 563 q 716 555 745 540 l 745 540 q 749 539 752 537 q 755 535 758 533 l 758 533 q 811 503 846 455 q 881 407 899 347 q 917 287 917 222 l 917 222 q 917 105 869 47 q 820 -12 729 -12 z"},"ർ":{"ha":667,"x_min":36,"x_max":631,"o":"m 444 -12 l 444 -12 q 384 -12 343 15 q 301 41 280 92 q 259 142 259 215 l 259 215 q 259 267 272 315 q 285 363 313 410 q 341 456 385 501 l 385 501 l 398 528 q 431 564 449 593 q 467 621 467 648 l 467 648 q 467 674 453 690 q 438 706 406 706 l 406 706 q 393 706 377 704 q 361 701 350 697 l 350 697 l 330 783 q 349 789 379 793 q 409 797 439 797 l 439 797 q 496 797 526 777 q 556 756 568 727 q 580 698 580 669 l 580 669 q 580 621 556 575 q 532 529 487 480 l 487 480 l 471 462 q 438 426 416 385 q 394 344 384 301 q 373 257 373 212 l 373 212 q 373 164 382 134 q 390 104 406 90 q 422 76 444 76 l 444 76 q 479 76 497 106 q 515 136 515 214 l 515 214 q 515 247 510 282 q 504 317 493 350 q 482 383 464 411 q 446 438 421 455 l 421 455 q 402 468 382 476 q 361 484 324 484 l 324 484 q 268 484 230 459 q 191 434 172 390 q 152 345 152 285 l 152 285 q 152 233 163 192 q 173 151 193 117 q 213 83 242 52 l 242 52 l 162 -11 q 126 23 98 66 q 69 108 53 163 q 36 218 36 288 l 36 288 q 36 345 53 396 q 70 447 105 487 q 140 526 194 549 q 248 571 322 571 l 322 571 q 363 571 397 564 q 431 556 460 541 l 460 541 q 463 540 467 538 q 470 536 473 533 l 473 533 q 526 504 561 456 q 596 407 614 347 q 631 286 631 221 l 631 221 q 631 105 583 47 q 535 -12 444 -12 z"},"ൽ":{"ha":1089,"x_min":36,"x_max":1053,"o":"m 661 571 l 661 571 q 717 571 757 565 q 797 558 828 548 q 858 537 884 523 l 884 523 l 909 512 q 983 462 1018 386 q 1053 309 1053 217 l 1053 217 q 1053 105 1005 47 q 957 -12 866 -12 l 866 -12 q 806 -12 765 15 q 723 41 702 92 q 681 142 681 215 l 681 215 q 681 267 694 315 q 707 363 735 410 q 763 456 807 501 l 807 501 l 818 524 q 852 561 871 591 q 889 621 889 648 l 889 648 q 889 674 874 690 q 859 706 828 706 l 828 706 q 815 706 799 704 q 783 701 773 697 l 773 697 l 752 783 q 772 789 801 793 q 830 797 861 797 l 861 797 q 918 797 948 777 q 978 756 990 727 q 1002 698 1002 669 l 1002 669 q 1002 621 978 575 q 954 529 909 480 l 909 480 l 893 462 q 860 426 838 385 q 816 344 806 301 q 795 257 795 212 l 795 212 q 795 164 804 134 q 812 104 828 90 q 844 76 866 76 l 866 76 q 902 76 920 106 q 937 136 937 212 l 937 212 q 937 258 926 303 q 914 348 892 385 q 870 422 837 443 l 837 443 l 804 455 q 772 470 737 476 q 702 481 663 481 l 663 481 q 623 481 586 475 q 549 469 518 455 l 518 455 l 494 450 q 444 418 413 356 q 382 293 382 206 l 382 206 q 382 156 392 128 q 402 100 420 88 q 437 76 457 76 l 457 76 q 477 76 495 88 q 512 100 522 131 q 532 162 532 218 l 532 218 q 532 275 518 324 q 504 372 478 408 q 452 444 417 464 l 417 464 l 398 472 q 383 479 366 482 q 348 485 330 485 l 330 485 q 271 485 231 459 q 191 433 172 388 q 152 343 152 284 l 152 284 q 152 233 163 192 q 174 151 194 118 q 213 84 242 53 l 242 53 l 162 -10 q 126 24 98 66 q 69 108 53 163 q 36 218 36 288 l 36 288 q 36 342 51 393 q 66 443 100 484 q 133 524 187 548 q 240 571 319 571 l 319 571 q 365 571 403 561 q 440 551 474 529 l 474 529 l 492 516 q 564 470 605 397 q 646 323 646 220 l 646 220 q 646 144 624 92 q 602 40 560 14 q 517 -12 454 -12 l 454 -12 q 395 -12 353 15 q 311 41 289 92 q 267 143 267 213 l 267 213 q 267 273 283 324 q 298 375 331 418 q 363 461 417 494 l 417 494 l 437 515 q 476 542 532 557 q 587 571 661 571 z"},"ൾ":{"ha":938,"x_min":36,"x_max":902,"o":"m 710 797 l 710 797 q 767 797 797 777 q 827 756 839 727 q 851 698 851 669 l 851 669 q 851 621 826 575 q 801 529 758 480 l 758 480 l 741 462 q 708 426 687 385 q 665 344 655 301 q 644 257 644 212 l 644 212 q 644 164 652 134 q 660 104 677 90 q 693 76 715 76 l 715 76 q 750 76 768 106 q 786 136 786 214 l 786 214 q 786 247 781 282 q 776 316 765 349 q 754 382 737 410 q 719 437 693 456 l 693 456 q 674 469 653 476 q 632 483 600 483 l 600 483 q 573 483 549 476 q 524 469 506 456 l 506 456 q 472 431 462 386 q 452 341 452 276 l 452 276 l 452 216 q 452 179 448 148 q 443 116 433 90 q 422 63 403 43 l 403 43 q 378 16 343 2 q 307 -12 256 -12 l 256 -12 q 187 -12 138 21 q 89 53 63 113 q 36 172 36 256 l 36 256 q 36 326 51 383 q 65 440 91 486 q 117 532 151 572 l 151 572 l 237 510 q 210 477 191 439 q 172 401 162 357 q 151 313 151 261 l 151 261 q 151 199 165 159 q 178 118 201 98 q 224 78 253 78 l 253 78 q 277 78 293 86 q 308 94 317 109 l 317 109 q 329 128 333 156 q 337 183 337 234 l 337 234 l 337 297 q 337 379 358 434 q 378 489 419 520 l 419 520 q 453 546 495 559 q 536 571 599 571 l 599 571 q 639 571 671 564 q 703 556 730 543 l 730 543 l 745 535 q 797 505 832 457 q 867 409 885 349 q 902 288 902 222 l 902 222 q 902 105 854 47 q 806 -12 715 -12 l 715 -12 q 654 -12 613 15 q 572 41 551 92 q 530 142 530 215 l 530 215 q 530 267 543 315 q 556 363 584 410 q 612 456 655 501 l 655 501 l 669 528 q 701 564 720 593 q 738 621 738 648 l 738 648 q 738 674 723 690 q 708 706 676 706 l 676 706 q 663 706 648 704 q 632 701 621 697 l 621 697 l 601 783 q 620 789 651 793 q 681 797 710 797 z"},"ൿ":{"ha":1088,"x_min":29,"x_max":1058,"o":"m 468 571 l 468 571 q 544 571 591 536 q 638 500 661 435 q 684 370 684 281 l 684 281 q 684 182 658 117 q 632 52 584 20 q 536 -12 468 -12 l 468 -12 q 413 -12 374 9 q 334 29 308 62 l 308 62 q 277 103 264 161 q 251 218 251 283 l 251 283 q 251 424 308 498 q 365 571 468 571 z m 468 483 l 468 483 q 414 483 388 435 q 362 386 362 280 l 362 280 q 362 209 374 164 q 385 119 409 98 q 432 76 467 76 l 467 76 q 501 76 525 97 q 548 118 560 163 q 572 208 572 280 l 572 280 q 572 352 560 397 q 548 441 525 462 q 502 483 468 483 z m 197 -12 l 197 -12 q 116 -12 73 33 q 29 78 29 157 l 29 157 q 29 210 52 245 q 74 280 112 301 l 112 301 q 134 314 161 322 q 187 330 225 334 q 263 338 321 338 l 321 338 l 807 338 q 870 338 915 329 q 959 320 995 293 l 995 293 q 1023 272 1041 239 q 1058 206 1058 156 l 1058 156 q 1058 79 1018 34 q 977 -12 894 -12 l 894 -12 q 810 -12 768 36 q 726 83 726 156 l 726 156 q 726 190 733 221 q 740 251 753 284 l 753 284 q 755 288 756 294 q 756 300 758 304 l 758 304 q 770 333 786 367 q 801 401 822 444 l 822 444 q 845 493 861 529 q 877 565 885 594 q 893 622 893 647 l 893 647 q 893 674 878 690 q 863 706 831 706 l 831 706 q 818 706 803 704 q 787 701 776 697 l 776 697 l 756 783 q 776 789 806 793 q 836 797 866 797 l 866 797 q 923 797 953 777 q 983 756 995 727 q 1006 698 1006 671 l 1006 671 q 1006 646 1002 622 q 997 597 987 569 q 977 540 962 504 q 946 468 922 419 l 922 419 q 905 384 893 356 q 880 327 870 304 l 870 304 q 867 296 864 289 q 860 282 857 275 l 857 275 q 846 244 840 217 q 833 190 833 157 l 833 157 q 833 129 842 111 q 850 93 864 85 q 877 77 892 77 l 892 77 q 920 77 935 97 q 949 116 949 150 l 949 150 q 949 177 941 196 q 932 215 917 226 l 917 226 q 898 240 871 245 q 843 250 809 250 l 809 250 l 292 250 q 247 250 220 246 q 192 241 172 228 l 172 228 q 157 216 148 200 q 138 183 138 159 l 138 159 q 138 133 146 115 q 154 96 172 87 q 189 77 215 77 l 215 77 q 241 77 264 87 q 286 96 313 117 l 313 117 l 364 41 q 335 20 309 9 q 283 -3 256 -7 q 229 -12 197 -12 z"},"!":{"ha":270,"x_min":64,"x_max":205,"o":"m 180 224 l 90 224 l 67 714 l 203 714 l 180 224 z m 135 -13 l 135 -13 q 103 -13 84 6 q 64 25 64 63 l 64 63 q 64 102 83 121 q 102 139 135 139 l 135 139 q 167 139 186 121 q 205 103 205 63 l 205 63 q 205 24 186 6 q 166 -13 135 -13 z"},"\"":{"ha":433,"x_min":63,"x_max":370,"o":"m 163 542 l 81 542 l 63 800 l 181 800 l 163 542 z m 352 542 l 270 542 l 252 800 l 370 800 l 352 542 z"},"#":{"ha":561,"x_min":28,"x_max":532,"o":"m 164 0 l 79 0 l 117 204 l 28 204 l 28 289 l 133 289 l 160 427 l 55 427 l 55 512 l 175 512 l 215 713 l 300 713 l 262 512 l 359 512 l 398 713 l 482 713 l 444 512 l 532 512 l 532 427 l 428 427 l 400 289 l 506 289 l 506 204 l 384 204 l 345 0 l 259 0 l 298 204 l 203 204 l 164 0 z m 246 427 l 218 289 l 315 289 l 342 427 l 246 427 z"},"%":{"ha":771,"x_min":36,"x_max":735,"o":"m 277 0 l 187 0 l 492 714 l 583 714 l 277 0 z m 175 276 l 175 276 q 104 276 70 336 q 36 396 36 500 l 36 500 q 36 606 70 665 q 103 724 177 724 l 177 724 q 247 724 282 665 q 317 606 317 501 l 317 501 q 317 394 283 335 q 249 276 175 276 z m 176 360 l 176 360 q 199 360 210 394 q 221 427 221 500 l 221 500 q 221 573 210 607 q 199 640 176 640 l 176 640 q 153 640 142 607 q 131 573 131 500 l 131 500 q 131 427 143 394 q 154 360 176 360 z m 593 -9 l 593 -9 q 522 -9 488 51 q 454 111 454 215 l 454 215 q 454 321 488 380 q 521 439 595 439 l 595 439 q 666 439 701 380 q 735 321 735 217 l 735 217 q 735 110 701 51 q 667 -9 593 -9 z m 596 75 l 596 75 q 619 75 630 109 q 641 143 641 215 l 641 215 q 641 288 630 322 q 619 355 596 355 l 596 355 q 573 355 562 322 q 551 288 551 215 l 551 215 q 551 143 562 109 q 573 75 596 75 z"},"'":{"ha":244,"x_min":63,"x_max":181,"o":"m 163 542 l 81 542 l 63 800 l 181 800 l 163 542 z"},"(":{"ha":326,"x_min":44,"x_max":297,"o":"m 44 278 l 44 278 q 44 371 61 467 q 78 562 112 649 q 145 736 193 800 l 193 800 l 297 800 q 252 730 220 644 q 187 558 170 465 q 153 372 153 278 l 153 278 q 153 185 170 94 q 186 2 219 -83 q 251 -169 297 -244 l 297 -244 l 193 -244 q 142 -174 109 -86 q 76 1 60 95 q 44 189 44 278 z"},")":{"ha":327,"x_min":29,"x_max":283,"o":"m 283 278 l 283 278 q 283 186 266 90 q 248 -6 215 -92 q 181 -179 134 -244 l 134 -244 l 29 -244 q 75 -173 107 -87 q 139 -2 157 92 q 174 185 174 278 l 174 278 q 174 373 158 464 q 141 555 109 641 q 76 726 29 800 l 29 800 l 134 800 q 184 730 217 643 q 250 556 267 462 q 283 368 283 278 z"},"*":{"ha":525,"x_min":34,"x_max":491,"o":"m 207 800 l 316 800 l 299 624 l 476 673 l 491 567 l 324 555 l 433 411 l 337 359 l 260 514 l 191 359 l 92 411 l 199 555 l 34 568 l 51 673 l 225 625 l 207 800 z"},"+":{"ha":490,"x_min":36,"x_max":453,"o":"m 291 115 l 198 115 l 198 307 l 36 307 l 36 399 l 198 399 l 198 593 l 291 593 l 291 399 l 453 399 l 453 307 l 291 307 l 291 115 z"},",":{"ha":269,"x_min":38,"x_max":203,"o":"m 82 115 l 197 115 l 203 104 q 194 61 183 21 q 171 -19 157 -56 q 143 -94 127 -130 l 127 -130 l 38 -130 q 47 -92 56 -48 q 64 -4 71 39 q 78 81 82 115 l 82 115 z"},"-":{"ha":313,"x_min":33,"x_max":280,"o":"m 280 219 l 33 219 l 33 320 l 280 320 l 280 219 z"},".":{"ha":266,"x_min":62,"x_max":203,"o":"m 133 -13 l 133 -13 q 101 -13 82 6 q 62 25 62 63 l 62 63 q 62 102 81 121 q 100 139 133 139 l 133 139 q 165 139 184 121 q 203 103 203 63 l 203 63 q 203 25 184 6 q 165 -13 133 -13 z"},"/":{"ha":407,"x_min":18,"x_max":389,"o":"m 125 -244 l 18 -244 l 282 800 l 389 800 l 125 -244 z"},":":{"ha":266,"x_min":63,"x_max":203,"o":"m 133 -13 l 133 -13 q 101 -13 82 6 q 63 25 63 63 l 63 63 q 63 102 82 121 q 100 139 133 139 l 133 139 q 165 139 184 121 q 203 103 203 63 l 203 63 q 203 25 184 6 q 164 -13 133 -13 z m 133 395 l 133 395 q 101 395 82 414 q 63 433 63 471 l 63 471 q 63 510 82 529 q 100 547 133 547 l 133 547 q 166 547 185 529 q 203 510 203 471 l 203 471 q 203 433 184 414 q 164 395 133 395 z"},";":{"ha":268,"x_min":38,"x_max":203,"o":"m 82 115 l 197 115 l 203 104 q 195 61 183 21 q 171 -19 157 -56 q 143 -94 127 -130 l 127 -130 l 38 -130 q 48 -91 57 -47 q 65 -4 72 39 q 78 81 82 115 l 82 115 z m 132 395 l 132 395 q 100 395 81 414 q 61 433 61 471 l 61 471 q 61 510 80 529 q 98 547 132 547 l 132 547 q 165 547 184 529 q 202 510 202 471 l 202 471 q 202 433 183 414 q 163 395 132 395 z"},"<":{"ha":490,"x_min":35,"x_max":454,"o":"m 454 222 l 454 120 l 35 323 l 35 386 l 454 597 l 454 495 l 163 356 l 454 222 z"},"=":{"ha":490,"x_min":35,"x_max":453,"o":"m 453 202 l 35 202 l 35 293 l 453 293 l 453 202 z m 453 411 l 35 411 l 35 502 l 453 502 l 453 411 z"},">":{"ha":490,"x_min":35,"x_max":454,"o":"m 454 323 l 35 120 l 35 222 l 326 356 l 35 495 l 35 597 l 454 387 l 454 323 z"},"?":{"ha":390,"x_min":34,"x_max":364,"o":"m 191 724 l 191 724 q 276 724 320 678 q 364 631 364 556 l 364 556 q 364 514 356 484 q 347 454 329 426 q 310 398 279 360 l 279 360 q 258 335 246 317 q 233 298 228 282 q 223 265 223 247 l 223 247 l 223 224 l 121 224 l 121 254 q 121 286 129 313 q 136 339 153 364 q 169 388 193 414 l 193 414 q 217 439 230 460 q 242 480 247 500 q 252 520 252 545 l 252 545 q 252 584 229 604 q 205 623 170 623 l 170 623 q 145 623 121 617 q 97 610 74 597 l 74 597 l 34 685 q 73 705 109 715 q 144 724 191 724 z m 174 -13 l 174 -13 q 143 -13 124 7 q 104 26 104 63 l 104 63 q 104 102 123 121 q 142 139 174 139 l 174 139 q 206 139 226 121 q 245 102 245 63 l 245 63 q 245 25 226 6 q 206 -13 174 -13 z"},"[":{"ha":330,"x_min":69,"x_max":293,"o":"m 293 -244 l 69 -244 l 69 800 l 293 800 l 293 710 l 176 710 l 176 -154 l 293 -154 l 293 -244 z"},"\\":{"ha":407,"x_min":18,"x_max":389,"o":"m 389 -244 l 282 -244 l 18 800 l 125 800 l 389 -244 z"},"]":{"ha":330,"x_min":37,"x_max":261,"o":"m 261 -244 l 37 -244 l 37 -154 l 154 -154 l 154 710 l 37 710 l 37 800 l 261 800 l 261 -244 z"},"^":{"ha":523,"x_min":23,"x_max":501,"o":"m 125 311 l 23 311 l 226 716 l 288 716 l 501 311 l 397 311 l 257 580 l 125 311 z"},"_":{"ha":380,"x_min":-2,"x_max":382,"o":"m 382 -156 l -2 -156 l -2 -90 l 382 -90 l 382 -156 z"},"{":{"ha":374,"x_min":26,"x_max":337,"o":"m 337 -152 l 337 -244 q 265 -244 224 -224 q 182 -204 165 -168 q 147 -132 147 -82 l 147 -82 l 147 142 q 147 190 116 211 q 85 231 26 231 l 26 231 l 26 327 q 85 328 116 348 q 147 368 147 415 l 147 415 l 147 639 q 147 688 165 725 q 182 761 224 781 q 265 800 337 800 l 337 800 l 337 708 q 294 707 275 686 q 256 664 256 620 l 256 620 l 256 394 q 256 347 229 319 q 202 291 148 283 l 148 283 l 148 277 q 202 268 229 240 q 256 212 256 165 l 256 165 l 256 -65 q 256 -94 265 -113 q 273 -132 291 -141 q 309 -151 337 -152 l 337 -152 z"},"|":{"ha":551,"x_min":228,"x_max":323,"o":"m 323 -244 l 228 -244 l 228 800 l 323 800 l 323 -244 z"},"}":{"ha":374,"x_min":37,"x_max":347,"o":"m 37 708 l 37 800 q 110 800 151 780 q 192 760 210 724 q 227 688 227 638 l 227 638 l 227 416 q 227 368 258 348 q 289 327 347 327 l 347 327 l 347 231 q 289 231 258 211 q 227 190 227 143 l 227 143 l 227 -83 q 227 -132 209 -168 q 191 -205 150 -224 q 108 -244 37 -244 l 37 -244 l 37 -152 q 80 -151 99 -129 q 117 -108 117 -64 l 117 -64 l 117 165 q 117 212 145 240 q 172 268 227 276 l 227 276 l 227 282 q 172 291 145 319 q 117 347 117 394 l 117 394 l 117 621 q 117 650 109 669 q 101 688 84 698 q 66 708 37 708 l 37 708 z"},"~":{"ha":490,"x_min":35,"x_max":455,"o":"m 231 309 l 231 309 q 201 323 181 329 q 160 335 140 335 l 140 335 q 113 335 86 319 q 59 303 35 276 l 35 276 l 35 375 q 58 401 85 414 q 111 427 144 427 l 144 427 q 173 427 200 420 q 226 412 259 397 l 259 397 q 288 382 310 376 q 331 370 352 370 l 352 370 q 378 370 405 387 q 432 403 455 429 l 455 429 l 455 330 q 433 305 406 292 q 379 278 346 278 l 346 278 q 317 278 291 286 q 265 293 231 309 z"}," ":{"ha":247,"x_min":0,"x_max":0,"o":""},"­":{"ha":313,"x_min":33,"x_max":280,"o":"m 280 219 l 33 219 l 33 320 l 280 320 l 280 219 z"},"–":{"ha":500,"x_min":39,"x_max":461,"o":"m 461 218 l 39 218 l 39 318 l 461 318 l 461 218 z"},"—":{"ha":1000,"x_min":39,"x_max":961,"o":"m 961 218 l 39 218 l 39 318 l 961 318 l 961 218 z"},"‘":{"ha":244,"x_min":40,"x_max":205,"o":"m 161 555 l 46 555 l 40 566 q 49 609 61 649 q 72 688 87 726 q 101 764 116 800 l 116 800 l 205 800 q 196 761 187 717 q 178 673 172 631 q 165 589 161 555 l 161 555 z"},"’":{"ha":244,"x_min":40,"x_max":205,"o":"m 84 800 l 199 800 l 205 789 q 197 746 185 707 q 173 667 159 630 q 145 592 129 555 l 129 555 l 40 555 q 46 582 53 615 q 60 647 66 681 q 72 714 77 745 q 81 775 84 800 l 84 800 z"},"“":{"ha":442,"x_min":40,"x_max":403,"o":"m 359 555 l 244 555 l 238 566 q 247 609 259 649 q 270 689 285 727 q 299 764 314 800 l 314 800 l 403 800 q 394 760 385 718 q 376 675 370 634 q 363 592 359 555 l 359 555 z m 161 555 l 46 555 l 40 566 q 49 609 61 649 q 72 689 87 727 q 101 764 116 800 l 116 800 l 205 800 q 196 761 187 717 q 178 673 172 632 q 165 590 161 555 l 161 555 z"},"”":{"ha":442,"x_min":40,"x_max":403,"o":"m 282 800 l 396 800 l 403 790 q 395 746 383 707 q 371 667 357 630 q 343 592 327 555 l 327 555 l 238 555 q 248 597 257 640 q 265 682 272 723 q 278 763 282 800 l 282 800 z m 84 800 l 199 800 l 205 790 q 197 746 185 707 q 173 667 159 630 q 145 592 129 555 l 129 555 l 40 555 q 46 582 53 615 q 60 647 66 681 q 72 714 77 745 q 81 775 84 800 l 84 800 z"},"…":{"ha":780,"x_min":63,"x_max":718,"o":"m 133 -13 l 133 -13 q 101 -13 82 6 q 63 25 63 63 l 63 63 q 63 102 82 121 q 100 139 133 139 l 133 139 q 165 139 185 121 q 204 103 204 63 l 204 63 q 204 25 185 6 q 165 -13 133 -13 z m 390 -13 l 390 -13 q 358 -13 339 6 q 319 25 319 63 l 319 63 q 319 102 338 121 q 357 139 390 139 l 390 139 q 422 139 441 121 q 460 103 460 63 l 460 63 q 460 25 441 6 q 421 -13 390 -13 z m 647 -13 l 647 -13 q 615 -13 596 6 q 577 25 577 63 l 577 63 q 577 102 596 121 q 614 139 647 139 l 647 139 q 679 139 699 121 q 718 103 718 63 l 718 63 q 718 25 699 6 q 679 -13 647 -13 z"},"×":{"ha":490,"x_min":43,"x_max":446,"o":"m 243 418 l 382 555 l 446 492 l 307 353 l 444 215 l 381 152 l 243 289 l 106 152 l 43 216 l 179 353 l 43 490 l 106 554 l 243 418 z"},"÷":{"ha":490,"x_min":36,"x_max":453,"o":"m 453 307 l 36 307 l 36 399 l 453 399 l 453 307 z m 245 106 l 245 106 q 217 106 200 124 q 183 141 183 177 l 183 177 q 183 212 200 230 q 216 247 245 247 l 245 247 q 273 247 290 230 q 306 212 306 177 l 306 177 q 306 141 289 124 q 272 106 245 106 z m 245 458 l 245 458 q 217 458 200 476 q 183 493 183 528 l 183 528 q 183 564 200 582 q 216 599 245 599 l 245 599 q 273 599 290 582 q 306 564 306 528 l 306 528 q 306 493 289 476 q 272 458 245 458 z"},"−":{"ha":490,"x_min":36,"x_max":454,"o":"m 454 307 l 36 307 l 36 399 l 454 399 l 454 307 z"},"₹":{"ha":490,"x_min":54,"x_max":441,"o":"m 342 0 l 209 0 l 54 266 l 69 354 l 92 354 q 137 354 157 363 q 176 372 187 389 l 187 389 q 200 408 205 433 q 209 458 209 489 l 209 489 q 209 534 202 558 q 195 582 180 599 l 180 599 q 168 613 150 619 q 131 625 97 625 l 97 625 l 54 625 l 54 714 l 441 714 l 441 625 l 271 625 q 292 607 306 575 q 319 542 319 488 l 319 488 q 319 425 302 381 q 285 337 250 310 q 214 282 160 270 l 160 270 l 164 286 l 342 0 z m 441 449 l 54 449 l 54 539 l 441 539 l 441 449 z"},"꠰":{"ha":244,"x_min":65,"x_max":178,"o":"m 65 0 l 65 559 l 178 559 l 178 0 l 65 0 z"},"꠱":{"ha":429,"x_min":65,"x_max":363,"o":"m 65 0 l 65 559 l 178 559 l 178 0 l 65 0 z m 250 0 l 250 559 l 363 559 l 363 0 l 250 0 z"},"꠲":{"ha":613,"x_min":65,"x_max":548,"o":"m 65 0 l 65 559 l 178 559 l 178 0 l 65 0 z m 250 0 l 250 559 l 363 559 l 363 0 l 250 0 z m 435 0 l 435 559 l 548 559 l 548 0 l 435 0 z"},"॑":{"ha":0,"x_min":-321,"x_max":-237,"o":"m -321 653 l -321 864 l -237 864 l -237 653 l -321 653 z"},"॒":{"ha":0,"x_min":-491,"x_max":-67,"o":"m -67 -106 l -67 -186 l -491 -186 l -491 -106 l -67 -106 z"},"।":{"ha":324,"x_min":138,"x_max":254,"o":"m 254 -49 l 138 -49 l 138 603 l 254 603 l 254 -49 z"},"॥":{"ha":558,"x_min":139,"x_max":487,"o":"m 487 -49 l 373 -49 l 373 603 l 487 603 l 487 -49 z m 254 -49 l 139 -49 l 139 603 l 254 603 l 254 -49 z"},"᳚":{"ha":0,"x_min":-382,"x_max":-176,"o":"m -382 653 l -382 864 l -305 864 l -305 653 l -382 653 z m -252 653 l -252 864 l -176 864 l -176 653 l -252 653 z"},"̇":{"ha":0,"x_min":-322,"x_max":-201,"o":"m -322 701 l -322 701 q -322 736 -304 751 q -287 766 -261 766 l -261 766 q -234 766 -217 751 q -201 736 -201 701 l -201 701 q -201 666 -218 651 q -235 636 -261 636 l -261 636 q -287 636 -304 651 q -322 666 -322 701 z"},"̣":{"ha":0,"x_min":-322,"x_max":-200,"o":"m -322 -136 l -322 -136 q -322 -100 -304 -85 q -286 -70 -261 -70 l -261 -70 q -234 -70 -217 -85 q -200 -100 -200 -136 l -200 -136 q -200 -170 -217 -185 q -235 -201 -261 -201 l -261 -201 q -286 -201 -304 -185 q -322 -170 -322 -136 z"},"‐":{"ha":313,"x_min":33,"x_max":280,"o":"m 280 219 l 33 219 l 33 320 l 280 320 l 280 219 z"},"​":{"ha":0,"x_min":0,"x_max":0,"o":""},"‌":{"ha":0,"x_min":0,"x_max":0,"o":""},"‍":{"ha":0,"x_min":-161,"x_max":161,"o":"m 29 -244 l -29 -244 l -29 565 l -121 474 l -161 514 l -40 631 l -161 748 l -121 788 l 0 669 l 121 788 l 161 748 l 40 631 l 161 514 l 121 474 l 29 565 l 29 -244 z"},"◌":{"ha":562,"x_min":56,"x_max":503,"o":"m 88 231 l 88 231 q 56 231 56 264 l 56 264 q 56 295 88 295 l 88 295 q 120 295 120 264 l 120 264 q 120 231 88 231 z m 137 95 l 137 95 q 105 95 105 127 l 105 127 q 105 158 137 158 l 137 158 q 168 158 168 127 l 168 127 q 168 95 137 95 z m 280 40 l 280 40 q 248 40 248 72 l 248 72 q 248 104 280 104 l 280 104 q 311 104 311 72 l 311 72 q 311 40 280 40 z m 137 369 l 137 369 q 105 369 105 401 l 105 401 q 105 432 137 432 l 137 432 q 168 432 168 401 l 168 401 q 168 369 137 369 z m 422 95 l 422 95 q 390 95 390 127 l 390 127 q 390 158 422 158 l 422 158 q 454 158 454 127 l 454 127 q 454 95 422 95 z m 280 424 l 280 424 q 248 424 248 456 l 248 456 q 248 487 280 487 l 280 487 q 311 487 311 456 l 311 456 q 311 424 280 424 z m 471 231 l 471 231 q 440 231 440 264 l 440 264 q 440 295 471 295 l 471 295 q 503 295 503 264 l 503 264 q 503 231 471 231 z m 422 369 l 422 369 q 390 369 390 401 l 390 401 q 390 432 422 432 l 422 432 q 454 432 454 401 l 454 401 q 454 369 422 369 z"},"«":{"ha":522,"x_min":34,"x_max":486,"o":"m 34 263 l 34 277 l 190 487 l 273 443 l 159 270 l 273 98 l 190 54 l 34 263 z m 248 263 l 248 277 l 405 487 l 486 443 l 373 270 l 486 98 l 405 54 l 248 263 z"},"»":{"ha":522,"x_min":36,"x_max":488,"o":"m 488 277 l 488 263 l 331 54 l 249 98 l 363 270 l 249 443 l 331 487 l 488 277 z m 275 277 l 275 263 l 117 54 l 36 98 l 149 270 l 36 443 l 117 487 l 275 277 z"},"̈":{"ha":0,"x_min":-141,"x_max":143,"o":"m -141 678 l -141 678 q -141 710 -125 724 q -109 738 -86 738 l -86 738 q -62 738 -46 723 q -30 708 -30 679 l -30 679 q -30 649 -46 634 q -62 618 -86 618 l -86 618 q -109 618 -125 634 q -141 649 -141 678 z m 31 678 l 31 678 q 31 710 47 724 q 63 738 87 738 l 87 738 q 111 738 127 723 q 143 708 143 679 l 143 679 q 143 649 127 634 q 111 618 86 618 l 86 618 q 62 618 47 634 q 31 649 31 678 z"},"̀":{"ha":0,"x_min":-433,"x_max":-208,"o":"m -433 766 l -300 766 q -289 744 -272 716 q -256 688 -239 662 q -222 636 -209 618 l -209 618 l -209 606 l -288 606 q -303 618 -323 638 q -344 657 -365 680 q -387 702 -405 722 q -423 742 -433 756 l -433 756 l -433 766 z"},"́":{"ha":0,"x_min":-306,"x_max":-81,"o":"m -82 766 l -82 756 q -92 742 -109 723 q -127 703 -147 682 q -168 660 -189 641 q -210 621 -227 606 l -227 606 l -306 606 l -306 618 q -289 643 -272 668 q -255 693 -240 719 q -226 744 -215 766 l -215 766 l -82 766 z"},"̋":{"ha":0,"x_min":-118,"x_max":236,"o":"m 236 766 l 236 756 q 228 742 213 722 q 197 701 177 680 q 157 658 138 639 q 118 620 102 606 l 102 606 l 42 606 l 42 618 q 58 643 74 671 q 90 699 103 725 q 116 750 123 766 l 123 766 l 236 766 z m 75 766 l 75 756 q 67 741 52 722 q 37 702 18 681 q -1 660 -21 641 q -42 621 -61 606 l -61 606 l -118 606 l -118 618 q -103 644 -87 672 q -72 699 -58 724 q -45 749 -38 766 l -38 766 l 75 766 z"},"̄":{"ha":0,"x_min":-139,"x_max":140,"o":"m -139 700 l 140 700 l 140 613 l -139 613 l -139 700 z"},"˙":{"ha":208,"x_min":40,"x_max":168,"o":"m 104 752 l 104 752 q 135 752 152 736 q 168 719 168 685 l 168 685 q 168 651 151 635 q 134 618 104 618 l 104 618 q 75 618 58 635 q 40 651 40 685 l 40 685 q 40 720 57 736 q 74 752 104 752 z"},"°":{"ha":384,"x_min":38,"x_max":346,"o":"m 192 428 l 192 428 q 147 428 113 447 q 78 465 58 499 q 38 532 38 576 l 38 576 q 38 620 58 654 q 78 687 113 706 q 148 724 192 724 l 192 724 q 237 724 272 706 q 306 687 326 654 q 346 621 346 576 l 346 576 q 346 532 326 499 q 306 465 271 447 q 236 428 192 428 z m 192 499 l 192 499 q 225 499 246 520 q 267 541 267 576 l 267 576 q 267 612 246 633 q 225 653 192 653 l 192 653 q 159 653 138 632 q 117 611 117 576 l 117 576 q 117 541 139 520 q 161 499 192 499 z"},"A":{"ha":548,"x_min":0,"x_max":548,"o":"m 548 0 l 421 0 l 373 191 l 176 191 l 128 0 l 0 0 l 200 715 l 346 715 l 548 0 z m 349 297 l 299 501 q 295 521 290 541 q 285 561 281 580 q 277 599 274 616 l 274 616 q 271 600 267 579 q 262 557 257 537 q 252 516 248 502 l 248 502 l 199 297 l 349 297 z"},"Á":{"ha":548,"x_min":0,"x_max":548,"o":"m 548 0 l 421 0 l 373 191 l 176 191 l 128 0 l 0 0 l 200 715 l 346 715 l 548 0 z m 349 297 l 299 501 q 295 521 290 541 q 285 561 281 580 q 277 599 274 616 l 274 616 q 271 600 267 579 q 262 557 257 537 q 252 516 248 502 l 248 502 l 199 297 l 349 297 z m 432 937 l 432 927 q 422 913 405 894 q 387 874 367 853 q 346 831 325 812 q 304 792 287 777 l 287 777 l 208 777 l 208 789 q 225 814 242 839 q 259 864 274 890 q 288 915 299 937 l 299 937 l 432 937 z"},"Ă":{"ha":548,"x_min":0,"x_max":548,"o":"m 548 0 l 421 0 l 373 191 l 176 191 l 128 0 l 0 0 l 200 715 l 346 715 l 548 0 z m 349 297 l 299 501 q 295 521 290 541 q 285 561 281 580 q 277 599 274 616 l 274 616 q 271 600 267 579 q 262 557 257 537 q 252 516 248 502 l 248 502 l 199 297 l 349 297 z m 359 931 l 428 931 q 427 885 406 850 q 385 815 351 796 q 317 777 273 777 l 273 777 q 206 777 165 817 q 123 857 121 931 l 121 931 l 191 931 q 192 905 203 891 q 214 876 233 870 q 251 864 274 864 l 274 864 q 296 864 315 871 q 333 877 346 892 q 358 906 359 931 l 359 931 z"},"Â":{"ha":548,"x_min":0,"x_max":548,"o":"m 548 0 l 421 0 l 373 191 l 176 191 l 128 0 l 0 0 l 200 715 l 346 715 l 548 0 z m 349 297 l 299 501 q 295 521 290 541 q 285 561 281 580 q 277 599 274 616 l 274 616 q 271 600 267 579 q 262 557 257 537 q 252 516 248 502 l 248 502 l 199 297 l 349 297 z m 212 937 l 337 937 q 348 915 365 889 q 382 863 402 837 q 422 811 440 789 l 440 789 l 440 777 l 369 777 q 348 794 323 817 q 297 839 274 866 l 274 866 q 251 839 225 816 q 199 792 180 777 l 180 777 l 109 777 l 109 789 q 126 810 146 837 q 166 863 184 890 q 202 917 212 937 l 212 937 z"},"Ä":{"ha":548,"x_min":0,"x_max":548,"o":"m 548 0 l 421 0 l 373 191 l 176 191 l 128 0 l 0 0 l 200 715 l 346 715 l 548 0 z m 349 297 l 299 501 q 295 521 290 541 q 285 561 281 580 q 277 599 274 616 l 274 616 q 271 600 267 579 q 262 557 257 537 q 252 516 248 502 l 248 502 l 199 297 l 349 297 z m 132 849 l 132 849 q 132 881 148 895 q 164 909 187 909 l 187 909 q 211 909 227 894 q 243 879 243 850 l 243 850 q 243 820 227 805 q 211 789 187 789 l 187 789 q 164 789 148 805 q 132 820 132 849 z m 304 849 l 304 849 q 304 881 320 895 q 336 909 360 909 l 360 909 q 384 909 400 894 q 416 879 416 850 l 416 850 q 416 820 400 805 q 384 789 359 789 l 359 789 q 335 789 320 805 q 304 820 304 849 z"},"À":{"ha":548,"x_min":0,"x_max":548,"o":"m 548 0 l 421 0 l 373 191 l 176 191 l 128 0 l 0 0 l 200 715 l 346 715 l 548 0 z m 349 297 l 299 501 q 295 521 290 541 q 285 561 281 580 q 277 599 274 616 l 274 616 q 271 600 267 579 q 262 557 257 537 q 252 516 248 502 l 248 502 l 199 297 l 349 297 z m 125 937 l 258 937 q 269 915 286 887 q 302 859 319 833 q 336 807 349 789 l 349 789 l 349 777 l 270 777 q 255 789 235 809 q 214 828 193 851 q 171 873 153 893 q 135 913 125 927 l 125 927 l 125 937 z"},"Ā":{"ha":548,"x_min":0,"x_max":548,"o":"m 548 0 l 421 0 l 373 191 l 176 191 l 128 0 l 0 0 l 200 715 l 346 715 l 548 0 z m 349 297 l 299 501 q 295 521 290 541 q 285 561 281 580 q 277 599 274 616 l 274 616 q 271 600 267 579 q 262 557 257 537 q 252 516 248 502 l 248 502 l 199 297 l 349 297 z m 134 871 l 413 871 l 413 784 l 134 784 l 134 871 z"},"Ą":{"ha":548,"x_min":0,"x_max":548,"o":"m 548 0 l 421 0 l 373 191 l 176 191 l 128 0 l 0 0 l 200 715 l 346 715 l 548 0 z m 349 297 l 299 501 q 295 521 290 541 q 285 561 281 580 q 277 599 274 616 l 274 616 q 271 600 267 579 q 262 557 257 537 q 252 516 248 502 l 248 502 l 199 297 l 349 297 z m 441 -112 l 441 -112 q 441 -133 452 -145 q 463 -158 483 -158 l 483 -158 q 497 -158 507 -155 q 516 -153 523 -150 l 523 -150 l 523 -224 q 512 -228 497 -231 q 481 -234 462 -234 l 462 -234 q 407 -234 380 -206 q 352 -178 352 -130 l 352 -130 q 352 -103 364 -76 q 376 -50 397 -27 q 417 -4 444 13 l 444 13 l 504 0 q 470 -33 456 -59 q 441 -86 441 -112 z"},"Å":{"ha":548,"x_min":0,"x_max":548,"o":"m 548 0 l 421 0 l 373 191 l 176 191 l 128 0 l 0 0 l 200 715 l 346 715 l 548 0 z m 349 297 l 299 501 q 295 521 290 541 q 285 561 281 580 q 277 599 274 616 l 274 616 q 271 600 267 579 q 262 557 257 537 q 252 516 248 502 l 248 502 l 199 297 l 349 297 z m 274 656 l 274 656 q 223 656 192 686 q 161 716 161 765 l 161 765 q 161 815 192 845 q 223 875 274 875 l 274 875 q 324 875 357 845 q 389 815 389 767 l 389 767 q 389 717 358 687 q 326 656 274 656 z m 275 717 l 275 717 q 296 717 310 731 q 324 744 324 766 l 324 766 q 324 788 311 802 q 297 815 275 815 l 275 815 q 253 815 239 801 q 225 787 225 765 l 225 765 q 225 743 238 730 q 251 717 275 717 z"},"Ã":{"ha":548,"x_min":0,"x_max":548,"o":"m 548 0 l 421 0 l 373 191 l 176 191 l 128 0 l 0 0 l 200 715 l 346 715 l 548 0 z m 349 297 l 299 501 q 295 521 290 541 q 285 561 281 580 q 277 599 274 616 l 274 616 q 271 600 267 579 q 262 557 257 537 q 252 516 248 502 l 248 502 l 199 297 l 349 297 z m 166 776 l 103 776 q 105 803 112 828 q 119 852 132 873 q 145 893 164 905 q 182 916 207 916 l 207 916 q 226 916 244 908 q 262 900 278 889 q 294 878 310 870 q 326 862 341 862 l 341 862 q 357 862 368 878 q 378 893 382 917 l 382 917 l 446 917 q 442 849 413 813 q 383 777 341 777 l 341 777 q 323 777 305 785 q 287 793 270 804 q 253 814 238 823 q 222 831 208 831 l 208 831 q 195 831 183 816 q 171 801 166 776 l 166 776 z"},"Æ":{"ha":756,"x_min":-1,"x_max":705,"o":"m 705 103 l 705 0 l 359 0 l 359 191 l 186 191 l 121 0 l -1 0 l 250 714 l 705 714 l 705 611 l 477 611 l 477 423 l 690 423 l 690 320 l 477 320 l 477 103 l 705 103 z m 325 610 l 222 296 l 360 296 l 360 610 l 325 610 z"},"B":{"ha":558,"x_min":77,"x_max":512,"o":"m 77 714 l 262 714 q 375 714 436 674 q 497 633 497 537 l 497 537 q 497 496 486 463 q 475 429 453 408 q 431 386 396 379 l 396 379 l 396 374 q 436 365 462 344 q 487 323 500 289 q 512 255 512 206 l 512 206 q 512 143 487 97 q 461 50 413 25 q 364 0 295 0 l 295 0 l 77 0 l 77 714 z m 197 421 l 271 421 q 326 421 351 446 q 375 470 375 522 l 375 522 q 375 568 348 590 q 321 612 266 612 l 266 612 l 197 612 l 197 421 z m 276 322 l 197 322 l 197 103 l 283 103 q 338 103 364 132 q 389 161 389 217 l 389 217 q 389 251 377 275 q 365 298 340 310 q 315 322 276 322 l 276 322 z"},"C":{"ha":517,"x_min":51,"x_max":488,"o":"m 329 621 l 329 621 q 290 621 261 601 q 232 581 213 545 q 194 509 185 461 q 175 413 175 356 l 175 356 q 175 273 193 215 q 210 156 245 125 q 279 94 330 94 l 330 94 q 365 94 398 103 q 430 112 467 128 l 467 128 l 467 23 q 433 7 397 -1 q 360 -10 316 -10 l 316 -10 q 230 -10 171 34 q 112 78 82 160 q 51 242 51 357 l 51 357 q 51 436 69 503 q 86 570 121 620 q 155 669 206 697 q 257 724 323 724 l 323 724 q 367 724 409 713 q 450 701 488 680 l 488 680 l 450 580 q 421 597 390 609 q 359 621 329 621 z"},"Ć":{"ha":517,"x_min":51,"x_max":488,"o":"m 329 621 l 329 621 q 290 621 261 601 q 232 581 213 545 q 194 509 185 461 q 175 413 175 356 l 175 356 q 175 273 193 215 q 210 156 245 125 q 279 94 330 94 l 330 94 q 365 94 398 103 q 430 112 467 128 l 467 128 l 467 23 q 433 7 397 -1 q 360 -10 316 -10 l 316 -10 q 230 -10 171 34 q 112 78 82 160 q 51 242 51 357 l 51 357 q 51 436 69 503 q 86 570 121 620 q 155 669 206 697 q 257 724 323 724 l 323 724 q 367 724 409 713 q 450 701 488 680 l 488 680 l 450 580 q 421 597 390 609 q 359 621 329 621 z m 472 937 l 472 927 q 462 913 445 894 q 427 874 407 853 q 386 831 365 812 q 344 792 327 777 l 327 777 l 248 777 l 248 789 q 265 814 282 839 q 299 864 314 890 q 328 915 339 937 l 339 937 l 472 937 z"},"Č":{"ha":517,"x_min":51,"x_max":488,"o":"m 329 621 l 329 621 q 290 621 261 601 q 232 581 213 545 q 194 509 185 461 q 175 413 175 356 l 175 356 q 175 273 193 215 q 210 156 245 125 q 279 94 330 94 l 330 94 q 365 94 398 103 q 430 112 467 128 l 467 128 l 467 23 q 433 7 397 -1 q 360 -10 316 -10 l 316 -10 q 230 -10 171 34 q 112 78 82 160 q 51 242 51 357 l 51 357 q 51 436 69 503 q 86 570 121 620 q 155 669 206 697 q 257 724 323 724 l 323 724 q 367 724 409 713 q 450 701 488 680 l 488 680 l 450 580 q 421 597 390 609 q 359 621 329 621 z m 377 777 l 252 777 q 241 798 223 825 q 205 852 186 879 q 166 906 149 925 l 149 925 l 149 937 l 220 937 q 240 921 266 898 q 291 875 314 848 l 314 848 q 338 877 362 898 q 386 918 409 937 l 409 937 l 480 937 l 480 925 q 464 906 444 880 q 424 853 406 826 q 388 799 377 777 l 377 777 z"},"Ç":{"ha":517,"x_min":51,"x_max":488,"o":"m 329 621 l 329 621 q 290 621 261 601 q 232 581 213 545 q 194 509 185 461 q 175 413 175 356 l 175 356 q 175 273 193 215 q 210 156 245 125 q 279 94 330 94 l 330 94 q 365 94 398 103 q 430 112 467 128 l 467 128 l 467 23 q 433 7 397 -1 q 360 -10 316 -10 l 316 -10 q 230 -10 171 34 q 112 78 82 160 q 51 242 51 357 l 51 357 q 51 436 69 503 q 86 570 121 620 q 155 669 206 697 q 257 724 323 724 l 323 724 q 367 724 409 713 q 450 701 488 680 l 488 680 l 450 580 q 421 597 390 609 q 359 621 329 621 z m 402 -128 l 402 -128 q 402 -182 372 -211 q 341 -240 267 -240 l 267 -240 q 249 -240 235 -238 q 220 -236 207 -234 l 207 -234 l 207 -163 q 219 -167 235 -169 q 251 -171 263 -171 l 263 -171 q 284 -171 296 -162 q 308 -153 308 -134 l 308 -134 q 308 -113 289 -99 q 270 -85 231 -80 l 231 -80 l 268 0 l 339 0 l 322 -38 q 347 -44 365 -57 q 383 -70 393 -88 q 402 -106 402 -128 z"},"Ċ":{"ha":517,"x_min":51,"x_max":488,"o":"m 329 621 l 329 621 q 290 621 261 601 q 232 581 213 545 q 194 509 185 461 q 175 413 175 356 l 175 356 q 175 273 193 215 q 210 156 245 125 q 279 94 330 94 l 330 94 q 365 94 398 103 q 430 112 467 128 l 467 128 l 467 23 q 433 7 397 -1 q 360 -10 316 -10 l 316 -10 q 230 -10 171 34 q 112 78 82 160 q 51 242 51 357 l 51 357 q 51 436 69 503 q 86 570 121 620 q 155 669 206 697 q 257 724 323 724 l 323 724 q 367 724 409 713 q 450 701 488 680 l 488 680 l 450 580 q 421 597 390 609 q 359 621 329 621 z m 314 923 l 314 923 q 345 923 362 907 q 378 890 378 856 l 378 856 q 378 822 361 806 q 344 789 314 789 l 314 789 q 285 789 268 806 q 250 822 250 856 l 250 856 q 250 891 267 907 q 284 923 314 923 z"},"D":{"ha":604,"x_min":77,"x_max":554,"o":"m 554 365 l 554 365 q 554 246 518 165 q 482 84 413 42 q 343 0 242 0 l 242 0 l 77 0 l 77 714 l 256 714 q 349 714 415 674 q 481 634 518 557 q 554 479 554 365 z m 429 361 l 429 361 q 429 447 410 502 q 391 557 353 584 q 315 611 259 611 l 259 611 l 197 611 l 197 103 l 248 103 q 341 103 385 168 q 429 232 429 361 z"},"Ð":{"ha":604,"x_min":18,"x_max":553,"o":"m 77 714 l 255 714 q 348 714 415 674 q 481 634 517 557 q 553 480 553 365 l 553 365 q 553 246 518 165 q 482 84 413 42 q 343 0 242 0 l 242 0 l 77 0 l 77 316 l 18 316 l 18 410 l 77 410 l 77 714 z m 258 611 l 258 611 l 196 611 l 196 410 l 291 410 l 291 316 l 196 316 l 196 103 l 248 103 q 340 103 385 168 q 429 232 429 361 l 429 361 q 429 447 409 502 q 389 557 352 584 q 314 611 258 611 z"},"Ď":{"ha":604,"x_min":77,"x_max":554,"o":"m 554 365 l 554 365 q 554 246 518 165 q 482 84 413 42 q 343 0 242 0 l 242 0 l 77 0 l 77 714 l 256 714 q 349 714 415 674 q 481 634 518 557 q 554 479 554 365 z m 429 361 l 429 361 q 429 447 410 502 q 391 557 353 584 q 315 611 259 611 l 259 611 l 197 611 l 197 103 l 248 103 q 341 103 385 168 q 429 232 429 361 z m 362 777 l 237 777 q 226 798 208 825 q 190 852 171 879 q 151 906 134 925 l 134 925 l 134 937 l 205 937 q 225 921 251 898 q 276 875 299 848 l 299 848 q 323 877 347 898 q 371 918 394 937 l 394 937 l 465 937 l 465 925 q 449 906 429 880 q 409 853 391 826 q 373 799 362 777 l 362 777 z"},"Đ":{"ha":604,"x_min":18,"x_max":553,"o":"m 77 714 l 255 714 q 348 714 415 674 q 481 634 517 557 q 553 480 553 365 l 553 365 q 553 246 518 165 q 482 84 413 42 q 343 0 242 0 l 242 0 l 77 0 l 77 316 l 18 316 l 18 410 l 77 410 l 77 714 z m 258 611 l 258 611 l 196 611 l 196 410 l 291 410 l 291 316 l 196 316 l 196 103 l 248 103 q 340 103 385 168 q 429 232 429 361 l 429 361 q 429 447 409 502 q 389 557 352 584 q 314 611 258 611 z"},"E":{"ha":463,"x_min":77,"x_max":413,"o":"m 413 103 l 413 0 l 77 0 l 77 714 l 413 714 l 413 612 l 197 612 l 197 423 l 398 423 l 398 320 l 197 320 l 197 103 l 413 103 z"},"É":{"ha":463,"x_min":77,"x_max":413,"o":"m 413 103 l 413 0 l 77 0 l 77 714 l 413 714 l 413 612 l 197 612 l 197 423 l 398 423 l 398 320 l 197 320 l 197 103 l 413 103 z m 406 937 l 406 927 q 396 913 379 894 q 361 874 341 853 q 320 831 299 812 q 278 792 261 777 l 261 777 l 182 777 l 182 789 q 199 814 216 839 q 233 864 248 890 q 262 915 273 937 l 273 937 l 406 937 z"},"Ě":{"ha":463,"x_min":77,"x_max":413,"o":"m 413 103 l 413 0 l 77 0 l 77 714 l 413 714 l 413 612 l 197 612 l 197 423 l 398 423 l 398 320 l 197 320 l 197 103 l 413 103 z m 310 777 l 185 777 q 174 798 156 825 q 138 852 119 879 q 99 906 82 925 l 82 925 l 82 937 l 153 937 q 173 921 199 898 q 224 875 247 848 l 247 848 q 271 877 295 898 q 319 918 342 937 l 342 937 l 413 937 l 413 925 q 397 906 377 880 q 357 853 339 826 q 321 799 310 777 l 310 777 z"},"Ê":{"ha":463,"x_min":77,"x_max":413,"o":"m 413 103 l 413 0 l 77 0 l 77 714 l 413 714 l 413 612 l 197 612 l 197 423 l 398 423 l 398 320 l 197 320 l 197 103 l 413 103 z m 185 937 l 310 937 q 321 915 338 889 q 355 863 375 837 q 395 811 413 789 l 413 789 l 413 777 l 342 777 q 321 794 296 817 q 270 839 247 866 l 247 866 q 224 839 198 816 q 172 792 153 777 l 153 777 l 82 777 l 82 789 q 99 810 119 837 q 139 863 157 890 q 175 917 185 937 l 185 937 z"},"Ë":{"ha":463,"x_min":77,"x_max":413,"o":"m 413 103 l 413 0 l 77 0 l 77 714 l 413 714 l 413 612 l 197 612 l 197 423 l 398 423 l 398 320 l 197 320 l 197 103 l 413 103 z m 106 849 l 106 849 q 106 881 122 895 q 138 909 161 909 l 161 909 q 185 909 201 894 q 217 879 217 850 l 217 850 q 217 820 201 805 q 185 789 161 789 l 161 789 q 138 789 122 805 q 106 820 106 849 z m 278 849 l 278 849 q 278 881 294 895 q 310 909 334 909 l 334 909 q 358 909 374 894 q 390 879 390 850 l 390 850 q 390 820 374 805 q 358 789 333 789 l 333 789 q 309 789 294 805 q 278 820 278 849 z"},"Ė":{"ha":463,"x_min":77,"x_max":413,"o":"m 413 103 l 413 0 l 77 0 l 77 714 l 413 714 l 413 612 l 197 612 l 197 423 l 398 423 l 398 320 l 197 320 l 197 103 l 413 103 z m 248 923 l 248 923 q 279 923 296 907 q 312 890 312 856 l 312 856 q 312 822 295 806 q 278 789 248 789 l 248 789 q 219 789 202 806 q 184 822 184 856 l 184 856 q 184 891 201 907 q 218 923 248 923 z"},"È":{"ha":463,"x_min":77,"x_max":413,"o":"m 413 103 l 413 0 l 77 0 l 77 714 l 413 714 l 413 612 l 197 612 l 197 423 l 398 423 l 398 320 l 197 320 l 197 103 l 413 103 z m 99 937 l 232 937 q 243 915 260 887 q 276 859 293 833 q 310 807 323 789 l 323 789 l 323 777 l 244 777 q 229 789 209 809 q 188 828 167 851 q 145 873 127 893 q 109 913 99 927 l 99 927 l 99 937 z"},"Ē":{"ha":463,"x_min":77,"x_max":413,"o":"m 413 103 l 413 0 l 77 0 l 77 714 l 413 714 l 413 612 l 197 612 l 197 423 l 398 423 l 398 320 l 197 320 l 197 103 l 413 103 z m 108 871 l 387 871 l 387 784 l 108 784 l 108 871 z"},"Ę":{"ha":463,"x_min":77,"x_max":413,"o":"m 413 103 l 413 0 l 77 0 l 77 714 l 413 714 l 413 612 l 197 612 l 197 423 l 398 423 l 398 320 l 197 320 l 197 103 l 413 103 z m 329 -112 l 329 -112 q 329 -133 340 -145 q 351 -158 371 -158 l 371 -158 q 385 -158 395 -155 q 404 -153 411 -150 l 411 -150 l 411 -224 q 400 -228 385 -231 q 369 -234 350 -234 l 350 -234 q 295 -234 268 -206 q 240 -178 240 -130 l 240 -130 q 240 -103 252 -76 q 264 -50 285 -27 q 305 -4 332 13 l 332 13 l 392 0 q 358 -33 344 -59 q 329 -86 329 -112 z"},"F":{"ha":450,"x_min":77,"x_max":411,"o":"m 196 292 l 196 0 l 77 0 l 77 714 l 411 714 l 411 612 l 196 612 l 196 395 l 397 395 l 397 292 l 196 292 z"},"G":{"ha":607,"x_min":51,"x_max":543,"o":"m 317 287 l 317 392 l 543 392 l 543 29 q 492 10 441 0 q 390 -10 330 -10 l 330 -10 q 237 -10 175 36 q 112 81 82 164 q 51 246 51 358 l 51 358 q 51 469 87 551 q 122 633 192 679 q 261 724 362 724 l 362 724 q 411 724 457 712 q 502 700 541 679 l 541 679 l 502 580 q 472 599 437 610 q 401 621 364 621 l 364 621 q 306 621 264 591 q 222 560 199 501 q 175 442 175 356 l 175 356 q 175 280 191 221 q 207 162 243 128 q 279 94 337 94 l 337 94 q 365 94 385 97 q 405 100 424 106 l 424 106 l 424 287 l 317 287 z"},"Ğ":{"ha":607,"x_min":51,"x_max":543,"o":"m 317 287 l 317 392 l 543 392 l 543 29 q 492 10 441 0 q 390 -10 330 -10 l 330 -10 q 237 -10 175 36 q 112 81 82 164 q 51 246 51 358 l 51 358 q 51 469 87 551 q 122 633 192 679 q 261 724 362 724 l 362 724 q 411 724 457 712 q 502 700 541 679 l 541 679 l 502 580 q 472 599 437 610 q 401 621 364 621 l 364 621 q 306 621 264 591 q 222 560 199 501 q 175 442 175 356 l 175 356 q 175 280 191 221 q 207 162 243 128 q 279 94 337 94 l 337 94 q 365 94 385 97 q 405 100 424 106 l 424 106 l 424 287 l 317 287 z m 425 931 l 494 931 q 493 885 472 850 q 451 815 417 796 q 383 777 339 777 l 339 777 q 272 777 231 817 q 189 857 187 931 l 187 931 l 257 931 q 258 905 269 891 q 280 876 299 870 q 317 864 340 864 l 340 864 q 362 864 381 871 q 399 877 412 892 q 424 906 425 931 l 425 931 z"},"Ģ":{"ha":607,"x_min":51,"x_max":543,"o":"m 317 287 l 317 392 l 543 392 l 543 29 q 492 10 441 0 q 390 -10 330 -10 l 330 -10 q 237 -10 175 36 q 112 81 82 164 q 51 246 51 358 l 51 358 q 51 469 87 551 q 122 633 192 679 q 261 724 362 724 l 362 724 q 411 724 457 712 q 502 700 541 679 l 541 679 l 502 580 q 472 599 437 610 q 401 621 364 621 l 364 621 q 306 621 264 591 q 222 560 199 501 q 175 442 175 356 l 175 356 q 175 280 191 221 q 207 162 243 128 q 279 94 337 94 l 337 94 q 365 94 385 97 q 405 100 424 106 l 424 106 l 424 287 l 317 287 z m 411 -61 l 411 -71 q 403 -94 392 -120 q 380 -146 367 -172 q 354 -198 340 -221 l 340 -221 l 270 -221 l 270 -209 q 275 -191 281 -164 q 287 -137 292 -109 q 297 -82 299 -61 l 299 -61 l 411 -61 z"}}}
